<?xml version="1.0" standalone="no"?>
<!DOCTYPE svg PUBLIC "-//W3C//DTD SVG 20010904//EN"
 "http://www.w3.org/TR/2001/REC-SVG-20010904/DTD/svg10.dtd">
<svg version="1.0" xmlns="http://www.w3.org/2000/svg"
 width="1024.000000pt" height="1536.000000pt" viewBox="0 0 1024.000000 1536.000000"
 preserveAspectRatio="xMidYMid meet">

<g transform="translate(0.000000,1536.000000) scale(0.100000,-0.100000)"
fill="#000000" stroke="none">
<path d="M0 7680 l0 -7680 5120 0 5120 0 0 740 0 740 -54 0 c-29 0 -70 -7 -89
-15 -41 -17 -157 -20 -257 -5 -36 5 -101 11 -145 15 -44 3 -123 13 -175 22
-52 8 -112 16 -132 17 -21 0 -38 4 -38 7 0 5 -77 16 -280 40 -52 6 -126 17
-165 25 -38 7 -95 16 -125 18 -30 3 -71 8 -90 11 -19 3 -93 15 -165 25 -71 11
-155 24 -185 30 -30 5 -86 12 -125 15 -150 13 -163 14 -250 31 -16 3 -46 7
-65 9 -19 3 -42 6 -50 8 -37 9 -89 17 -140 22 -136 14 -200 22 -502 66 -42 6
-81 8 -87 4 -6 -3 -11 -1 -11 5 0 7 -7 10 -15 6 -8 -3 -15 -1 -15 4 0 6 -12
10 -27 9 -16 0 -44 2 -63 5 -19 3 -60 8 -90 11 -30 3 -95 12 -145 20 -146 23
-440 57 -492 57 -13 0 -23 3 -23 7 0 3 -26 7 -57 9 -32 1 -60 6 -63 10 -3 4
-32 8 -65 10 -33 1 -73 4 -90 7 -16 3 -59 10 -95 16 -36 5 -72 11 -80 13 -8 3
-55 8 -105 11 -49 4 -93 12 -96 17 -4 6 -13 9 -20 6 -8 -3 -57 0 -109 7 -52 7
-169 23 -260 34 -91 12 -194 26 -230 31 -110 18 -563 83 -605 87 -41 4 -323
41 -361 48 -12 2 -75 11 -140 20 -66 9 -148 20 -184 26 -164 25 -188 29 -230
34 -25 3 -63 7 -85 10 -22 3 -53 8 -70 10 -16 2 -109 15 -205 29 -96 13 -251
34 -345 46 -93 11 -199 25 -235 30 -36 5 -150 21 -255 35 -104 15 -199 28
-210 30 -11 2 -29 4 -39 4 -11 1 -16 4 -13 7 4 4 -2 19 -12 33 -14 19 -16 32
-10 50 9 23 10 23 122 17 193 -12 785 -70 917 -91 27 -4 157 -20 290 -35 47
-5 155 -18 240 -29 85 -11 202 -25 260 -31 198 -21 285 -31 304 -37 14 -4 16
-2 10 8 -6 11 -5 12 7 2 8 -6 55 -17 104 -23 50 -6 142 -17 205 -25 63 -8 140
-17 170 -20 30 -3 69 -7 85 -10 17 -3 46 -7 65 -9 19 -3 51 -7 70 -10 19 -3
55 -8 80 -10 349 -40 498 -58 565 -67 44 -6 96 -13 115 -15 19 -2 73 -8 120
-14 240 -29 346 -37 324 -22 -7 4 -14 16 -17 27 -5 19 -5 19 -12 -2 -8 -26
-25 -31 -25 -8 0 12 -7 14 -27 9 -25 -6 -26 -5 -15 8 9 11 10 18 2 23 -5 3
-10 1 -10 -4 0 -6 -9 -11 -20 -11 -11 0 -20 5 -20 11 0 8 -5 7 -15 -1 -20 -17
-32 -5 -15 15 7 8 9 15 5 15 -15 0 -75 -33 -75 -41 0 -5 -8 -9 -17 -9 -16 1
-16 2 2 16 17 13 18 16 5 25 -11 8 -12 12 -3 16 20 8 15 23 -8 23 -11 0 -18 4
-14 10 3 6 15 5 30 -2 27 -12 32 -24 13 -31 -31 -11 2 -14 45 -4 52 13 60 22
22 29 -14 3 -25 1 -25 -3 0 -23 -21 -6 -27 21 -4 22 -11 30 -27 31 -11 0 -15
3 -8 6 6 2 12 18 12 34 0 16 5 29 10 29 23 0 7 21 -20 27 -35 7 -37 13 -10 33
23 17 27 50 5 50 -8 0 -15 5 -15 10 0 6 5 10 10 10 6 0 10 9 10 20 0 11 5 20
11 20 7 0 9 -11 6 -30 -4 -18 -2 -30 4 -30 5 0 15 -14 20 -30 13 -37 29 -39
29 -4 0 23 20 54 34 54 3 0 6 -9 6 -20 0 -13 7 -20 20 -20 15 0 20 7 20 24 0
26 37 47 49 28 3 -5 16 -12 29 -16 23 -8 31 -26 10 -26 -6 0 -9 -2 -6 -5 7 -7
38 5 38 15 0 5 -9 12 -21 15 l-21 7 23 24 c20 22 77 36 65 16 -2 -4 0 -14 5
-22 7 -10 12 -11 15 -4 3 7 14 9 26 7 11 -4 24 0 28 8 7 10 11 7 19 -13 7 -20
15 -25 30 -21 15 4 21 1 21 -11 0 -30 30 -4 31 28 1 21 3 25 6 11 9 -34 53
-50 53 -19 0 13 7 15 30 11 22 -5 30 -3 30 8 0 8 9 15 19 15 11 0 22 6 24 13
5 12 19 0 31 -28 3 -6 8 -4 14 4 7 9 12 10 16 2 4 -6 2 -11 -3 -11 -6 0 -11
-7 -11 -15 0 -8 -7 -15 -15 -15 -8 0 -15 -4 -15 -10 0 -19 35 -10 45 13 8 18
22 24 73 31 56 8 62 11 62 32 0 13 5 24 11 24 6 0 10 -10 9 -22 -4 -46 0 -58
19 -58 11 0 21 5 23 12 3 9 16 8 53 -1 33 -8 51 -9 58 -2 6 6 19 11 29 11 10
0 18 5 18 10 0 6 8 10 18 10 14 0 15 -2 2 -10 -21 -13 -6 -23 38 -25 20 -2 47
-5 59 -8 14 -4 23 0 28 11 5 13 10 10 27 -16 13 -21 28 -32 44 -32 13 0 24 -5
24 -11 0 -12 51 -8 83 6 10 4 17 3 17 -4 0 -6 -7 -11 -15 -11 -8 0 -15 -4 -15
-10 0 -5 5 -10 11 -10 7 0 9 -10 7 -25 -5 -23 -2 -25 31 -24 20 1 28 3 19 6
-10 2 -18 10 -18 18 0 8 7 11 20 8 15 -4 20 0 20 16 0 24 25 28 38 6 16 -29
42 -7 42 36 0 32 3 39 20 39 17 0 20 -7 20 -40 0 -33 3 -40 19 -40 25 0 41 47
32 90 -6 31 -8 32 -23 17 -18 -19 -38 -22 -38 -7 0 6 7 10 15 10 8 0 15 7 15
15 0 8 -7 15 -16 15 -9 0 -12 -5 -8 -11 4 -7 2 -10 -5 -8 -18 6 -16 22 4 34
13 7 19 7 22 -2 7 -18 34 -16 48 3 11 16 12 16 18 0 4 -10 1 -16 -8 -16 -11 0
-13 -8 -8 -32 3 -18 11 -36 17 -40 8 -6 6 -11 -4 -17 -12 -9 -12 -11 2 -16 29
-11 42 0 45 39 2 31 0 36 -12 26 -8 -7 -20 -10 -27 -7 -8 4 -5 8 10 12 12 4
22 11 22 16 0 5 7 6 16 2 10 -4 17 1 21 16 4 17 13 21 44 21 32 0 37 3 33 18
-5 13 -4 14 4 3 8 -11 12 -10 20 5 6 10 13 16 16 13 3 -3 -4 -15 -15 -28 l-21
-22 23 -20 c13 -12 37 -19 61 -19 34 0 38 3 38 25 0 18 5 25 20 25 11 0 20 -4
20 -10 0 -19 37 -10 48 13 10 21 11 21 11 -9 1 -17 9 -38 19 -47 21 -19 42
-22 42 -7 0 6 -8 10 -19 10 -13 0 -18 7 -18 25 0 18 5 25 19 25 16 0 19 5 16
22 -4 21 -1 23 38 20 34 -3 44 -8 47 -25 4 -22 4 -22 6 1 0 12 6 22 11 22 6 0
10 -10 11 -22 0 -13 3 -17 6 -10 2 6 13 12 23 12 10 0 21 6 23 13 3 6 6 2 6
-10 1 -28 21 -31 21 -4 0 11 4 23 10 26 5 3 10 1 10 -4 0 -6 5 -11 10 -11 14
0 12 28 -2 33 -7 2 -10 8 -6 12 5 5 17 -2 28 -16 17 -18 23 -20 30 -10 9 15
93 32 109 22 13 -9 102 -1 96 9 -2 4 7 5 20 2 23 -4 30 -14 25 -37 -1 -5 7 -2
17 7 23 21 193 30 193 11 0 -6 4 -15 10 -18 5 -3 7 0 4 8 -3 8 -1 18 5 22 6 3
11 1 11 -4 0 -14 37 -14 45 -1 8 14 65 13 65 -1 0 -6 -9 -9 -20 -6 -11 3 -20
1 -20 -4 0 -15 31 -10 60 11 15 11 29 17 32 15 7 -7 168 -13 168 -6 0 4 18 5
40 3 22 -2 40 -8 40 -13 0 -5 7 -9 15 -9 8 0 15 5 15 10 0 6 5 10 10 10 6 0
10 -7 10 -15 0 -8 5 -15 10 -15 6 0 10 -14 10 -31 0 -39 22 -34 31 7 l7 29 1
-32 c0 -17 -4 -35 -9 -38 -6 -4 0 -15 15 -27 31 -24 42 -19 23 11 -11 18 -11
23 2 31 22 14 27 12 34 -15 9 -35 26 -31 26 5 0 17 4 30 10 30 11 0 25 -48 16
-57 -3 -4 -6 5 -7 18 -1 18 -3 16 -10 -11 -9 -38 -4 -70 12 -70 5 0 9 4 9 8 0
5 15 9 33 9 17 0 25 -2 15 -4 -9 -2 -19 -11 -22 -19 -3 -8 -2 -13 3 -10 4 3 6
-6 3 -19 -2 -14 0 -25 6 -25 6 0 8 -9 5 -20 -3 -11 -10 -17 -15 -14 -5 4 -8
-10 -6 -32 4 -50 28 -58 28 -10 0 20 5 36 10 36 6 0 10 -12 10 -27 0 -14 3
-23 6 -20 9 8 44 -11 44 -24 0 -6 -6 -6 -19 0 -15 9 -20 7 -25 -12 -8 -32 -8
-37 8 -37 9 0 17 -15 21 -40 4 -22 11 -40 16 -40 5 0 9 -5 9 -10 0 -15 -38 11
-43 30 -3 8 -3 -2 -2 -22 2 -27 -1 -38 -11 -38 -8 0 -14 10 -14 25 0 22 -4 25
-32 24 -31 0 -32 -1 -10 -11 12 -6 22 -15 22 -20 0 -13 -18 -10 -23 5 -2 6 -8
9 -12 5 -4 -4 0 -14 9 -23 9 -9 16 -24 15 -33 0 -11 -2 -12 -6 -4 -2 6 -17 12
-33 12 -16 0 -31 6 -33 13 -3 6 -6 8 -6 2 -1 -14 11 -28 36 -42 34 -19 53 -16
53 10 1 19 2 20 10 5 6 -9 7 -23 4 -31 -6 -17 -65 -29 -78 -16 -6 6 -5 9 2 9
7 0 12 5 12 10 0 23 -21 7 -26 -20 -5 -21 -12 -30 -25 -30 -11 0 -19 -6 -19
-14 0 -7 -9 -16 -21 -19 -16 -4 -19 -11 -14 -26 3 -12 2 -21 -4 -21 -5 0 -16
-3 -25 -6 -11 -4 -16 -1 -16 11 0 13 -6 16 -24 11 -15 -4 -27 -1 -30 7 -5 9
-7 9 -12 -1 -3 -7 -18 -27 -32 -45 -15 -18 -19 -26 -9 -18 15 12 17 11 17 -2
0 -8 6 -18 13 -20 7 -3 4 -6 -6 -6 -19 -1 -47 -23 -47 -38 0 -4 -18 -16 -41
-25 -36 -15 -39 -19 -27 -37 12 -20 70 -37 89 -26 5 4 16 2 24 -5 7 -6 102
-22 212 -35 202 -24 340 -42 403 -51 19 -3 73 -10 120 -14 47 -5 96 -11 110
-13 57 -9 200 -26 278 -32 l82 -7 0 565 0 565 -30 12 c-17 7 -33 10 -37 7 -6
-6 -63 19 -63 28 0 2 13 2 29 -1 16 -4 32 -1 35 5 4 6 20 11 37 11 l29 0 0
445 0 446 -302 -6 c-444 -9 -540 -9 -568 -1 -16 5 -20 5 -12 -2 9 -6 -140 -12
-405 -16 -230 -4 -450 -9 -490 -11 -39 -2 -361 -9 -715 -14 -353 -6 -753 -13
-888 -15 l-245 -4 200 8 c110 4 256 11 325 14 69 3 224 9 345 12 121 4 298 9
394 13 l174 6 -51 32 c-79 49 -66 74 27 53 31 -6 66 -14 78 -16 12 -2 25 -13
28 -24 14 -44 20 -45 241 -39 515 16 983 24 1406 24 l458 0 0 513 c0 484 -1
513 -18 508 -9 -2 -384 -7 -832 -11 -448 -3 -844 -7 -880 -10 -36 -3 -263 -7
-505 -10 -1032 -12 -1372 -16 -1570 -20 -445 -9 -867 -15 -1300 -20 -439 -5
-803 -12 -1075 -20 -74 -2 -346 -7 -605 -9 -503 -6 -876 -13 -1070 -21 -96 -4
-333 -10 -745 -18 -14 0 -70 1 -125 2 -55 2 -145 0 -200 -3 -134 -9 -560 -10
-610 -1 -54 9 -69 22 -94 80 -25 57 -53 75 -118 75 -55 0 -118 32 -137 69 -25
47 -2 58 149 71 72 7 133 14 136 16 3 2 167 6 365 9 197 3 451 8 564 10 113 2
756 9 1430 14 674 6 1290 13 1370 16 80 2 399 8 710 11 311 4 567 8 570 10 3
1 341 5 750 9 410 3 916 8 1125 10 209 2 659 6 1000 9 341 3 866 8 1168 12
l547 7 0 5148 0 5149 -5120 0 -5120 0 0 -7680z m4567 5504 c-3 -3 -12 -4 -19
-1 -8 3 -5 6 6 6 11 1 17 -2 13 -5z m-327 -24 c0 -5 -6 -10 -14 -10 -8 0 -21
-3 -30 -6 -9 -3 -16 -1 -16 4 0 9 9 13 53 21 4 0 7 -3 7 -9z m265 0 c-28 -12
-45 -12 -45 0 0 6 15 10 33 9 27 0 29 -2 12 -9z m-170 -20 c-3 -5 -23 -10 -43
-10 -28 0 -33 3 -22 10 20 13 73 13 65 0z m285 5 c0 -8 -52 -26 -58 -20 -3 2
6 9 19 14 28 11 39 13 39 6z m-179 -18 c-13 -13 -81 -21 -81 -9 0 12 19 17 61
17 16 0 24 -4 20 -8z m-112 -20 c-17 -11 -112 -37 -135 -37 -36 0 -25 10 18
16 18 3 42 9 53 14 23 10 58 18 64 13 2 -2 2 -4 0 -6z m506 -7 c3 -5 1 -10 -4
-10 -6 0 -11 5 -11 10 0 6 2 10 4 10 3 0 8 -4 11 -10z m-363 -20 c-16 -13 -37
-18 -78 -18 -44 1 -53 3 -39 11 11 6 38 9 61 8 24 0 46 3 49 9 3 5 12 10 18
10 7 -1 2 -9 -11 -20z m118 0 c-14 -4 -61 -22 -104 -39 -84 -32 -111 -35 -54
-5 52 28 120 51 153 52 29 0 29 0 5 -8z m-432 -15 c8 -7 -10 -25 -24 -25 -8 0
-13 -5 -11 -11 4 -18 -19 -21 -36 -4 -9 8 -22 15 -29 15 -10 0 -9 -3 2 -10 11
-7 5 -10 -24 -10 -33 0 -37 2 -26 15 7 8 27 17 46 21 19 3 37 11 40 16 5 8 52
3 62 -7z m99 -20 c-19 -19 -37 -19 -37 -1 0 8 10 16 23 18 30 5 32 2 14 -17z
m533 -6 c-7 -11 -14 -19 -16 -16 -7 7 7 37 17 37 6 0 5 -9 -1 -21z m-120 1 c8
-5 12 -10 10 -12 -13 -10 -66 -31 -72 -30 -5 1 -8 -2 -8 -7 0 -5 -16 -12 -35
-15 -22 -4 -42 -17 -56 -37 -12 -17 -24 -28 -27 -25 -3 4 5 18 19 32 22 24 50
39 133 73 49 20 24 21 -63 1 -57 -13 -99 -29 -130 -51 -30 -21 -39 -24 -27
-10 22 24 9 28 -20 6 -10 -8 -30 -14 -44 -15 -24 0 -23 1 10 22 41 25 70 32
70 17 0 -6 17 -1 37 11 21 12 67 28 103 35 82 17 82 17 100 5z m45 -10 c-3 -5
-11 -10 -16 -10 -6 0 -7 5 -4 10 3 6 11 10 16 10 6 0 7 -4 4 -10z m-645 -30
c0 -5 -11 -10 -24 -10 -14 0 -31 -7 -40 -15 -8 -8 -20 -15 -26 -15 -20 0 -84
-37 -144 -84 -63 -48 -66 -57 -13 -30 l32 17 -20 -22 c-11 -13 -35 -29 -53
-37 -19 -8 -50 -31 -69 -51 -19 -21 -31 -30 -28 -20 12 29 -12 19 -36 -15 -13
-18 -32 -39 -42 -47 -13 -9 -15 -16 -8 -21 9 -5 7 -11 -4 -20 -13 -11 -14 -10
-9 5 5 13 4 16 -4 11 -21 -13 -13 2 18 36 17 18 42 46 57 61 20 22 28 26 34
15 8 -12 13 -4 10 14 0 4 12 14 28 23 39 20 50 39 14 23 -15 -6 -34 -16 -41
-21 -9 -7 -11 -6 -7 4 3 8 25 22 50 32 24 10 60 34 80 53 20 19 41 34 47 34 6
0 9 2 6 5 -5 5 -49 -17 -133 -66 -20 -12 -20 -12 -1 10 28 31 152 92 173 85
15 -5 15 -4 3 4 -21 16 27 33 143 51 4 0 7 -3 7 -9z m680 -4 c0 -2 -7 -7 -16
-10 -8 -3 -12 -2 -9 4 6 10 25 14 25 6z m-170 -41 c0 -2 -10 -10 -22 -16 -21
-11 -22 -11 -9 4 13 16 31 23 31 12z m670 -10 c-7 -9 -15 -13 -17 -11 -7 7 7
26 19 26 6 0 6 -6 -2 -15z m-980 -9 c-26 -14 -99 -32 -90 -23 8 9 82 35 100
35 8 1 4 -5 -10 -12z m-280 -21 c0 -2 -10 -9 -22 -15 -22 -11 -22 -10 -4 4 21
17 26 19 26 11z m720 0 c0 -2 -20 -18 -45 -35 -57 -39 -59 -31 -3 10 41 30 48
34 48 25z m66 -20 c-11 -8 -24 -15 -30 -15 -5 0 -1 7 10 15 10 8 24 14 29 14
6 0 1 -6 -9 -14z m74 12 c0 -2 -12 -14 -27 -28 l-28 -24 24 28 c23 25 31 32
31 24z m-865 -34 c-27 -14 -51 -30 -53 -34 -2 -5 -8 -9 -13 -9 -6 0 -7 5 -4
10 3 6 0 10 -7 10 -8 1 -6 6 6 15 10 8 22 12 26 10 5 -3 23 2 41 10 55 24 58
16 4 -12z m195 12 c-7 -8 -20 -15 -29 -15 -9 0 -26 -6 -37 -13 -59 -34 -68
-37 -39 -15 29 23 92 56 109 57 5 1 3 -6 -4 -14z m1213 -23 c18 -16 23 -32 9
-32 -5 0 -24 14 -43 31 -31 29 -32 31 -9 24 14 -4 33 -14 43 -23z m-1088 -2
c-9 -15 -45 -32 -45 -22 0 5 10 14 23 20 29 14 29 14 22 2z m290 -30 c-10 -11
-23 -20 -29 -20 -6 0 0 9 14 20 32 25 38 25 15 0z m274 -10 c-13 -16 -25 -28
-27 -25 -5 5 37 55 45 55 2 0 -6 -13 -18 -30z m-994 0 c-10 -11 -20 -18 -23
-15 -7 6 18 35 31 35 5 0 2 -9 -8 -20z m239 5 c-7 -16 -24 -21 -24 -6 0 8 7
13 27 20 1 1 0 -6 -3 -14z m281 -31 c-17 -34 -20 -18 -4 23 6 15 13 23 15 17
3 -6 -2 -24 -11 -40z m1085 15 c0 -14 -16 -11 -29 5 -10 12 -8 13 8 9 12 -3
21 -9 21 -14z m-1436 -29 c-5 -5 -10 3 -11 18 -1 22 0 24 9 8 6 -10 6 -22 2
-26z m726 26 c0 -3 -4 -8 -10 -11 -5 -3 -10 -1 -10 4 0 6 5 11 10 11 6 0 10
-2 10 -4z m-761 -29 c-2 -1 -20 -13 -39 -25 l-35 -24 33 32 c19 17 36 29 40
26 3 -3 3 -7 1 -9z m481 -7 c-6 -11 -16 -20 -22 -20 -6 0 -3 9 7 20 10 11 20
20 22 20 2 0 -1 -9 -7 -20z m56 -8 c-17 -16 -18 -16 -5 5 7 12 15 20 18 17 3
-2 -3 -12 -13 -22z m-472 -13 c-10 -11 -28 -26 -39 -32 -11 -5 -4 5 15 24 38
37 55 43 24 8z m815 -38 c-36 -56 -52 -70 -22 -18 37 61 47 76 51 72 2 -2 -11
-27 -29 -54z m441 40 c0 -6 -4 -13 -10 -16 -5 -3 -10 1 -10 9 0 9 5 16 10 16
6 0 10 -4 10 -9z m-545 -21 c-10 -11 -20 -18 -23 -15 -7 6 18 35 31 35 5 0 2
-9 -8 -20z m17 -22 c-7 -7 -12 -8 -12 -2 0 14 12 26 19 19 2 -3 -1 -11 -7 -17z
m662 6 c3 -8 2 -12 -4 -9 -6 3 -10 10 -10 16 0 14 7 11 14 -7z m-924 -9 c-7
-8 -17 -15 -22 -15 -6 0 -5 7 2 15 7 8 17 15 22 15 6 0 5 -7 -2 -15z m-641
-12 c-6 -10 -23 -27 -37 -37 -21 -15 -20 -12 7 17 38 41 47 46 30 20z m481 8
c0 -5 -9 -19 -21 -32 l-20 -24 17 33 c19 33 24 38 24 23z m1189 -31 c25 -22
48 -40 53 -40 4 0 8 -10 8 -22 -1 -20 -2 -21 -13 -7 -7 8 -20 18 -30 22 -9 3
-22 18 -29 32 -6 14 -17 25 -24 25 -6 0 -14 7 -18 15 -9 24 6 17 53 -25z
m-979 21 c0 -5 -9 -19 -20 -32 l-20 -24 17 32 c19 34 23 39 23 24z m180 -6
c-7 -9 -15 -13 -17 -11 -7 7 7 26 19 26 6 0 6 -6 -2 -15z m-771 2 c-2 -1 -13
-9 -24 -17 -19 -14 -19 -14 -6 3 7 9 18 17 24 17 6 0 8 -1 6 -3z m685 -31 c-3
-9 -10 -16 -15 -16 -5 0 -9 -8 -10 -17 0 -10 -3 -13 -5 -6 -3 6 2 23 12 38 18
27 29 28 18 1z m-984 -1 c0 -2 -10 -10 -22 -16 -21 -11 -22 -11 -9 4 13 16 31
23 31 12z m1461 -18 c-10 -9 -11 -8 -5 6 3 10 9 15 12 12 3 -3 0 -11 -7 -18z
m176 1 c-3 -8 -6 -5 -6 6 -1 11 2 17 5 13 3 -3 4 -12 1 -19z m130 -10 c-3 -8
-6 -5 -6 6 -1 11 2 17 5 13 3 -3 4 -12 1 -19z m-1897 -18 c0 -4 -7 -11 -16
-14 -13 -5 -14 -4 -6 7 7 8 8 18 4 22 -4 5 -1 5 6 1 6 -4 12 -11 12 -16z m258
0 c-7 -10 -14 -17 -17 -15 -4 4 18 35 25 35 2 0 -1 -9 -8 -20z m238 5 c-8 -8
-18 -15 -22 -15 -3 0 -1 7 6 15 7 8 17 15 22 15 5 0 3 -7 -6 -15z m1562 -38
c25 -24 29 -42 6 -33 -8 3 -12 2 -9 -4 3 -6 3 -10 0 -10 -10 0 -35 27 -29 32
2 3 -2 11 -11 18 -8 7 -15 16 -15 21 0 12 32 -1 58 -24z m-2093 -47 c-3 -5
-12 -10 -18 -10 -7 0 -6 4 3 10 19 12 23 12 15 0z m2090 -30 c3 -5 1 -10 -4
-10 -6 0 -11 5 -11 10 0 6 2 10 4 10 3 0 8 -4 11 -10z m-1975 -3 c0 -2 -10
-12 -22 -23 l-23 -19 19 23 c18 21 26 27 26 19z m-211 -36 c-13 -11 -28 -20
-32 -21 -4 0 5 11 20 24 15 13 30 23 32 20 2 -2 -7 -12 -20 -23z m2277 -8 c-7
-7 -26 7 -26 19 0 6 6 6 15 -2 9 -7 13 -15 11 -17z m-2195 -1 c-5 -9 -19 -26
-32 -37 -22 -20 -20 -14 11 33 17 26 35 30 21 4z m139 14 c0 -2 -12 -12 -27
-21 l-28 -18 19 21 c17 20 36 29 36 18z m-210 -41 c-7 -9 -15 -13 -18 -10 -3
2 1 11 8 20 7 9 15 13 18 10 3 -2 -1 -11 -8 -20z m2281 -12 c13 -16 12 -17 -3
-4 -17 13 -22 21 -14 21 2 0 10 -8 17 -17z m-2281 -53 c-12 -16 -24 -30 -26
-30 -7 0 5 20 24 43 24 27 25 20 2 -13z m180 26 c0 -2 -8 -10 -17 -17 -16 -13
-17 -12 -4 4 13 16 21 21 21 13z m2155 -44 c-7 -8 -35 7 -35 18 0 6 7 6 20 -2
10 -7 17 -14 15 -16z m-2213 -34 c-7 -7 -12 -8 -12 -2 0 14 12 26 19 19 2 -3
-1 -11 -7 -17z m-172 -1 c0 -2 -12 -14 -27 -28 -20 -18 -24 -19 -13 -4 18 24
40 42 40 32z m2330 -28 c0 -6 -4 -7 -10 -4 -5 3 -10 11 -10 16 0 6 5 7 10 4 6
-3 10 -11 10 -16z m-2200 -3 c0 -2 -8 -10 -17 -17 -16 -13 -17 -12 -4 4 13 16
21 21 21 13z m2268 -26 c15 0 15 -2 2 -10 -12 -8 -12 -10 -1 -10 8 0 11 -3 8
-7 -9 -8 -57 17 -57 30 0 5 7 6 16 3 9 -3 23 -6 32 -6z m-2468 -84 c0 -2 -8
-10 -17 -17 -16 -13 -17 -12 -4 4 13 16 21 21 21 13z m60 -16 c0 -5 -5 -10
-11 -10 -5 0 -7 5 -4 10 3 6 8 10 11 10 2 0 4 -4 4 -10z m1511 -220 c2 -29 3
-33 16 -55 7 -11 13 -14 13 -7 0 6 4 12 9 12 21 0 60 -193 40 -205 -5 -4 -9
-12 -9 -18 0 -16 41 35 82 100 28 46 33 50 44 35 12 -15 13 -15 14 -1 0 8 7
24 16 35 15 19 15 18 11 -4 -3 -12 -2 -20 3 -17 12 8 22 -42 25 -130 4 -110
24 -213 45 -233 10 -9 25 -31 33 -48 9 -17 23 -34 32 -37 8 -4 15 -13 15 -20
0 -8 9 -22 19 -31 18 -17 37 -94 44 -181 4 -48 52 -154 73 -162 9 -3 21 1 28
8 12 13 45 139 62 231 3 21 12 42 20 49 8 6 14 21 14 34 0 28 74 97 89 82 6
-6 25 5 55 35 89 90 147 86 201 -13 25 -45 29 -65 30 -124 0 -59 -39 -295 -61
-372 -6 -22 -4 -23 77 -25 46 -1 119 0 162 1 l77 3 33 -36 c38 -41 50 -43 98
-18 24 12 55 17 104 16 77 -1 287 -38 313 -55 15 -9 14 -10 -3 -4 -41 14 -172
18 -207 6 -20 -6 -54 -29 -76 -50 -22 -22 -43 -37 -46 -34 -2 3 -22 -8 -42
-23 l-38 -29 25 35 c13 19 27 37 30 40 3 3 8 12 12 22 3 9 29 25 58 36 29 11
55 24 57 30 6 18 -68 26 -118 13 -64 -16 -118 -89 -77 -104 7 -2 8 -8 3 -13
-5 -5 -10 -5 -13 1 -14 38 -21 39 -68 14 -28 -14 -54 -38 -66 -59 -20 -35 -20
-35 -13 -5 4 17 8 45 10 64 1 18 5 52 8 76 7 41 6 43 -24 54 -20 7 -47 7 -78
1 -92 -17 -101 -29 -50 -60 33 -20 88 -93 88 -117 0 -20 -5 -17 -61 33 -66 58
-209 129 -209 103 0 -5 17 -17 38 -28 20 -11 51 -34 68 -53 40 -44 88 -117 81
-124 -3 -3 -8 3 -11 13 -3 10 -18 26 -33 35 -16 10 -56 38 -91 63 -35 25 -68
42 -74 39 -5 -3 -19 -27 -30 -53 -25 -60 -62 -107 -85 -110 -62 -8 -139 0
-150 15 -16 23 -5 44 23 44 33 0 94 26 94 41 0 7 -11 9 -35 5 -47 -9 -75 1
-75 25 0 10 -4 19 -9 19 -14 0 -39 -72 -51 -142 -5 -35 -17 -94 -26 -133 -8
-38 -18 -88 -21 -110 -4 -22 -12 -45 -19 -52 -9 -10 -11 -4 -7 30 3 30 2 38
-6 27 -5 -8 -7 -18 -5 -22 3 -4 1 -8 -5 -8 -6 0 -8 19 -4 52 5 39 3 49 -6 44
-7 -5 -10 -14 -7 -21 2 -7 -1 -21 -9 -31 -9 -13 -10 -23 -4 -31 7 -8 4 -13
-10 -18 -12 -3 -21 -13 -21 -22 0 -8 6 -13 13 -10 6 2 11 10 9 16 -1 6 2 11 7
11 12 0 33 -55 29 -76 -5 -26 -28 -30 -28 -5 0 12 -4 21 -10 21 -5 0 -7 -7 -4
-15 4 -8 1 -15 -6 -15 -8 0 -11 9 -8 25 4 17 1 25 -8 25 -8 0 -14 7 -14 15 0
8 -5 15 -12 15 -6 0 -8 3 -5 7 4 3 0 17 -8 29 -14 21 -13 24 4 33 19 11 34 68
20 77 -4 2 -9 -8 -11 -22 -2 -19 -10 -28 -25 -30 -12 -2 -25 1 -28 6 -3 6 -15
6 -29 0 -13 -5 -27 -6 -30 -3 -3 4 -6 1 -6 -5 0 -7 -4 -12 -9 -12 -4 0 -6 10
-4 23 3 15 -3 26 -16 35 -12 7 -21 8 -21 3 0 -6 5 -13 10 -16 6 -3 10 -10 10
-16 0 -5 -9 -4 -21 3 -13 9 -19 20 -16 36 4 21 3 22 -13 7 -18 -16 -70 -12
-70 6 0 5 -10 9 -22 10 -22 1 -22 1 2 9 23 7 23 8 -10 11 -19 1 -40 2 -47 2
-7 0 -11 4 -10 11 1 6 -6 10 -15 8 -10 -2 -18 1 -18 7 0 5 -8 8 -17 7 -10 -2
-18 -8 -18 -14 0 -22 -16 -25 -22 -4 -3 12 -9 20 -13 17 -15 -9 -40 7 -40 26
0 11 -7 19 -17 19 -16 1 -15 2 2 13 13 7 20 20 17 32 -2 15 -1 17 6 6 6 -8 12
-9 16 -3 3 6 -1 17 -9 25 -18 19 -19 28 -2 26 22 -2 57 13 57 26 0 16 28 28
43 18 7 -4 8 0 4 12 -4 9 -2 24 4 32 9 11 9 17 0 26 -10 9 -11 8 -6 -4 4 -12
-4 -23 -29 -37 -20 -12 -36 -17 -36 -12 0 5 9 12 20 15 11 4 20 15 20 26 0 33
23 47 79 47 47 0 56 3 84 33 26 29 30 41 29 86 -1 34 4 55 13 63 16 13 21 60
6 60 -5 0 -12 12 -16 27 -6 24 -110 133 -127 133 -5 0 -8 7 -8 15 0 8 -8 19
-19 24 -10 6 -22 22 -25 35 -6 24 -9 25 -70 21 -77 -5 -116 -14 -116 -27 0 -5
-4 -7 -9 -4 -5 4 -11 2 -13 -4 -1 -5 -18 -10 -35 -12 -30 -2 -38 -9 -34 -30 0
-4 -10 -3 -24 2 -16 6 -25 6 -25 0 0 -6 -3 -9 -7 -8 -5 1 -24 -6 -43 -17 -19
-10 -50 -20 -68 -22 -43 -5 -82 -20 -82 -33 0 -5 -7 -10 -14 -10 -8 0 -28 -12
-43 -26 -34 -31 -63 -48 -63 -36 0 8 -6 10 -49 14 -11 1 -17 6 -14 11 2 4 -8
5 -23 1 -35 -9 -43 -9 -74 0 l-25 7 25 -15 c24 -15 24 -15 3 -16 -12 0 -24 4
-27 9 -3 5 -15 7 -26 4 -16 -4 -20 0 -20 20 0 14 -3 33 -7 43 -4 11 -3 15 5
10 6 -3 13 3 17 16 3 13 18 51 33 84 24 55 32 63 73 79 28 11 45 24 42 31 -4
11 22 25 57 29 8 1 22 5 30 8 8 3 35 11 60 17 25 7 51 17 59 23 12 10 13 5 8
-37 -4 -27 -7 -58 -8 -70 0 -21 -1 -21 -9 -1 -8 19 -9 19 -9 -2 -1 -14 -7 -23
-16 -23 -8 0 -15 -7 -15 -15 0 -8 -8 -15 -17 -16 -12 0 -13 -2 -5 -6 7 -3 21
2 31 11 17 15 19 15 31 0 13 -14 15 -14 29 3 9 10 34 25 56 32 22 7 86 36 142
63 102 51 102 51 183 46 75 -4 79 -4 50 9 -67 28 -188 8 -240 -40 -32 -29
-144 -76 -182 -77 -22 0 -1 140 21 147 30 9 61 26 61 33 0 11 -54 -1 -62 -14
-9 -13 -10 20 -2 52 6 23 32 27 46 7 5 -6 14 -1 23 13 20 28 40 30 25 3 -13
-25 -13 -28 4 -34 10 -4 13 -1 9 9 -3 7 0 14 6 14 6 0 11 8 11 18 0 20 38 48
60 43 12 -2 13 0 3 10 -19 19 -17 24 31 78 43 48 59 56 50 23 -2 -10 8 8 23
39 57 115 98 122 58 10 -8 -22 -10 -41 -6 -41 8 0 32 51 66 143 19 49 34 61
36 27z m146 -32 c3 12 11 22 20 22 15 0 15 -13 -1 -78 -7 -31 -54 -130 -64
-136 -5 -3 -9 33 -9 79 -1 59 2 84 10 82 7 -1 14 12 16 28 l3 30 11 -25 c10
-25 10 -25 14 -2z m-1472 -19 c-4 -6 -22 -56 -41 -112 l-34 -102 5 63 c4 58
24 118 48 150 12 15 31 16 22 1z m78 -41 c-44 -47 -66 -82 -56 -92 3 -3 20 -6
36 -6 28 0 29 -1 23 -37 -22 -142 -15 -235 20 -264 7 -5 16 -23 19 -39 7 -31
7 -31 109 -66 69 -24 114 -32 89 -16 -10 6 -10 17 0 53 7 24 17 44 22 44 6 0
43 -6 83 -14 46 -9 72 -19 72 -28 0 -7 -15 -30 -34 -51 -31 -34 -33 -39 -18
-49 14 -8 15 -13 4 -26 -7 -9 -14 -29 -14 -46 -1 -17 -5 -28 -10 -25 -4 3 -8
0 -8 -7 0 -16 -31 -38 -54 -39 -10 0 -46 14 -79 31 -34 17 -77 31 -101 32 -23
0 -54 8 -71 18 -73 40 -105 62 -105 70 0 5 -9 9 -19 9 -23 0 -56 -66 -64 -130
-5 -36 -2 -53 13 -75 14 -22 20 -25 20 -12 0 19 15 23 26 6 4 -7 -1 -16 -10
-21 -11 -6 -14 -17 -10 -32 3 -13 1 -27 -5 -30 -6 -4 -11 -13 -11 -19 0 -7 4
-6 10 3 7 11 10 6 10 -20 0 -62 9 -75 58 -93 46 -17 47 -17 63 4 l17 22 7 -22
c8 -26 38 -40 125 -56 l65 -12 -47 -7 c-53 -9 -73 -4 -122 29 -20 13 -36 23
-36 21 0 -2 11 -24 25 -49 13 -26 20 -49 15 -52 -4 -3 -7 -13 -5 -23 2 -9 4
-24 5 -32 1 -11 3 -11 7 -2 3 8 11 4 25 -14 17 -21 19 -30 9 -50 -7 -15 -7
-23 -1 -19 13 8 13 -11 0 -36 -8 -13 -7 -19 0 -19 6 0 1 -14 -12 -30 -13 -18
-28 -28 -36 -25 -9 3 -12 0 -9 -9 3 -8 1 -17 -6 -20 -9 -3 -8 -8 3 -15 8 -6
10 -11 4 -11 -6 0 -19 9 -29 20 -23 25 -35 17 -35 -24 0 -39 33 -63 71 -51
l22 7 -23 13 c-22 12 -22 12 -1 18 11 3 21 0 21 -5 0 -6 7 -4 16 3 9 7 28 13
43 11 30 -2 66 22 56 38 -3 6 -3 10 2 9 20 -3 27 2 13 11 -10 6 -11 10 -2 10
6 0 12 7 12 15 0 8 3 14 8 13 10 -3 52 25 52 35 0 4 14 20 31 35 17 15 40 35
50 45 10 9 26 17 34 17 8 0 15 3 15 8 0 4 14 22 30 41 30 34 33 48 30 128 l-1
42 38 -5 c48 -6 103 -23 101 -32 -1 -4 8 -28 21 -54 13 -26 20 -51 17 -56 -3
-5 18 -13 46 -16 28 -4 64 -16 79 -27 15 -10 32 -19 39 -19 7 0 10 -6 7 -14
-4 -9 4 -16 22 -19 24 -5 28 -11 29 -41 1 -35 -11 -55 -23 -36 -4 6 -12 7 -18
3 -7 -4 -14 -8 -17 -9 -39 -12 -50 -19 -50 -31 0 -9 6 -13 15 -10 8 4 17 2 20
-3 4 -6 -1 -10 -9 -10 -9 0 -16 -4 -16 -10 0 -5 6 -7 14 -4 9 3 17 -3 22 -18
4 -12 13 -27 20 -33 19 -14 6 -55 -17 -55 -28 0 -30 -13 -4 -38 27 -26 65
-103 65 -132 0 -29 -26 -36 -64 -18 -39 19 -92 15 -137 -10 -23 -12 -65 -21
-124 -26 -49 -4 -94 -11 -100 -16 -6 -5 -23 3 -44 21 -45 39 -52 29 -13 -20
31 -38 31 -39 11 -59 -10 -12 -19 -29 -19 -38 0 -10 -3 -14 -7 -11 -10 11 -42
-23 -36 -39 9 -24 -14 -15 -35 13 -17 24 -21 25 -34 12 -8 -8 -17 -21 -21 -29
-3 -8 -3 8 0 35 7 61 32 122 65 158 14 15 29 44 33 65 4 20 18 52 32 70 25 34
38 82 21 82 -5 0 -6 5 -3 10 4 6 2 17 -5 25 -8 10 -8 29 -1 71 6 32 9 60 6 62
-3 3 -5 -2 -5 -11 0 -12 -7 -15 -35 -10 -19 3 -42 2 -52 -2 -10 -5 -21 -7 -25
-7 -5 1 -8 -4 -8 -12 0 -8 -5 -16 -10 -18 -16 -5 -23 -120 -8 -129 9 -6 8 -13
-6 -28 -11 -12 -16 -30 -13 -48 4 -27 4 -26 6 5 0 18 5 31 10 28 13 -8 1 -52
-20 -75 -15 -16 -17 -25 -9 -40 14 -27 13 -61 -2 -61 -9 0 -13 -20 -13 -65 0
-45 -4 -65 -12 -65 -15 0 -15 -2 -7 -24 3 -9 10 -13 15 -10 5 3 9 -2 9 -10 0
-9 -4 -16 -9 -16 -5 0 -8 -8 -6 -17 2 -10 6 -42 9 -72 5 -49 4 -53 -14 -48
-11 3 -20 1 -20 -4 0 -9 14 -13 38 -10 6 1 12 -3 12 -9 0 -5 -4 -11 -10 -11
-5 -1 -14 -2 -19 -3 -5 0 -11 -3 -13 -6 -1 -3 -1 -4 1 -3 2 1 14 -9 27 -22 19
-19 24 -34 22 -62 -1 -22 3 -38 10 -41 14 -4 16 -32 2 -32 -5 0 -10 4 -10 9 0
5 -18 41 -41 80 -22 39 -38 75 -34 81 3 5 1 10 -4 10 -6 0 -11 9 -11 20 0 11
-4 20 -10 20 -5 0 -10 7 -10 16 0 8 -9 34 -19 57 -21 46 -40 99 -137 377 -83
237 -75 217 -81 203 -3 -7 -11 -13 -19 -13 -8 0 -14 -5 -14 -11 0 -6 -7 -17
-15 -26 -14 -14 -15 -13 -11 8 7 27 -17 65 -33 54 -6 -3 -11 -2 -11 4 0 13 52
41 76 41 13 0 15 6 10 28 -28 130 -37 247 -32 412 6 173 2 218 -29 395 -22
120 -21 277 0 368 10 40 20 75 24 79 3 4 7 -46 8 -110 2 -63 7 -120 11 -124 5
-5 7 5 4 22 -5 35 5 40 18 8 9 -23 9 -23 10 2 1 41 47 161 72 187 21 23 70 50
93 52 5 1 -9 -18 -32 -41z m977 -95 c0 -10 -13 -33 -28 -51 l-28 -33 -2 28
c-2 20 5 34 25 50 34 27 33 27 33 6z m-856 -70 c-3 -16 -17 -37 -30 -49 l-25
-20 25 -12 c14 -6 28 -7 31 -3 3 5 14 7 25 4 20 -5 20 -7 4 -32 -21 -33 -66
-71 -77 -64 -5 3 -7 -15 -5 -39 2 -32 7 -42 18 -39 8 2 39 6 68 9 l52 4 0 -51
c0 -32 -4 -50 -10 -46 -5 3 -10 13 -10 21 0 9 -8 14 -22 12 -13 -1 -40 2 -61
6 -43 10 -44 12 -51 142 -5 95 -2 104 49 162 25 28 27 28 19 -5z m76 -28 c0
-8 -7 -15 -15 -15 -16 0 -20 12 -8 23 11 12 23 8 23 -8z m631 -32 c-12 -20
-14 -14 -5 12 4 9 9 14 11 11 3 -2 0 -13 -6 -23z m-38 -8 c-3 -9 -8 -14 -10
-11 -3 3 -2 9 2 15 9 16 15 13 8 -4z m-755 -55 c-1 -42 -18 -57 -18 -16 0 25
9 56 16 56 2 0 3 -18 2 -40z m736 -24 c-3 -21 -9 -35 -11 -32 -3 3 -2 21 1 42
4 20 10 34 12 31 3 -3 2 -21 -2 -41z m-535 -12 c-6 -16 -13 -24 -16 -17 -5 13
16 58 23 50 3 -2 -1 -17 -7 -33z m146 -4 c-3 -5 -13 -10 -21 -10 -8 0 -14 5
-14 10 0 6 9 10 21 10 11 0 17 -4 14 -10z m-10 -30 c3 -5 1 -19 -5 -29 -9 -17
-15 -19 -36 -11 -14 6 -30 8 -35 4 -5 -3 -9 2 -9 10 0 28 70 50 85 26z m-596
-135 l0 -20 -16 20 c-9 11 -14 14 -11 5 27 -79 19 -82 -12 -5 -21 52 -21 88 0
55 8 -12 10 -11 11 5 0 16 3 14 14 -10 8 -16 14 -39 14 -50z m652 2 c-10 -9
-11 -8 -5 6 3 10 9 15 12 12 3 -3 0 -11 -7 -18z m-618 -257 c4 -45 1 -39 -18
40 -29 112 -30 134 -6 65 10 -27 21 -75 24 -105z m1455 46 c12 -4 20 -12 17
-17 -4 -5 4 -9 16 -9 13 0 38 -10 56 -22 34 -24 44 -48 19 -48 -8 0 -17 -6
-19 -12 -4 -9 -6 -8 -6 2 -1 15 -43 40 -68 40 -7 0 -13 4 -13 10 0 11 -100 7
-120 -5 -10 -6 -12 -4 -7 8 7 18 -23 33 -33 16 -4 -6 -10 -7 -13 -2 -3 5 -2
15 3 23 7 12 12 12 22 2 6 -6 19 -12 28 -11 11 0 11 2 2 6 -10 4 -10 8 3 17
17 12 78 14 113 2z m-81 -321 c-9 -7 -13 -16 -9 -21 4 -4 0 -3 -8 3 -10 8 -21
9 -30 3 -8 -6 -37 -9 -65 -9 l-50 1 40 8 c22 5 58 15 80 22 44 16 67 12 42 -7z
m2128 -96 c33 -5 74 -13 90 -19 23 -7 19 -8 -20 -2 -85 12 -207 6 -239 -11
-16 -9 -33 -14 -38 -11 -4 3 -16 0 -26 -5 -10 -5 -65 -11 -123 -12 -57 -1
-109 -6 -116 -11 -6 -5 -14 -5 -16 -1 -9 14 56 52 109 64 113 26 249 29 379 8z
m-3185 -99 c0 -5 -2 -10 -4 -10 -3 0 -8 5 -11 10 -3 6 -1 10 4 10 6 0 11 -4
11 -10z m3356 -19 c118 -29 152 -34 134 -22 -31 22 3 10 73 -25 39 -20 100
-56 134 -80 34 -24 65 -44 70 -44 5 0 22 -12 39 -27 17 -16 23 -23 15 -17 -73
51 -227 94 -339 94 -80 0 -224 -19 -307 -40 -38 -10 -72 -17 -73 -15 -10 9
222 74 283 80 63 6 169 -6 275 -31 l25 -6 -24 20 c-13 11 -53 30 -88 42 -95
34 -287 34 -393 1 -41 -13 -88 -25 -105 -26 -16 -1 -46 -5 -65 -9 -30 -6 -32
-6 -15 5 11 7 22 15 25 18 9 11 74 30 120 36 25 3 72 12 105 19 46 11 53 15
28 15 -18 1 -33 6 -33 12 0 6 -7 9 -15 6 -8 -4 -17 -2 -20 3 -10 16 67 11 151
-9z m-282 -25 c-10 -8 -21 -12 -24 -9 -3 2 4 11 14 19 11 7 22 12 25 9 2 -3
-4 -12 -15 -19z m-2320 -11 c3 -8 1 -15 -4 -15 -6 0 -10 7 -10 15 0 8 2 15 4
15 2 0 6 -7 10 -15z m1155 -75 c-4 -44 -12 -102 -19 -129 -6 -27 -13 -55 -14
-62 -9 -45 -22 -78 -41 -107 -20 -30 -23 -31 -28 -12 -3 12 1 24 11 30 10 5
13 10 8 10 -5 0 -3 6 3 14 8 9 9 16 2 20 -6 4 -8 20 -4 36 3 17 1 30 -4 30 -5
0 -10 -8 -11 -17 -7 -69 -20 -103 -38 -96 -8 3 -14 13 -12 22 2 9 -7 24 -19
34 -13 10 -22 28 -22 40 2 22 2 22 6 1 4 -20 5 -20 34 7 20 18 27 33 23 44 -6
14 -3 16 14 10 17 -5 22 -2 22 12 0 39 -12 62 -28 56 -10 -4 -13 -2 -8 5 4 7
5 12 2 12 -3 0 -13 -15 -21 -32 -14 -32 -14 -31 -8 32 7 84 16 100 56 101 18
1 43 5 57 9 46 15 46 14 39 -70z m-1749 23 c0 -5 -7 -26 -15 -48 -13 -36 -14
-37 -15 -12 0 15 -4 27 -10 27 -5 0 -2 9 7 20 18 20 33 26 33 13z m688 -5 c8
-8 15 -8 26 1 16 13 36 7 36 -10 0 -6 -5 -7 -12 -3 -7 5 -9 2 -5 -9 4 -11 -1
-18 -14 -22 -11 -4 -19 -9 -16 -11 9 -10 38 10 52 35 12 20 15 22 13 6 -2 -15
2 -19 20 -18 13 2 22 -3 22 -12 0 -19 21 -30 30 -15 5 9 9 9 14 1 4 -6 2 -11
-3 -11 -6 0 -11 -10 -12 -22 0 -22 -1 -22 -8 -3 -7 18 -10 17 -25 -13 -19 -37
-12 -58 8 -29 18 24 29 21 16 -4 -9 -15 -8 -24 2 -37 11 -13 11 -14 -1 -7 -11
6 -13 4 -7 -10 4 -11 1 -22 -6 -28 -9 -6 -8 -7 5 -3 13 4 20 0 24 -14 3 -11 9
-17 14 -14 5 3 9 -2 9 -11 0 -9 -5 -13 -11 -9 -7 4 -7 -2 1 -17 16 -30 25 -39
17 -17 -3 10 0 29 7 43 l14 26 6 -36 c7 -34 26 -50 26 -21 0 8 4 18 10 21 5 3
7 0 4 -8 -3 -8 0 -18 6 -22 8 -5 9 -10 2 -14 -5 -3 -12 -19 -13 -36 -3 -25 -1
-29 15 -27 10 2 15 -1 12 -6 -3 -5 1 -18 9 -28 18 -24 19 -61 3 -67 -10 -4
-10 -8 1 -15 11 -8 10 -12 -5 -21 -21 -11 -15 -15 10 -5 9 3 16 14 16 23 0 23
9 31 25 25 10 -4 9 -10 -5 -24 -14 -14 -17 -28 -13 -54 4 -29 2 -36 -10 -36
-10 0 -14 6 -11 14 8 22 -28 30 -44 9 -10 -13 -16 -14 -19 -5 -9 22 -20 12
-21 -19 -1 -33 -12 -52 -19 -33 -2 7 -12 10 -22 7 -25 -6 -32 17 -24 87 5 52
9 60 27 61 12 1 6 5 -14 9 l-35 7 38 2 c35 1 48 13 27 26 -5 3 -10 1 -10 -4 0
-6 -11 -11 -25 -11 -24 0 -30 14 -24 56 1 8 -22 24 -33 24 -5 0 -7 -3 -7 -7 3
-19 -2 -33 -11 -33 -6 0 -6 9 1 26 8 23 6 29 -12 42 -18 12 -20 21 -15 57 5
33 3 44 -8 48 -15 6 -18 47 -3 47 4 0 5 5 2 10 -3 6 -1 10 5 10 6 0 9 -8 6
-17 -5 -15 1 -18 29 -19 19 -1 32 3 29 8 -3 5 -12 7 -20 4 -8 -3 -11 0 -8 9 3
7 -4 19 -17 25 l-22 13 24 13 24 13 -23 1 c-16 0 -21 4 -16 13 6 10 4 10 -7 0
-7 -7 -17 -13 -21 -13 -13 0 -9 28 5 34 6 3 0 3 -16 1 -16 -2 -25 0 -22 6 4 5
-1 23 -9 41 -9 17 -16 33 -16 35 0 7 17 2 28 -9z m227 -18 c3 -5 1 -10 -4 -10
-6 0 -11 5 -11 10 0 6 2 10 4 10 3 0 8 -4 11 -10z m85 -6 c0 -2 -7 -4 -15 -4
-8 0 -15 4 -15 10 0 5 7 7 15 4 8 -4 15 -8 15 -10z m-1135 -34 c-3 -5 -13 -10
-21 -10 -8 0 -12 5 -9 10 3 6 13 10 21 10 8 0 12 -4 9 -10z m-363 -32 c-7 -7
-12 -8 -12 -2 0 14 12 26 19 19 2 -3 -1 -11 -7 -17z m-95 -24 c28 -18 40 -59
23 -79 -18 -22 -36 -18 -64 12 l-25 27 -9 -23 c-8 -21 -10 -22 -24 -7 -23 23
-28 20 -28 -14 0 -17 -7 -47 -17 -68 -16 -36 -16 -36 -22 -12 -9 36 -33 67
-53 67 -17 0 -38 -49 -38 -89 0 -28 -20 -31 -45 -8 -27 26 -61 21 -51 -8 4
-10 -2 -7 -14 8 -11 14 -20 31 -20 38 0 27 -16 10 -18 -20 -4 -54 -13 -89 -23
-82 -5 3 -9 1 -9 -5 0 -5 -15 -14 -33 -20 -19 -7 -40 -23 -48 -37 -14 -28 -49
-52 -49 -34 0 24 -31 8 -36 -19 -7 -31 -52 -85 -98 -115 -29 -18 -29 -18 -23
3 5 21 -7 29 -18 11 -3 -5 -10 -29 -14 -52 -8 -41 -9 -42 -18 -18 l-10 25 -8
-25 c-4 -14 -7 -39 -7 -57 2 -44 -40 -93 -79 -93 -19 0 -29 -5 -29 -15 0 -8
-5 -14 -12 -12 -7 1 -17 -13 -24 -32 -11 -34 -11 -34 -23 -12 -8 13 -10 35 -5
54 8 37 51 97 69 97 7 0 34 29 59 65 26 35 55 70 65 77 10 7 32 34 49 59 18
26 50 62 72 80 23 19 58 50 78 69 65 61 155 130 168 130 8 0 20 10 29 23 16
26 75 61 118 71 15 3 27 11 27 16 0 42 182 61 237 24z m4205 -14 c42 -16 78
-26 81 -24 2 2 16 -9 31 -25 l28 -29 -54 27 c-51 25 -60 26 -208 25 -146 -1
-160 -3 -249 -33 -52 -18 -125 -48 -162 -67 -57 -30 -70 -34 -82 -23 -12 11
-8 16 26 32 23 10 48 19 56 20 9 2 26 8 37 15 12 6 24 8 28 5 3 -3 6 0 6 7 0
7 3 10 7 7 3 -4 20 2 37 12 17 10 49 24 71 31 22 7 50 19 62 27 12 8 37 17 55
20 18 3 35 7 38 9 10 11 120 -10 192 -36z m-2285 7 c11 4 14 2 11 -8 -3 -8
-14 -13 -24 -11 -18 3 -18 3 1 -11 11 -9 17 -19 13 -22 -13 -13 -38 23 -34 47
6 33 8 35 13 16 3 -11 10 -15 20 -11z m-47 -7 c0 -5 -4 -10 -10 -10 -5 0 -10
5 -10 10 0 6 5 10 10 10 6 0 10 -4 10 -10z m-410 -30 c0 -5 -7 -10 -16 -10 -8
0 -12 5 -9 10 3 6 10 10 16 10 5 0 9 -4 9 -10z m750 -11 c0 -5 -11 -9 -25 -9
-14 0 -25 6 -25 14 0 9 8 12 25 8 14 -2 25 -8 25 -13z m-300 -28 c0 -5 -7 -11
-15 -15 -15 -5 -20 5 -8 17 9 10 23 9 23 -2z m-393 -7 c-3 -3 -12 -4 -19 -1
-8 3 -5 6 6 6 11 1 17 -2 13 -5z m2831 -27 c63 -33 133 -99 160 -154 11 -21
37 -59 58 -84 20 -24 61 -80 89 -124 55 -83 149 -264 142 -271 -2 -2 -21 31
-42 73 -21 43 -53 99 -70 124 -18 25 -36 55 -39 67 -4 12 -12 21 -19 19 -6 -1
-12 4 -13 11 -1 6 -2 16 -3 22 0 5 -7 7 -13 5 -7 -3 -34 14 -59 38 -26 23 -52
41 -58 39 -6 -2 -14 3 -17 12 -3 9 -16 16 -28 17 -20 0 -20 1 -1 9 18 8 17 9
-8 9 -15 1 -54 12 -87 26 -33 14 -77 25 -99 25 -54 0 -71 8 -71 35 0 18 7 24
38 30 71 13 107 8 173 -25 35 -18 66 -35 69 -39 3 -3 20 -19 39 -36 l33 -30
-21 42 c-27 54 -103 119 -177 151 -51 22 -73 26 -159 25 -99 -1 -241 -30 -332
-68 -20 -9 -38 -13 -40 -11 -9 9 86 48 172 71 76 21 109 24 210 21 108 -2 125
-5 173 -29z m-2412 -15 c-15 -15 -16 -15 -16 1 0 10 5 15 10 12 6 -3 10 2 11
12 0 12 2 14 6 5 3 -8 -2 -21 -11 -30z m-623 4 c9 3 17 2 17 -4 0 -10 -23 -22
-41 -22 -5 0 -9 10 -9 23 0 15 3 18 8 9 5 -7 16 -10 25 -6z m754 -33 c-3 -10
-5 -4 -5 12 0 17 2 24 5 18 2 -7 2 -21 0 -30z m-818 -45 c22 -29 45 -58 51
-65 5 -7 10 -19 10 -26 0 -8 12 -36 27 -63 18 -32 23 -49 15 -52 -17 -5 -15
-27 5 -43 15 -12 16 -12 10 3 -3 10 -2 20 3 23 8 5 22 -24 25 -55 1 -8 5 -26
10 -40 7 -22 6 -23 -9 -11 -9 7 -16 20 -16 27 0 8 -9 22 -21 32 -11 9 -25 27
-30 40 -8 21 -29 31 -29 14 0 -4 -18 -8 -40 -8 -28 -1 -40 3 -40 12 0 21 -57
18 -70 -3 -10 -16 -10 -15 -5 4 3 12 2 24 -4 27 -5 3 -7 16 -5 29 l5 22 -10
-22 c-11 -25 -31 -31 -31 -10 0 7 5 18 11 24 7 7 8 17 1 30 -8 14 -4 24 18 46
16 16 34 48 41 73 7 24 19 44 25 44 7 0 31 -24 53 -52z m911 26 c0 -8 -4 -12
-10 -9 -5 3 -10 10 -10 16 0 5 5 9 10 9 6 0 10 -7 10 -16z m-170 -31 c0 -32
-5 -28 -14 10 -4 19 -3 26 4 22 5 -3 10 -18 10 -32z m40 5 c0 -19 -2 -20 -10
-8 -13 19 -13 30 0 30 6 0 10 -10 10 -22z m1560 17 c0 -2 -10 -10 -22 -16 -21
-11 -22 -11 -9 4 13 16 31 23 31 12z m-1628 -20 c0 -5 -5 -11 -11 -13 -6 -2
-11 4 -11 13 0 9 5 15 11 13 6 -2 11 -8 11 -13z m-392 -20 c0 -8 5 -15 12 -15
6 0 8 -3 5 -6 -9 -9 25 -64 40 -64 6 0 15 -5 19 -12 4 -7 3 -8 -4 -4 -7 4 -12
1 -12 -10 0 -13 -3 -14 -15 -4 -8 7 -13 16 -10 20 2 4 -4 15 -15 25 -11 10
-20 26 -20 37 0 10 -4 18 -9 18 -5 0 -11 7 -15 15 -3 9 0 15 9 15 8 0 15 -7
15 -15z m354 -10 c-4 -8 -8 -15 -10 -15 -2 0 -4 7 -4 15 0 8 4 15 10 15 5 0 7
-7 4 -15z m316 -30 c0 -5 -5 -3 -10 5 -5 8 -10 20 -10 25 0 6 5 3 10 -5 5 -8
10 -19 10 -25z m1205 14 c-27 -3 -52 -5 -54 -3 -10 9 44 20 73 15 28 -5 26 -6
-19 -12z m-1232 -16 c-7 -2 -13 -16 -13 -29 0 -13 -4 -24 -9 -24 -6 0 -8 9 -6
20 5 28 14 40 28 39 9 0 9 -2 0 -6z m-1113 -63 c0 -5 -5 -10 -11 -10 -5 0 -7
5 -4 10 3 6 8 10 11 10 2 0 4 -4 4 -10z m-414 -46 c-4 -9 -9 -15 -11 -12 -3 3
-3 13 1 22 4 9 9 15 11 12 3 -3 3 -13 -1 -22z m721 -6 c-3 -8 -6 -5 -6 6 -1
11 2 17 5 13 3 -3 4 -12 1 -19z m-747 -2 c0 -3 -4 -8 -10 -11 -5 -3 -10 -1
-10 4 0 6 5 11 10 11 6 0 10 -2 10 -4z m970 -26 c0 -5 -5 -10 -11 -10 -5 0 -7
5 -4 10 3 6 8 10 11 10 2 0 4 -4 4 -10z m61 -17 c-8 -15 -10 -15 -11 -2 0 17
10 32 18 25 2 -3 -1 -13 -7 -23z m-514 -5 c-3 -8 -6 -5 -6 6 -1 11 2 17 5 13
3 -3 4 -12 1 -19z m480 -22 c-3 -7 0 -19 6 -25 8 -8 7 -11 -6 -11 -9 0 -17 4
-17 9 0 14 11 41 17 41 3 0 3 -6 0 -14z m-67 -50 c0 -2 -11 -1 -25 2 -20 3
-24 1 -19 -12 3 -9 10 -14 14 -11 4 2 16 -5 26 -17 11 -12 15 -19 9 -17 -86
41 -107 65 -66 76 13 3 18 10 14 21 -4 10 6 4 20 -11 15 -15 27 -29 27 -31z
m-1053 2 c-3 -8 -6 -5 -6 6 -1 11 2 17 5 13 3 -3 4 -12 1 -19z m413 -27 c0
-12 -28 -22 -34 -12 -3 5 -3 11 1 15 9 9 33 7 33 -3z m540 0 c0 -5 -7 -11 -14
-14 -10 -4 -13 -1 -9 9 6 15 23 19 23 5z m-430 -31 c26 -16 3 -21 -31 -6 -31
13 -32 14 -9 15 14 0 32 -3 40 -9z m55 -28 c-6 -7 -34 11 -29 19 3 5 11 3 19
-4 7 -6 12 -13 10 -15z m-425 -88 c0 -7 -27 -34 -35 -34 -3 0 -1 9 5 20 10 18
30 28 30 14z m140 -44 c0 -5 -5 -10 -11 -10 -5 0 -7 5 -4 10 3 6 8 10 11 10 2
0 4 -4 4 -10z m-150 -9 c0 -5 -8 -12 -17 -14 -14 -4 -12 -5 5 -6 23 -1 30 -15
12 -26 -6 -3 -19 -3 -30 0 -22 7 -27 40 -7 48 20 9 37 8 37 -2z m230 -12 c11
-8 4 -9 -27 -5 -30 4 -43 3 -43 -6 0 -6 -3 -9 -6 -5 -23 22 46 37 76 16z m107
-5 c-3 -3 -12 -4 -19 -1 -8 3 -5 6 6 6 11 1 17 -2 13 -5z m-37 -8 c0 -11 -19
-15 -25 -6 -3 5 1 10 9 10 9 0 16 -2 16 -4z m350 0 c0 -3 -4 -8 -10 -11 -5 -3
-10 -1 -10 4 0 6 5 11 10 11 6 0 10 -2 10 -4z m3572 -271 c37 -74 41 -99 19
-127 -16 -19 -26 -23 -54 -20 -30 3 -36 8 -39 33 -6 40 7 45 33 15 28 -32 49
-19 49 31 0 29 -9 44 -47 83 -27 26 -59 51 -73 55 -29 8 -60 33 -60 48 0 5 10
3 23 -5 12 -8 33 -21 47 -29 14 -8 33 -20 43 -28 24 -20 22 -6 -13 101 -16 50
-30 96 -29 102 0 6 18 -38 38 -99 21 -60 49 -132 63 -160z m-5887 225 c-3 -63
-5 -70 -20 -70 -9 0 -20 -10 -25 -22 -8 -22 -9 -21 -9 7 -2 53 -29 7 -41 -69
-6 -38 -16 -78 -23 -90 -6 -12 -13 -34 -14 -51 -5 -58 -6 -65 -19 -65 -14 0
-24 -31 -24 -80 l-1 -35 -20 25 c-17 20 -20 33 -15 67 7 51 2 54 -19 12 -13
-24 -14 -37 -6 -61 14 -39 14 -37 -6 -33 -10 2 -21 4 -25 4 -15 2 -8 67 11 96
10 17 43 50 73 75 l54 45 -4 51 c-3 38 1 61 18 94 20 40 97 130 111 130 3 0 5
-13 4 -30z m1789 -190 c-6 -6 -10 -2 -11 12 -2 16 1 18 10 9 7 -7 8 -14 1 -21z
m321 -22 c-1 -13 -9 -24 -18 -26 -15 -3 -16 0 -6 22 15 32 26 34 24 4z m-295
-12 c0 -3 -4 -8 -10 -11 -5 -3 -10 -1 -10 4 0 6 5 11 10 11 6 0 10 -2 10 -4z
m4218 -334 c32 -70 41 -146 19 -155 -13 -5 -15 1 -11 36 3 27 -3 61 -15 96
-22 60 -81 161 -93 161 -4 0 -8 10 -8 22 0 27 69 -76 108 -160z m-76 16 c-6
-22 -7 -22 -13 7 -4 17 -7 44 -7 60 -1 30 0 30 13 -7 7 -20 11 -47 7 -60z
m-6215 30 c-3 -8 -6 -5 -6 6 -1 11 2 17 5 13 3 -3 4 -12 1 -19z m948 -13 c74
-27 182 -99 253 -171 34 -36 62 -68 62 -73 0 -6 -24 15 -52 46 -48 51 -96 87
-155 119 -12 7 -54 19 -93 28 -113 26 -314 5 -458 -48 -105 -38 -302 -149
-384 -215 -7 -6 -38 -30 -68 -54 -30 -25 -54 -49 -53 -55 2 -6 -4 -9 -11 -6
-17 7 -145 -121 -213 -213 -26 -36 -61 -79 -76 -97 -42 -47 -16 1 43 79 28 36
50 69 50 73 0 4 26 36 57 72 34 39 43 53 23 35 -19 -16 -38 -36 -43 -42 -4 -7
-13 -13 -20 -13 -7 0 -18 -14 -25 -30 -16 -36 -47 -56 -55 -36 -3 7 1 25 8 40
24 46 -1 28 -62 -46 -129 -157 -222 -325 -295 -534 -55 -161 -59 -213 -19
-292 17 -33 36 -62 43 -65 8 -4 7 -6 -4 -6 -9 -1 -20 4 -23 9 -3 6 -18 10 -33
10 -15 0 -40 7 -56 15 -35 19 -45 12 -26 -18 44 -70 64 -114 64 -148 1 -32 -2
-38 -24 -42 -14 -3 -27 -1 -30 4 -3 5 -30 9 -60 10 -38 2 -72 11 -110 31 -59
31 -95 31 -105 -1 -6 -21 12 -110 26 -125 5 -6 9 -18 9 -28 0 -10 12 -37 27
-61 15 -23 27 -55 28 -72 l0 -30 -64 33 c-79 40 -107 40 -148 2 l-32 -30 -13
22 c-9 16 -12 58 -11 133 2 102 6 122 53 264 27 85 50 162 49 170 0 9 -4 6
-10 -9 -12 -30 -31 -43 -40 -28 -9 14 -68 -51 -69 -76 0 -27 -22 -86 -32 -86
-4 0 -8 7 -8 15 0 20 -9 19 -32 -2 -18 -16 -19 -16 -8 12 6 16 16 33 22 36 20
13 18 37 -3 32 -12 -3 -19 -14 -19 -29 0 -15 -6 -24 -16 -24 -9 0 -12 5 -8 11
4 7 1 10 -7 7 -8 -3 -13 -18 -13 -35 1 -25 -2 -30 -17 -26 -11 3 -19 0 -19 -6
0 -6 -5 -11 -11 -11 -6 0 -9 9 -6 20 3 11 1 18 -4 15 -4 -3 -11 -28 -15 -56
-9 -64 -29 -59 -30 7 -2 73 -3 79 -13 69 -12 -12 -15 -89 -7 -170 l6 -60 -20
65 -20 65 5 -70 c4 -52 2 -65 -6 -52 -11 19 -20 80 -21 137 0 19 -2 29 -5 23
-9 -23 -25 -13 -21 12 6 28 -8 35 -15 8 -9 -33 -20 -98 -18 -106 1 -5 -7 -6
-17 -3 -26 9 -47 -19 -49 -65 -1 -41 -18 -79 -34 -79 -6 0 -9 -26 -8 -68 2
-37 -1 -74 -6 -82 -16 -27 5 -163 43 -270 3 -8 7 -25 8 -38 2 -13 8 -30 15
-38 6 -8 10 -17 7 -19 -21 -22 -128 283 -128 366 0 44 51 236 81 306 10 24 21
58 24 74 3 16 16 48 29 71 13 24 36 75 51 113 15 39 35 81 45 95 30 44 34 54
20 45 -30 -19 13 34 97 118 92 92 127 116 228 151 136 48 210 104 412 313 164
171 233 234 418 386 54 44 166 117 179 117 16 -1 66 -87 66 -115 0 -22 10 -17
118 60 177 129 335 202 522 241 91 19 318 12 385 -11z m-1025 -55 c-26 -26
-22 -65 11 -111 11 -16 16 -29 11 -29 -15 0 -92 76 -92 92 0 24 38 66 63 70
31 5 32 3 7 -22z m75 -19 c-3 -5 0 -13 6 -17 14 -8 -16 -34 -38 -34 -19 0 -16
37 5 49 22 13 35 14 27 2z m614 -15 c-10 -11 -199 -74 -199 -67 0 4 42 22 93
39 87 30 116 37 106 28z m5596 -6 c-3 -5 -12 -10 -18 -10 -7 0 -6 4 3 10 19
12 23 12 15 0z m-5805 -68 c0 -5 -12 -14 -27 -21 l-28 -11 24 20 c26 22 31 24
31 12z m5993 -99 c42 -50 59 -79 67 -117 6 -28 20 -60 31 -72 11 -12 47 -75
80 -140 33 -66 51 -109 40 -97 -20 21 -77 43 -114 43 -10 0 -15 5 -12 10 3 6
17 7 31 4 14 -4 24 -2 24 5 0 6 -5 11 -10 11 -6 0 -10 8 -8 17 2 10 -3 18 -10
18 -16 0 -32 24 -32 51 0 12 -11 26 -25 34 -36 19 -23 24 18 6 23 -9 37 -22
40 -38 4 -22 4 -22 6 3 1 16 -10 35 -29 54 -35 34 -39 35 -150 43 -65 6 -79 9
-57 15 15 4 50 5 77 1 63 -8 81 4 70 49 -4 18 -14 46 -23 64 -20 37 -42 55
-34 27 15 -52 17 -85 8 -101 -10 -17 -10 -17 -11 2 0 11 -7 29 -15 39 -8 11
-15 32 -15 48 0 15 -5 28 -11 28 -5 0 -8 -4 -5 -9 3 -5 0 -11 -7 -14 -10 -4
-11 4 -3 39 6 24 13 44 17 44 3 0 31 -30 62 -67z m-6073 53 c0 -2 -20 -16 -45
-29 -55 -31 -59 -27 -8 8 35 23 53 31 53 21z m5973 -11 c-3 -9 -8 -14 -10 -11
-3 3 -2 9 2 15 9 16 15 13 8 -4z m-6073 -49 c0 -2 -12 -12 -27 -21 l-28 -18
19 21 c17 20 36 29 36 18z m-71 -50 c-32 -29 -137 -102 -119 -82 22 25 107 86
118 86 3 0 3 -2 1 -4z m6306 -316 c3 -6 -4 -10 -17 -10 -18 0 -20 2 -8 10 19
12 18 12 25 0z m-6754 -24 c14 8 10 -12 -5 -25 -10 -9 -16 -7 -27 5 -11 13
-10 17 2 24 8 6 15 6 17 0 2 -6 8 -8 13 -4z m6864 -30 c44 -19 68 -66 105
-206 27 -105 59 -201 79 -237 20 -36 40 -90 57 -150 9 -35 20 -60 25 -57 5 3
6 -2 3 -11 -8 -21 29 -119 94 -245 107 -208 143 -338 147 -532 2 -81 6 -151 9
-156 2 -4 9 -44 15 -87 9 -67 9 -89 -4 -132 -9 -29 -21 -55 -27 -59 -8 -5 -9
-1 -3 12 4 10 10 30 12 44 4 20 2 22 -6 10 -9 -13 -12 -12 -17 8 -4 12 -10 22
-14 22 -5 0 -6 19 -4 43 2 23 1 34 -2 25 -4 -13 -14 -16 -45 -12 -21 3 -39 1
-39 -5 0 -5 -7 -12 -16 -15 -8 -3 -12 -2 -9 3 3 5 1 12 -5 16 -5 3 -10 2 -10
-3 0 -4 -16 -14 -35 -22 -19 -8 -35 -17 -35 -22 0 -4 -22 -7 -50 -6 -46 2 -50
4 -50 27 0 29 -12 20 -16 -12 -1 -12 -3 -24 -4 -27 0 -3 -7 9 -15 25 -9 19
-14 23 -12 10 1 -14 -4 -20 -20 -21 -13 -1 -28 -6 -36 -12 -15 -13 -64 -9 -80
7 -16 16 -25 14 -30 -6 -3 -15 -6 -14 -15 7 -6 14 -11 19 -11 13 -1 -15 -32
-47 -49 -51 -7 -1 -12 8 -12 20 -1 23 -1 23 -15 -2 -8 -14 -14 -19 -15 -10 0
10 -5 7 -16 -8 -8 -12 -20 -19 -26 -16 -6 4 -8 -2 -4 -17 7 -22 6 -23 -8 -6
-14 18 -15 17 -22 -5 -6 -21 -8 -21 -13 -5 -8 21 -25 23 -27 4 -3 -32 -5 -36
-18 -31 -8 3 -20 19 -26 35 -18 42 -24 29 -9 -19 11 -38 10 -43 -14 -71 -21
-26 -26 -28 -31 -13 -16 42 -32 62 -44 50 -16 -16 -25 -4 -27 39 -3 58 -4 63
-14 63 -4 0 -6 -11 -3 -25 2 -13 1 -32 -2 -41 -6 -16 -8 -15 -20 2 -8 10 -12
24 -9 31 3 7 -2 13 -10 13 -21 0 -31 -17 -15 -23 8 -4 7 -6 -4 -6 -9 -1 -19
-9 -21 -18 -3 -11 -5 -7 -6 10 -1 33 -16 36 -25 5 l-6 -23 -14 25 c-13 22 -15
23 -21 8 -8 -19 -35 -25 -35 -8 0 6 -4 10 -10 10 -5 0 -10 -11 -10 -24 0 -14
-5 -28 -12 -32 -7 -4 -8 -3 -4 4 5 8 0 12 -13 12 -12 0 -21 7 -21 15 0 8 -4
15 -10 15 -5 0 -10 -9 -10 -19 0 -32 -33 -18 -42 17 -9 34 -14 37 -38 22 -9
-6 -17 -5 -22 3 -5 7 -8 2 -8 -13 0 -14 -12 -36 -26 -49 -21 -20 -27 -22 -35
-10 -7 11 -9 11 -9 -3 0 -10 -4 -18 -10 -18 -5 0 -10 -8 -10 -18 0 -22 -19
-42 -38 -42 -10 0 -13 8 -10 25 7 33 -6 32 -21 -2 -10 -22 -14 -24 -21 -12 -7
10 -11 6 -16 -18 -4 -18 -10 -33 -15 -33 -21 0 -24 2 -22 18 1 10 0 11 -3 5
-3 -7 -12 -13 -19 -13 -7 0 -16 -8 -20 -17 -7 -16 -9 -15 -15 7 l-7 25 -7 -30
c-4 -16 -13 -41 -19 -54 l-12 -24 -15 36 c-18 45 -30 47 -30 8 0 -45 -18 -84
-35 -77 -12 4 -14 0 -8 -22 5 -23 4 -25 -9 -14 -13 10 -17 9 -22 -10 -7 -23
-7 -23 -20 4 -9 22 -15 25 -24 16 -7 -7 -12 -19 -12 -27 0 -9 -7 -29 -15 -45
-8 -15 -15 -34 -15 -42 0 -7 -7 -32 -16 -55 -11 -27 -19 -36 -25 -28 -6 10
-11 10 -23 0 -13 -11 -16 -11 -16 3 0 9 5 16 10 16 6 0 9 5 8 12 -2 7 4 12 12
13 8 0 16 8 18 18 2 9 0 17 -5 17 -17 -1 -63 -50 -63 -68 0 -18 -26 -49 -79
-94 -38 -32 -76 -46 -143 -50 -57 -4 -68 -2 -69 11 0 10 -2 12 -6 4 -2 -7 -10
-13 -16 -13 -7 0 -18 -9 -25 -20 -7 -11 -16 -20 -21 -20 -13 0 -21 53 -10 70
6 12 8 12 9 1 0 -11 3 -11 15 -1 18 15 21 65 3 54 -8 -5 -9 -2 -5 10 4 10 7
23 8 29 0 7 5 3 10 -8 8 -17 9 -17 4 5 -3 17 9 52 35 104 22 43 42 93 46 113
4 19 13 37 20 40 8 3 14 18 14 34 0 16 5 29 13 29 9 0 8 3 -2 9 -10 6 -11 13
-2 29 6 11 11 31 10 44 0 23 0 23 -9 2 -5 -12 -13 -25 -18 -28 -6 -3 -13 -25
-17 -49 -4 -23 -10 -44 -14 -47 -3 -3 -17 -39 -30 -80 -34 -106 -111 -280
-123 -280 -5 0 -8 9 -8 20 0 25 -15 26 -24 3 -3 -10 -17 -36 -31 -58 -14 -23
-24 -55 -24 -75 l0 -35 22 45 c21 42 43 69 59 70 10 0 3 -31 -8 -38 -6 -4 -20
-34 -33 -67 -13 -33 -29 -76 -38 -96 -17 -41 -107 -139 -128 -139 -8 0 -14 -5
-12 -11 2 -12 -64 -52 -72 -43 -3 3 19 29 49 56 30 28 55 56 56 62 0 6 2 19 2
29 2 19 28 24 34 6 2 -6 3 10 3 35 0 53 -8 58 -30 16 -16 -30 -29 -38 -39 -21
-10 16 -50 -1 -91 -39 -100 -93 -255 -209 -271 -203 -20 7 -59 -22 -62 -47 -6
-40 -22 -53 -59 -47 -25 5 -33 2 -38 -13 -8 -25 -104 -112 -116 -104 -5 3 -9
1 -9 -4 0 -6 -14 -15 -30 -21 -18 -6 -35 -21 -41 -38 -10 -26 -12 -27 -19 -8
-5 11 -9 17 -9 13 -1 -5 -1 -11 -2 -15 -1 -14 -42 -53 -56 -53 -7 0 -13 -4
-13 -8 0 -4 -12 -7 -27 -6 -96 4 -90 1 -96 41 -10 58 27 125 114 210 41 39 92
84 114 98 22 15 65 51 95 81 38 37 75 61 119 78 35 14 68 30 75 35 6 5 34 12
61 16 45 7 134 40 175 66 8 5 40 22 70 38 54 29 131 101 163 152 15 26 15 27
-3 22 -15 -4 -20 0 -20 17 l0 21 -29 -20 c-16 -12 -33 -21 -38 -21 -17 -1
-170 -84 -183 -100 -3 -3 -22 -16 -42 -29 -21 -12 -38 -27 -38 -32 0 -6 -4 -7
-10 -4 -5 3 -10 2 -10 -4 0 -14 -51 -66 -78 -80 -13 -7 -38 -11 -57 -10 -26 3
-38 -3 -60 -29 -37 -44 -58 -54 -140 -66 l-70 -11 -3 -39 c-2 -22 -10 -49 -18
-60 -8 -11 -14 -17 -14 -13 0 4 -9 -2 -20 -13 -16 -16 -31 -20 -76 -17 -34 2
-59 9 -65 18 -15 23 -10 91 10 135 28 62 142 168 303 282 67 48 87 68 90 88 3
23 10 29 51 39 38 10 47 9 47 -1 0 -19 26 -7 90 41 30 23 72 51 92 64 20 12
39 30 42 39 3 9 23 26 43 37 28 15 39 28 41 48 3 23 0 27 -23 27 -14 0 -35
-10 -46 -22 -10 -13 -38 -44 -61 -71 -22 -26 -53 -50 -67 -54 -14 -3 -37 -14
-51 -23 -18 -12 -39 -16 -72 -13 -44 4 -49 2 -60 -21 -6 -14 -17 -26 -23 -26
-7 0 -23 -10 -37 -23 -25 -23 -58 -32 -58 -15 0 4 -4 8 -10 8 -5 0 -10 -6 -10
-14 0 -7 -11 -21 -25 -30 -14 -9 -25 -23 -25 -31 0 -7 -11 -27 -24 -42 -22
-25 -25 -26 -31 -10 -5 12 -18 17 -50 17 -47 0 -55 9 -55 66 0 55 25 101 87
161 67 64 187 161 229 184 16 8 35 29 43 45 7 16 17 37 22 46 5 11 4 18 -4 21
-9 3 -9 10 1 32 12 25 11 27 -2 15 -9 -7 -16 -19 -16 -26 0 -12 -22 -19 -34
-11 -2 1 -13 -7 -25 -17 -13 -12 -21 -14 -21 -7 0 8 -11 11 -28 10 -31 -4 -55
8 -46 22 3 6 -3 5 -15 -3 -12 -7 -21 -17 -22 -23 -1 -17 -50 97 -65 149 -7 27
-11 54 -7 59 10 17 27 -13 43 -75 14 -60 16 -63 48 -65 18 -2 60 6 92 17 32
11 65 18 72 15 8 -3 21 8 32 26 15 25 16 33 5 39 -10 7 -10 14 -1 35 16 35 15
37 -8 30 -18 -6 -19 -4 -10 21 12 32 8 41 -10 19 -19 -23 -34 -18 -71 26 -19
22 -43 48 -53 57 -11 9 -39 34 -63 56 -53 48 -112 62 -160 39 -29 -14 -33 -20
-33 -57 -1 -34 -2 -38 -11 -23 -6 11 -13 44 -16 75 -3 46 0 64 16 90 43 67
103 65 181 -5 l51 -46 74 1 73 2 109 -72 c59 -39 122 -77 139 -84 17 -7 58
-34 92 -59 84 -63 105 -68 203 -44 44 10 89 24 100 30 11 6 62 23 112 39 128
40 194 64 252 93 28 14 95 36 150 50 202 52 228 60 289 95 33 19 74 42 90 50
16 8 37 21 45 28 67 53 81 67 81 76 0 6 17 32 37 57 21 25 45 55 53 66 33 44
101 105 118 105 12 0 14 2 4 8 -12 8 55 70 196 180 78 61 52 51 -50 -19 -84
-56 -90 -59 -95 -39 -4 16 -8 18 -14 8 -12 -18 -11 -40 1 -33 6 3 10 1 10 -4
0 -6 -4 -11 -10 -11 -5 0 -25 -13 -43 -30 -19 -16 -38 -30 -42 -30 -4 0 -15
-10 -26 -22 -18 -22 -18 -22 -19 -3 -1 11 -23 38 -49 60 -26 22 -46 46 -43 53
3 7 -1 10 -11 7 -10 -4 -23 9 -42 41 -20 34 -30 43 -36 33 -6 -10 -10 -9 -15
6 -4 11 -29 42 -56 68 -26 26 -48 51 -48 54 0 4 -9 16 -19 28 -59 63 -79 85
-75 85 2 0 -12 17 -31 37 -19 20 -35 41 -35 45 0 46 160 224 265 295 126 85
289 151 511 208 264 67 442 89 509 61z m-6897 -98 c-2 -6 -10 -14 -16 -16 -7
-2 -10 2 -6 12 7 18 28 22 22 4z m-49 -65 c-12 -21 -29 -45 -37 -53 -16 -15
-7 1 34 65 26 39 28 29 3 -12z m-39 -2 c0 -6 -4 -13 -10 -16 -5 -3 -10 1 -10
9 0 9 5 16 10 16 6 0 10 -4 10 -9z m-34 -28 c-10 -10 -19 5 -10 18 6 11 8 11
12 0 2 -7 1 -15 -2 -18z m-66 -147 c0 -3 -4 -8 -10 -11 -5 -3 -10 -1 -10 4 0
6 5 11 10 11 6 0 10 -2 10 -4z m-68 -152 c0 -22 -3 -47 -8 -56 -6 -12 -10 -2
-11 34 -2 47 3 75 13 65 2 -2 5 -22 6 -43z m-27 -179 l0 -84 -17 32 c-20 37
-23 99 -7 129 17 32 24 11 24 -77z m-530 -115 c-5 -8 -11 -8 -17 -2 -6 6 -7
16 -3 22 5 8 11 8 17 2 6 -6 7 -16 3 -22z m2209 -185 c61 -26 139 -111 165
-180 61 -160 -31 -335 -201 -385 -57 -18 -77 -19 -123 -11 -156 29 -257 142
-258 292 -2 148 116 286 262 308 50 8 96 1 155 -24z m-1455 -2 c9 -20 8 -23
-10 -23 -12 0 -35 -7 -52 -16 -58 -31 -67 -34 -82 -34 -25 0 -17 30 19 66 28
28 41 34 74 32 32 -1 43 -6 51 -25z m-171 -68 c-3 -3 -9 2 -12 12 -6 14 -5 15
5 6 7 -7 10 -15 7 -18z m18 -34 c0 -9 3 -29 7 -46 l7 -30 -14 25 c-23 41 -28
67 -13 67 7 0 13 -7 13 -16z m275 5 c5 3 9 -4 9 -16 0 -12 5 -18 10 -15 6 3
10 -3 10 -14 0 -12 5 -21 11 -21 6 0 9 -10 7 -22 -2 -17 -10 -23 -28 -23 -18
0 -26 -6 -28 -23 -5 -30 -22 -28 -22 4 0 14 -4 23 -10 19 -5 -3 -10 1 -10 9 0
9 7 16 16 16 12 0 15 6 10 24 -3 14 -1 28 4 31 6 4 8 16 5 28 -2 12 -2 16 1 9
3 -6 10 -10 15 -6z m-441 -46 c0 -12 7 -20 16 -20 14 0 14 -3 3 -16 -10 -12
-10 -20 -1 -35 10 -16 9 -19 -7 -19 -26 0 -42 23 -48 70 -5 36 -3 40 16 40 14
0 21 -6 21 -20z m728 -53 c2 -4 8 -4 13 -1 6 4 9 -13 7 -43 -2 -32 -7 -47 -15
-45 -16 3 -16 2 1 -40 14 -32 10 -58 -10 -61 -5 -1 -8 -8 -8 -15 2 -10 -4 -9
-21 2 -22 15 -24 14 -44 -17 -12 -18 -16 -34 -10 -38 6 -3 7 -29 3 -64 -6 -45
-9 -55 -16 -40 -6 14 -7 11 -3 -13 4 -30 3 -32 -11 -18 -8 9 -22 16 -30 16 -8
0 -14 5 -14 12 0 6 -3 8 -7 5 -4 -4 -19 5 -35 20 l-28 26 10 -34 c12 -41 12
-59 1 -39 -19 33 -32 160 -20 203 27 104 75 157 142 157 20 0 23 4 19 25 -2
14 1 32 8 40 12 14 16 13 39 -7 14 -13 27 -26 29 -31z m-528 -20 c0 -5 -4 -5
-10 -2 -5 3 -10 14 -10 23 0 15 2 15 10 2 5 -8 10 -19 10 -23z m-260 -6 c0
-11 5 -23 10 -26 6 -3 10 -13 10 -21 0 -9 11 -30 25 -48 14 -18 25 -38 25 -45
0 -6 8 -24 17 -39 14 -23 14 -25 1 -12 -9 8 -39 59 -67 113 -35 68 -46 97 -35
97 7 0 14 -9 14 -19z m310 -6 c0 -9 -9 -15 -21 -15 -20 0 -21 -1 -5 -25 9 -14
13 -25 8 -25 -5 0 -14 11 -20 25 -9 19 -8 27 4 40 20 19 34 19 34 0z m234 -5
c-6 -6 -19 -7 -30 -3 -17 6 -17 8 6 13 29 8 38 4 24 -10z m-149 0 c3 -5 1 -10
-4 -10 -6 0 -11 5 -11 10 0 6 2 10 4 10 3 0 8 -4 11 -10z m-307 -54 l37 3 -35
-8 c-42 -9 -50 -5 -49 17 1 14 2 14 5 2 3 -11 15 -15 42 -14z m325 7 c-7 -2
-19 -2 -25 0 -7 3 -2 5 12 5 14 0 19 -2 13 -5z m76 0 c-3 -20 2 -26 11 -13 8
12 10 11 10 -7 0 -13 6 -23 14 -23 9 0 12 -8 8 -27 -3 -18 -7 -22 -10 -13 -3
8 -11 21 -19 28 -11 11 -13 11 -13 -2 0 -9 -5 -16 -12 -16 -6 0 -8 3 -5 7 4 3
-1 15 -10 26 -17 18 -17 19 2 33 22 16 25 17 24 7z m5688 -169 c-3 -3 -12 -4
-19 -1 -8 3 -5 6 6 6 11 1 17 -2 13 -5z m-87 -18 c0 -2 -9 -6 -20 -9 -11 -3
-18 -1 -14 4 5 9 34 13 34 5z m-6131 -40 c-3 -3 -11 5 -18 17 -13 21 -12 21 5
5 10 -10 16 -20 13 -22z m-188 -53 c-28 -31 -51 -61 -51 -67 0 -5 -43 -53 -95
-107 -52 -53 -95 -90 -95 -83 0 30 256 314 283 314 5 0 -14 -26 -42 -57z
m6774 -323 c3 -5 2 -10 -4 -10 -5 0 -13 5 -16 10 -3 6 -2 10 4 10 5 0 13 -4
16 -10z m291 -87 c-11 -11 -17 4 -9 23 7 18 8 18 11 1 2 -10 1 -21 -2 -24z
m44 -4 c0 -6 -4 -7 -10 -4 -5 3 -10 11 -10 16 0 6 5 7 10 4 6 -3 10 -11 10
-16z m47 -11 c-3 -8 -6 -5 -6 6 -1 11 2 17 5 13 3 -3 4 -12 1 -19z m-2087
-1038 c0 -5 -4 -10 -10 -10 -5 0 -10 5 -10 10 0 6 5 10 10 10 6 0 10 -4 10
-10z m385 -1710 c-3 -5 -23 -9 -43 -9 l-37 2 40 7 c22 4 41 8 43 9 2 0 0 -3
-3 -9z m-250 -6 c-46 -7 -123 -8 -118 -1 2 4 34 6 71 6 37 -1 58 -3 47 -5z
m133 -1 c-21 -2 -55 -2 -75 0 -21 2 -4 4 37 4 41 0 58 -2 38 -4z m-620 -10
c-10 -2 -28 -2 -40 0 -13 2 -5 4 17 4 22 1 32 -1 23 -4z m245 0 c-34 -2 -93
-2 -130 0 -37 2 -9 3 62 3 72 0 102 -1 68 -3z m-723 -12 c-14 -5 -196 -11
-405 -15 -608 -10 -1321 -26 -1440 -31 -60 -2 -182 -5 -270 -6 -88 -1 -151 -3
-140 -5 11 -1 89 -10 173 -20 83 -9 152 -21 152 -26 0 -5 -8 -7 -17 -4 -10 2
-83 12 -163 21 -80 9 -172 19 -205 23 -33 4 -370 2 -750 -4 -1201 -20 -1730
-27 -1725 -22 3 3 154 9 335 12 1080 20 1354 27 1387 31 20 3 50 13 66 22 29
17 35 17 124 -2 105 -21 92 -21 1008 -5 636 11 1053 19 1500 30 427 10 399 10
370 1z m248 2 c-38 -2 -98 -2 -135 0 -38 2 -7 3 67 3 74 0 105 -1 68 -3z
m-2023 -113 c24 -6 20 -8 -25 -8 -30 0 -68 4 -85 8 -24 6 -20 8 25 8 30 0 69
-4 85 -8z m277 -31 c20 -4 -11 -5 -75 -2 -60 3 -123 9 -140 14 -19 5 13 6 75
2 59 -3 122 -9 140 -14z m136 -16 c-10 -2 -26 -2 -35 0 -10 3 -2 5 17 5 19 0
27 -2 18 -5z m170 -10 c-10 -2 -28 -2 -40 0 -13 2 -5 4 17 4 22 1 32 -1 23 -4z
m167 -13 l20 -9 -20 0 c-11 0 -38 4 -60 8 l-40 9 40 0 c22 0 49 -3 60 -8z
m138 -17 c-13 -2 -33 -2 -45 0 -13 2 -3 4 22 4 25 0 35 -2 23 -4z m167 -13
l25 -8 -25 0 c-14 0 -38 4 -55 8 l-30 8 30 0 c17 0 41 -4 55 -8z m150 -9 c42
-8 43 -9 10 -9 -19 -1 -53 3 -75 7 -35 8 -36 9 -10 9 17 0 50 -3 75 -7z m138
-18 c-10 -2 -28 -2 -40 0 -13 2 -5 4 17 4 22 1 32 -1 23 -4z m150 -10 c-10 -2
-28 -2 -40 0 -13 2 -5 4 17 4 22 1 32 -1 23 -4z m145 -10 c-13 -2 -35 -2 -50
0 -16 2 -5 4 22 4 28 0 40 -2 28 -4z m80 0 c-7 -2 -19 -2 -25 0 -7 3 -2 5 12
5 14 0 19 -2 13 -5z m75 -10 c-10 -2 -26 -2 -35 0 -10 3 -2 5 17 5 19 0 27 -2
18 -5z m285 -20 c-7 -2 -21 -2 -30 0 -10 3 -4 5 12 5 17 0 24 -2 18 -5z m124
-9 c-3 -3 -12 -4 -19 -1 -8 3 -5 6 6 6 11 1 17 -2 13 -5z m150 -20 c-3 -3 -12
-4 -19 -1 -8 3 -5 6 6 6 11 1 17 -2 13 -5z m168 -14 c7 -12 -22 -12 -50 0 -17
7 -15 9 12 9 17 1 35 -3 38 -9z m165 -16 c0 -2 -16 -4 -35 -4 -19 0 -35 4 -35
8 0 4 16 6 35 4 19 -2 35 -6 35 -8z m448 -51 c-10 -2 -28 -2 -40 0 -13 2 -5 4
17 4 22 1 32 -1 23 -4z m289 -29 c-3 -3 -12 -4 -19 -1 -8 3 -5 6 6 6 11 1 17
-2 13 -5z m182 -20 c12 -12 -10 -11 -54 1 l-50 15 50 -6 c28 -3 52 -8 54 -10z
m136 -14 c8 -13 -35 -13 -55 0 -11 7 -7 10 17 10 17 0 35 -4 38 -10z m195 -11
c0 -10 -20 -13 -60 -9 -35 3 -47 12 -26 20 23 8 86 0 86 -11z m129 1 c13 -1
13 -3 -3 -15 -18 -14 -35 -13 -91 2 l-20 6 20 8 c11 5 33 6 49 4 16 -3 36 -5
45 -5z m140 -16 c11 -11 -16 -21 -36 -13 -34 12 -29 33 4 24 16 -4 30 -9 32
-11z m438 -75 c-14 -8 -22 -8 -30 0 -8 8 -3 11 19 11 25 -1 27 -2 11 -11z
m183 -18 c0 -4 -14 -5 -31 -3 -19 3 -26 7 -19 12 14 8 50 2 50 -9z m135 -11
c4 -6 -7 -10 -24 -10 -17 0 -31 5 -31 10 0 6 11 10 24 10 14 0 28 -4 31 -10z
m1130 -130 c60 -6 111 -13 114 -16 3 -2 -1 -10 -7 -16 -7 -7 -12 -8 -12 -2 0
5 -55 10 -126 11 -129 3 -150 7 -124 23 19 12 22 12 155 0z m-197 -7 c-10 -2
-26 -2 -35 0 -10 3 -2 5 17 5 19 0 27 -2 18 -5z m-1003 -185 c15 -3 12 -5 -11
-9 -27 -4 -30 -2 -26 14 3 10 8 14 11 9 3 -5 15 -12 26 -14z m745 -28 c0 -11
-4 -20 -9 -20 -5 0 -7 9 -4 20 3 11 7 20 9 20 2 0 4 -9 4 -20z m125 -10 c3 -5
1 -10 -4 -10 -6 0 -11 5 -11 10 0 6 2 10 4 10 3 0 8 -4 11 -10z m-2165 -20 c0
-5 -4 -10 -10 -10 -5 0 -10 5 -10 10 0 6 5 10 10 10 6 0 10 -4 10 -10z m2080
6 c0 -11 -19 -15 -25 -6 -3 5 1 10 9 10 9 0 16 -2 16 -4z m-2503 -28 c-3 -8
-6 -5 -6 6 -1 11 2 17 5 13 3 -3 4 -12 1 -19z m-794 5 c-7 -2 -19 -2 -25 0 -7
3 -2 5 12 5 14 0 19 -2 13 -5z m3507 -3 c0 -5 -4 -10 -10 -10 -5 0 -10 5 -10
10 0 6 5 10 10 10 6 0 10 -4 10 -10z m-3260 -10 c0 -13 -38 -28 -51 -19 -11 7
-11 11 -2 17 14 9 53 11 53 2z m1480 -14 c0 -7 -9 -16 -20 -19 -15 -4 -20 0
-20 14 0 12 7 19 20 19 11 0 20 -6 20 -14z m1687 -18 c-3 -7 -5 -2 -5 12 0 14
2 19 5 13 2 -7 2 -19 0 -25z m47 -10 c6 -5 2 -8 -11 -8 -13 0 -23 -4 -23 -10
0 -5 9 -10 20 -10 16 0 20 -6 19 -32 -2 -31 -2 -31 -6 -5 l-4 28 -19 -23 c-10
-13 -22 -20 -26 -15 -4 4 -2 13 4 19 16 16 15 28 -3 28 -22 0 -18 17 5 23 12
3 20 14 21 29 1 20 2 21 6 3 3 -11 10 -23 17 -27z m176 7 c0 -5 -5 -3 -10 5
-5 8 -10 20 -10 25 0 6 5 3 10 -5 5 -8 10 -19 10 -25z m-3063 3 c-3 -8 -6 -5
-6 6 -1 11 2 17 5 13 3 -3 4 -12 1 -19z m528 -7 c-6 -5 -25 10 -25 20 0 5 6 4
14 -3 8 -7 12 -15 11 -17z m2815 19 c0 -5 -4 -10 -10 -10 -5 0 -10 5 -10 10 0
6 5 10 10 10 6 0 10 -4 10 -10z m-6070 -10 c0 -5 -2 -10 -4 -10 -3 0 -8 5 -11
10 -3 6 -1 10 4 10 6 0 11 -4 11 -10z m1480 0 c0 -5 -5 -10 -11 -10 -5 0 -7 5
-4 10 3 6 8 10 11 10 2 0 4 -4 4 -10z m440 -6 c0 -2 -11 -4 -25 -4 -14 0 -25
4 -25 9 0 4 11 6 25 3 14 -2 25 -6 25 -8z m530 -13 c0 -25 -3 -28 -25 -23 -30
5 -34 22 -5 22 11 0 20 7 20 15 0 8 2 15 5 15 3 0 5 -13 5 -29z m740 12 c-8
-4 -20 -13 -27 -22 -13 -17 -16 -12 -7 13 3 9 16 16 28 15 15 0 16 -2 6 -6z
m-3503 -25 c-3 -8 -6 -5 -6 6 -1 11 2 17 5 13 3 -3 4 -12 1 -19z m5983 2 c0
-11 -4 -20 -10 -20 -5 0 -10 9 -10 20 0 11 5 20 10 20 6 0 10 -9 10 -20z m77
14 c-3 -3 -12 -4 -19 -1 -8 3 -5 6 6 6 11 1 17 -2 13 -5z m-5659 -21 c16 -16
16 -16 -1 -10 -10 4 -25 7 -33 7 -8 0 -14 5 -14 10 0 16 30 12 48 -7z m2902 7
c0 -5 -7 -10 -15 -10 -8 0 -15 5 -15 10 0 6 7 10 15 10 8 0 15 -4 15 -10z
m-1067 -7 c-7 -2 -21 -2 -30 0 -10 3 -4 5 12 5 17 0 24 -2 18 -5z m1537 -9 c0
-14 -3 -14 -15 -4 -8 7 -15 14 -15 16 0 2 7 4 15 4 8 0 15 -7 15 -16z m-2310
2 c0 -2 -7 -9 -15 -16 -13 -11 -14 -10 -9 4 5 14 24 23 24 12z m2180 -26 c11
0 20 -4 20 -8 0 -12 -47 -9 -61 5 -6 6 -8 17 -4 23 6 9 10 8 17 -4 5 -9 18
-16 28 -16z m2420 0 c0 -16 -4 -30 -10 -30 -5 0 -10 14 -10 30 0 17 5 30 10
30 6 0 10 -13 10 -30z m200 5 c0 -14 5 -25 10 -25 18 0 11 -35 -10 -53 -19
-16 -22 -16 -37 -1 -16 16 -16 16 5 10 17 -6 21 -4 16 8 -3 9 -1 16 5 16 6 0
11 -5 11 -12 0 -6 2 -9 5 -6 14 13 -9 35 -37 36 -16 0 -33 4 -37 8 -3 4 6 4
22 2 23 -5 27 -2 27 18 0 13 5 24 10 24 6 0 10 -11 10 -25z m-5477 8 c-7 -2
-19 -2 -25 0 -7 3 -2 5 12 5 14 0 19 -2 13 -5z m518 -38 c5 -7 1 -11 -10 -11
-13 0 -16 7 -12 31 4 23 6 25 9 10 2 -11 8 -25 13 -30z m276 13 c-3 -7 -5 -2
-5 12 0 14 2 19 5 13 2 -7 2 -19 0 -25z m4577 10 l-6 -23 19 23 c12 12 31 21
44 21 21 -1 21 -2 4 -6 -11 -3 -28 -14 -38 -24 -9 -10 -24 -16 -32 -13 -18 7
-19 16 -3 32 17 17 20 15 12 -10z m203 16 c-3 -3 -12 -4 -19 -1 -8 3 -5 6 6 6
11 1 17 -2 13 -5z m158 -24 c-5 -15 -10 -19 -17 -12 -7 7 -6 15 3 25 18 19 23
14 14 -13z m-425 10 c0 -5 -4 -10 -10 -10 -5 0 -10 5 -10 10 0 6 5 10 10 10 6
0 10 -4 10 -10z m-4827 -17 c-7 -2 -19 -2 -25 0 -7 3 -2 5 12 5 14 0 19 -2 13
-5z m997 -3 c0 -5 -4 -10 -10 -10 -5 0 -10 5 -10 10 0 6 5 10 10 10 6 0 10 -4
10 -10z m3847 -22 c-3 -7 -5 -2 -5 12 0 14 2 19 5 13 2 -7 2 -19 0 -25z m243
6 c0 -12 -4 -12 -20 -2 -11 7 -20 16 -20 19 0 4 9 5 20 2 11 -3 20 -12 20 -19z
m-5580 12 c0 -3 -4 -8 -10 -11 -5 -3 -10 -1 -10 4 0 6 5 11 10 11 6 0 10 -2
10 -4z m5307 -33 c-3 -10 -5 -4 -5 12 0 17 2 24 5 18 2 -7 2 -21 0 -30z m360
15 c-3 -8 -6 -5 -6 6 -1 11 2 17 5 13 3 -3 4 -12 1 -19z m-5337 2 c0 -5 -4
-10 -10 -10 -5 0 -10 5 -10 10 0 6 5 10 10 10 6 0 10 -4 10 -10z m160 0 c0 -5
-4 -10 -10 -10 -5 0 -10 5 -10 10 0 6 5 10 10 10 6 0 10 -4 10 -10z m410 0 c0
-5 -4 -10 -9 -10 -6 0 -13 5 -16 10 -3 6 1 10 9 10 9 0 16 -4 16 -10z m190 0
c0 -5 -7 -10 -15 -10 -8 0 -15 5 -15 10 0 6 7 10 15 10 8 0 15 -4 15 -10z
m4124 -15 c-7 -16 -39 -20 -48 -6 -7 10 9 19 36 20 12 1 15 -4 12 -14z m206 0
c0 -9 -6 -12 -15 -9 -8 4 -15 1 -15 -5 0 -6 5 -11 10 -11 6 0 10 -7 10 -15 0
-23 -17 -18 -23 7 -6 22 7 48 24 48 5 0 9 -7 9 -15z m-4717 -12 c-7 -2 -21 -2
-30 0 -10 3 -4 5 12 5 17 0 24 -2 18 -5z m514 -25 c-3 -7 -5 -2 -5 12 0 14 2
19 5 13 2 -7 2 -19 0 -25z m193 -3 c0 -5 -5 -3 -10 5 -5 8 -10 20 -10 25 0 6
5 3 10 -5 5 -8 10 -19 10 -25z m4150 31 c0 -3 -4 -8 -10 -11 -5 -3 -10 -1 -10
4 0 6 5 11 10 11 6 0 10 -2 10 -4z m-4439 -29 c-10 -9 -11 -8 -5 6 3 10 9 15
12 12 3 -3 0 -11 -7 -18z m258 -27 c0 -9 -4 -8 -9 5 -5 11 -9 27 -9 35 0 9 4
8 9 -5 5 -11 9 -27 9 -35z m3881 -29 c-7 -11 -9 -3 -9 29 1 42 1 43 9 16 6
-17 5 -36 0 -45z m-63 53 c-3 -3 -12 -4 -19 -1 -8 3 -5 6 6 6 11 1 17 -2 13
-5z m93 -9 c0 -8 -4 -15 -10 -15 -5 0 -10 7 -10 15 0 8 5 15 10 15 6 0 10 -7
10 -15z m563 -2 c-7 -2 -19 -2 -25 0 -7 3 -2 5 12 5 14 0 19 -2 13 -5z m-4407
-18 c17 -16 14 -18 -10 -9 -9 3 -16 10 -16 15 0 13 9 11 26 -6z m3954 -37 c0
-10 5 -18 10 -18 6 0 10 -7 10 -15 0 -9 9 -15 24 -15 25 0 43 -16 31 -28 -3
-3 -10 -1 -14 7 -5 7 -14 12 -22 11 -29 -4 -39 1 -39 20 0 12 -7 20 -16 20
-11 0 -14 5 -10 16 3 9 6 23 6 32 0 15 2 15 10 2 5 -8 10 -23 10 -32z m160 32
c0 -5 -4 -10 -10 -10 -5 0 -10 5 -10 10 0 6 5 10 10 10 6 0 10 -4 10 -10z
m130 -4 c0 -2 -7 -7 -16 -10 -8 -3 -12 -2 -9 4 6 10 25 14 25 6z m-4277 -13
c-7 -2 -19 -2 -25 0 -7 3 -2 5 12 5 14 0 19 -2 13 -5z m3927 -13 c0 -11 -4
-20 -10 -20 -5 0 -10 9 -10 20 0 11 5 20 10 20 6 0 10 -9 10 -20z m407 -12
c-3 -7 -5 -2 -5 12 0 14 2 19 5 13 2 -7 2 -19 0 -25z m-287 12 c0 -5 -9 -10
-20 -10 -11 0 -20 5 -20 10 0 6 9 10 20 10 11 0 20 -4 20 -10z m100 -5 c10
-12 10 -15 -4 -15 -9 0 -16 7 -16 15 0 8 2 15 4 15 2 0 9 -7 16 -15z m-70 -15
c0 -5 -4 -10 -10 -10 -5 0 -10 5 -10 10 0 6 5 10 10 10 6 0 10 -4 10 -10z m40
-15 c0 -8 -4 -15 -10 -15 -5 0 -10 7 -10 15 0 8 5 15 10 15 6 0 10 -7 10 -15z
m-240 -5 c0 -5 -4 -10 -10 -10 -5 0 -10 5 -10 10 0 6 5 10 10 10 6 0 10 -4 10
-10z m470 0 c0 -5 -4 -10 -10 -10 -5 0 -10 5 -10 10 0 6 5 10 10 10 6 0 10 -4
10 -10z m-473 -26 c-3 -3 -12 -4 -19 -1 -8 3 -5 6 6 6 11 1 17 -2 13 -5z m114
-4 c26 0 24 -18 -3 -23 -13 -2 -6 -5 17 -5 28 -1 36 1 25 8 -8 5 -11 12 -7 16
4 4 9 5 13 2 6 -7 16 -118 10 -118 -15 0 -35 14 -30 21 3 5 1 9 -4 9 -6 0 -13
11 -16 25 -5 20 -13 25 -39 26 -17 1 -24 3 -14 6 9 2 17 9 17 15 0 5 -7 8 -15
4 -8 -3 -15 -2 -15 3 0 14 14 22 28 16 7 -3 22 -5 33 -5z m264 0 c4 -6 -7 -10
-24 -10 -17 0 -31 5 -31 10 0 6 11 10 24 10 14 0 28 -4 31 -10z m45 -10 c0 -5
-2 -10 -4 -10 -3 0 -8 5 -11 10 -3 6 -1 10 4 10 6 0 11 -4 11 -10z m-540 -10
c0 -5 -4 -10 -10 -10 -5 0 -10 5 -10 10 0 6 5 10 10 10 6 0 10 -4 10 -10z
m155 -24 c15 -14 36 -21 58 -17 4 0 7 -3 7 -7 0 -5 -16 -8 -35 -8 -21 1 -35 6
-35 14 0 6 -4 12 -9 12 -5 0 -12 -6 -14 -12 -3 -7 -6 -3 -6 10 -1 34 -21 26
-21 -8 0 -25 -4 -30 -25 -30 -14 0 -26 6 -26 13 -1 6 -2 19 -3 27 0 8 -9 14
-18 14 -10 -1 -18 2 -18 8 0 16 127 2 145 -16z m105 -76 c17 -17 41 -30 55
-30 19 0 25 -5 24 -22 0 -13 -5 -32 -10 -43 -7 -15 -8 -11 -4 16 5 33 3 37
-19 41 -21 4 -25 0 -31 -28 -3 -18 -10 -36 -15 -39 -13 -8 -13 11 -1 53 9 30
8 32 -12 28 -12 -1 -16 -1 -9 1 22 8 13 23 -13 23 -22 0 -24 2 -13 15 17 18
13 20 48 -15z m-254 -3 c0 -14 -7 -24 -15 -23 -8 1 -18 -10 -22 -24 -6 -23 -7
-23 -8 -3 -1 12 4 25 10 28 6 4 8 13 5 21 -3 9 0 11 11 7 11 -4 14 -2 9 5 -4
7 -3 12 2 12 6 0 9 -11 8 -23z m74 9 c0 -3 -4 -8 -10 -11 -5 -3 -10 -1 -10 4
0 6 5 11 10 11 6 0 10 -2 10 -4z m17 -28 c-3 -7 -5 -2 -5 12 0 14 2 19 5 13 2
-7 2 -19 0 -25z m47 24 c-6 -4 -14 -14 -17 -22 -4 -10 -6 -8 -6 8 -1 15 5 22
17 22 10 0 13 -3 6 -8z m214 1 c-10 -2 -28 -2 -40 0 -13 2 -5 4 17 4 22 1 32
-1 23 -4z m-421 -65 c-3 -7 -5 -2 -5 12 0 14 2 19 5 13 2 -7 2 -19 0 -25z
m430 0 c-3 -7 -5 -2 -5 12 0 14 2 19 5 13 2 -7 2 -19 0 -25z m-285 -33 c3 -13
1 -22 -3 -19 -9 5 -13 44 -5 44 2 0 6 -11 8 -25z m206 -25 c-7 -17 -16 -30
-20 -30 -13 0 -9 17 7 30 8 7 15 22 16 34 0 11 3 15 6 8 2 -6 -1 -26 -9 -42z
m-168 30 c0 -5 -4 -10 -10 -10 -5 0 -10 5 -10 10 0 6 5 10 10 10 6 0 10 -4 10
-10z m310 0 c0 -5 -4 -10 -10 -10 -5 0 -10 5 -10 10 0 6 5 10 10 10 6 0 10 -4
10 -10z m-445 -10 c3 -5 1 -10 -4 -10 -6 0 -11 5 -11 10 0 6 2 10 4 10 3 0 8
-4 11 -10z m512 -16 c-3 -3 -12 -4 -19 -1 -8 3 -5 6 6 6 11 1 17 -2 13 -5z
m-412 -34 c3 -6 -1 -7 -9 -4 -18 7 -21 14 -7 14 6 0 13 -4 16 -10z m42 -32
c-3 -7 -5 -2 -5 12 0 14 2 19 5 13 2 -7 2 -19 0 -25z m-487 1 c0 -5 4 -8 9 -4
5 3 12 1 16 -5 4 -6 -6 -10 -24 -10 -23 0 -29 4 -25 15 7 17 24 20 24 4z m220
1 c0 -5 -5 -10 -11 -10 -5 0 -7 5 -4 10 3 6 8 10 11 10 2 0 4 -4 4 -10z m-202
-54 c-7 -8 -15 -10 -18 -6 -3 4 -12 10 -20 13 -8 3 0 6 18 6 28 1 31 -1 20
-13z m39 -21 c-4 -8 -17 -14 -29 -14 l-23 2 23 4 c12 2 22 12 22 20 0 9 3 14
6 10 4 -3 4 -13 1 -22z m-7884 -593 c43 -5 72 -13 77 -22 14 -21 7 -34 -18
-38 -12 -2 -22 -10 -22 -17 0 -8 -15 -17 -37 -21 -78 -14 -113 -51 -113 -119
0 -19 -4 -37 -10 -40 -5 -3 -10 -1 -10 4 0 6 -4 11 -10 11 -5 0 -8 -12 -6 -27
2 -16 1 -22 -1 -15 -3 7 -10 11 -16 9 -12 -4 -13 -8 -16 -47 0 -11 -8 -20 -17
-20 -8 0 -12 -5 -9 -11 5 -7 -3 -10 -21 -8 -58 4 -94 -1 -94 -14 0 -8 -13 -38
-29 -67 -16 -30 -27 -58 -24 -63 3 -4 2 -24 -2 -44 -6 -32 -8 -34 -22 -21 -36
37 9 324 66 418 12 19 34 63 50 97 38 79 43 80 284 55z m7109 -154 c70 1 96
-2 135 -20 27 -12 83 -25 128 -29 120 -11 178 -27 196 -52 8 -11 49 -19 97
-17 35 1 50 -5 78 -30 36 -31 71 -38 106 -19 17 9 25 6 49 -17 28 -27 31 -27
62 -15 53 22 81 24 120 7 21 -8 44 -13 52 -9 9 3 22 0 29 -6 8 -7 17 -8 20 -3
3 5 30 14 60 22 51 12 56 11 90 -10 30 -18 80 -89 78 -110 0 -3 4 -12 8 -20 5
-9 2 -57 -6 -110 -17 -116 -16 -257 3 -285 29 -43 7 -84 -62 -115 -45 -20 -51
-20 -110 1 -34 12 -65 16 -85 13 -20 -5 -36 -2 -48 8 -39 35 -76 45 -145 40
-82 -5 -144 10 -185 48 -30 27 -72 45 -72 30 0 -15 -43 -19 -57 -4 -8 8 -19
12 -24 9 -5 -4 -9 -2 -9 4 0 6 -21 8 -52 5 -29 -2 -100 -6 -158 -8 -91 -4
-108 -2 -131 15 -15 10 -40 19 -56 19 -15 0 -46 5 -68 10 -22 5 -58 11 -80 14
-135 19 -188 35 -213 67 -22 27 -23 33 -13 77 6 26 12 76 13 112 1 36 6 67 10
71 4 3 8 60 9 127 2 105 4 122 18 123 12 0 12 2 -3 8 -18 7 -18 8 -2 14 10 4
29 4 42 1 14 -4 24 -2 23 2 -5 31 19 48 51 36 8 -3 54 -5 102 -4z m-7562 -834
c0 -2 -7 -4 -15 -4 -8 0 -15 4 -15 10 0 5 7 7 15 4 8 -4 15 -8 15 -10z m-36
-139 c3 -8 1 -15 -4 -15 -6 0 -10 -9 -10 -21 0 -11 -7 -27 -15 -35 -18 -18
-18 -16 -4 42 12 45 23 55 33 29z m4813 -152 c-2 -27 -3 -5 -3 47 0 52 1 74 3
48 2 -27 2 -69 0 -95z"/>
<path d="M4665 11699 c-4 -6 -5 -12 -2 -15 2 -3 7 2 10 11 7 17 1 20 -8 4z"/>
<path d="M4475 11550 c-3 -5 1 -10 9 -10 8 0 18 5 21 10 3 6 -1 10 -9 10 -8 0
-18 -4 -21 -10z"/>
<path d="M5764 11360 c-40 -29 -114 -134 -114 -164 0 -13 9 -11 54 11 30 14
57 35 59 45 6 21 30 24 45 5 15 -18 32 -233 23 -289 -4 -26 -21 -66 -37 -88
-16 -23 -35 -50 -43 -61 -25 -35 5 -20 35 19 28 35 64 131 79 212 4 19 15 58
25 87 13 36 18 69 15 110 -5 75 -7 85 -28 116 -23 36 -60 34 -113 -3z"/>
<path d="M4260 11313 c-14 -3 -32 -11 -41 -19 -9 -8 -22 -14 -29 -12 -7 2 -16
-9 -21 -24 -9 -33 13 -40 30 -10 6 9 11 12 11 5 0 -13 40 -6 40 7 0 5 9 11 19
15 12 3 18 12 15 20 -3 7 2 15 13 18 23 6 -4 6 -37 0z"/>
<path d="M4196 11215 c-3 -8 -1 -15 4 -15 6 0 10 7 10 15 0 8 -2 15 -4 15 -2
0 -6 -7 -10 -15z"/>
<path d="M4136 11165 c-3 -8 -1 -15 4 -15 6 0 10 7 10 15 0 8 -2 15 -4 15 -2
0 -6 -7 -10 -15z"/>
<path d="M5562 11153 c1 -5 -6 -29 -16 -55 l-18 -47 57 -85 c31 -47 59 -86 62
-86 2 0 1 5 -3 12 -5 8 0 9 15 5 17 -4 21 -2 17 9 -5 14 12 18 61 14 47 -3 75
142 33 168 -12 7 -18 18 -14 24 4 6 3 8 -2 5 -5 -3 -38 0 -72 8 -56 11 -63 11
-73 -4 -9 -13 -10 -12 -6 6 3 13 -1 24 -10 27 -20 8 -33 7 -31 -1z"/>
<path d="M5511 11084 c0 -11 3 -14 6 -6 3 7 2 16 -1 19 -3 4 -6 -2 -5 -13z"/>
<path d="M5630 10860 c0 -5 -13 -31 -30 -56 -16 -26 -28 -50 -25 -52 7 -8 72
37 72 50 0 8 3 26 7 41 5 20 3 27 -9 27 -8 0 -15 -4 -15 -10z"/>
<path d="M5845 10852 c-12 -12 -3 -19 25 -20 17 0 30 3 30 8 0 9 -47 20 -55
12z"/>
<path d="M5420 10681 c0 -16 -6 -32 -12 -34 -10 -4 -10 -6 0 -6 7 -1 17 11 22
25 13 32 13 44 0 44 -5 0 -10 -13 -10 -29z"/>
<path d="M5340 10519 c0 -11 4 -18 10 -14 5 3 7 12 3 20 -7 21 -13 19 -13 -6z"/>
<path d="M5311 10494 c0 -11 3 -14 6 -6 3 7 2 16 -1 19 -3 4 -6 -2 -5 -13z"/>
<path d="M5370 10497 c0 -8 6 -14 14 -14 8 0 12 6 9 14 -3 7 -9 13 -14 13 -5
0 -9 -6 -9 -13z"/>
<path d="M5335 10390 c3 -5 8 -10 11 -10 2 0 4 5 4 10 0 6 -5 10 -11 10 -5 0
-7 -4 -4 -10z"/>
<path d="M5310 10354 c0 -8 5 -12 10 -9 6 3 10 10 10 16 0 5 -4 9 -10 9 -5 0
-10 -7 -10 -16z"/>
<path d="M3610 11630 c0 -5 5 -10 10 -10 6 0 10 5 10 10 0 6 -4 10 -10 10 -5
0 -10 -4 -10 -10z"/>
<path d="M3670 11380 c0 -5 5 -10 10 -10 6 0 10 5 10 10 0 6 -4 10 -10 10 -5
0 -10 -4 -10 -10z"/>
<path d="M4477 10623 c-4 -3 -7 -11 -7 -17 0 -6 5 -5 12 2 6 6 9 14 7 17 -3 3
-9 2 -12 -2z"/>
<path d="M3865 10450 c-3 -5 -1 -10 4 -10 6 0 11 5 11 10 0 6 -2 10 -4 10 -3
0 -8 -4 -11 -10z"/>
<path d="M3637 10374 c6 -15 23 -19 23 -5 0 5 -7 11 -14 14 -10 4 -13 1 -9 -9z"/>
<path d="M3800 10379 c0 -5 5 -7 10 -4 6 3 10 8 10 11 0 2 -4 4 -10 4 -5 0
-10 -5 -10 -11z"/>
<path d="M4835 11120 c-3 -5 1 -10 9 -10 9 0 16 5 16 10 0 6 -4 10 -9 10 -6 0
-13 -4 -16 -10z"/>
<path d="M5560 10290 c0 -5 5 -10 11 -10 5 0 7 5 4 10 -3 6 -8 10 -11 10 -2 0
-4 -4 -4 -10z"/>
<path d="M4712 10284 c10 -10 20 -15 24 -12 3 4 -5 12 -18 18 -22 12 -22 12
-6 -6z"/>
<path d="M4788 10103 c7 -3 16 -2 19 1 4 3 -2 6 -13 5 -11 0 -14 -3 -6 -6z"/>
<path d="M4888 10053 c6 -2 18 -2 25 0 6 3 1 5 -13 5 -14 0 -19 -2 -12 -5z"/>
<path d="M3210 10375 c0 -8 4 -15 10 -15 5 0 7 7 4 15 -4 8 -8 15 -10 15 -2 0
-4 -7 -4 -15z"/>
<path d="M2698 9043 c7 -3 16 -2 19 1 4 3 -2 6 -13 5 -11 0 -14 -3 -6 -6z"/>
<path d="M2600 9000 c-9 -6 -10 -10 -3 -10 6 0 15 5 18 10 8 12 4 12 -15 0z"/>
<path d="M2515 8971 c-22 -11 -36 -20 -32 -20 12 -1 77 27 77 33 0 8 0 8 -45
-13z"/>
<path d="M2384 8905 c-10 -8 -14 -15 -8 -15 5 0 19 7 30 15 10 8 14 15 8 15
-5 0 -19 -7 -30 -15z"/>
<path d="M2302 8890 c13 -21 38 -27 38 -10 0 6 -7 10 -15 10 -8 0 -15 5 -15
10 0 6 -5 10 -10 10 -6 0 -5 -8 2 -20z"/>
<path d="M2040 8640 c-6 -11 -8 -20 -6 -20 3 0 10 9 16 20 6 11 8 20 6 20 -3
0 -10 -9 -16 -20z"/>
<path d="M1740 8575 c84 -34 110 -37 110 -14 0 7 -3 10 -6 6 -3 -3 -35 5 -70
19 -104 39 -134 30 -34 -11z"/>
<path d="M1860 8549 c0 -5 5 -7 10 -4 6 3 10 8 10 11 0 2 -4 4 -10 4 -5 0 -10
-5 -10 -11z"/>
<path d="M1031 7744 c0 -11 3 -14 6 -6 3 7 2 16 -1 19 -3 4 -6 -2 -5 -13z"/>
<path d="M8020 7494 c0 -14 4 -23 10 -19 6 3 10 15 10 26 0 10 -4 19 -10 19
-5 0 -10 -12 -10 -26z"/>
<path d="M7987 7483 c-4 -3 -7 -11 -7 -17 0 -6 5 -5 12 2 6 6 9 14 7 17 -3 3
-9 2 -12 -2z"/>
<path d="M7953 7448 c-15 -19 -26 -71 -13 -63 5 3 10 14 10 24 0 9 5 22 12 29
6 6 9 14 6 17 -3 3 -10 0 -15 -7z"/>
<path d="M8730 6953 c0 -26 -16 -39 -24 -21 -4 7 -4 -1 -2 -18 7 -43 -1 -47
-31 -18 -31 31 -40 31 -18 -2 16 -24 16 -25 -2 -17 -13 7 -24 3 -40 -14 -12
-13 -19 -23 -15 -23 5 0 13 -12 19 -27 l11 -28 1 36 c1 34 3 37 30 35 16 0 29
-5 28 -10 -1 -5 3 -10 10 -13 14 -5 46 64 39 83 -2 6 1 17 7 23 8 8 8 14 -1
23 -9 9 -12 7 -12 -9z"/>
<path d="M8550 6825 c-7 -8 -9 -22 -5 -32 6 -15 9 -13 16 11 10 35 7 42 -11
21z"/>
<path d="M8476 6745 c4 -8 11 -15 16 -15 6 0 5 6 -2 15 -7 8 -14 15 -16 15 -2
0 -1 -7 2 -15z"/>
<path d="M8450 6705 c0 -8 4 -15 10 -15 5 0 7 7 4 15 -4 8 -8 15 -10 15 -2 0
-4 -7 -4 -15z"/>
<path d="M8420 6678 c0 -15 5 -30 10 -33 13 -8 13 25 0 45 -8 12 -10 9 -10
-12z"/>
<path d="M8061 6674 c0 -11 3 -14 6 -6 3 7 2 16 -1 19 -3 4 -6 -2 -5 -13z"/>
<path d="M7970 6656 c0 -22 3 -27 11 -19 8 8 8 16 0 30 -9 16 -10 14 -11 -11z"/>
<path d="M8344 6620 c3 -43 16 -49 14 -6 -1 20 -5 36 -9 36 -4 0 -6 -13 -5
-30z"/>
<path d="M8255 6610 c-4 -6 -3 -14 0 -20 9 -15 35 -12 35 4 0 17 -27 29 -35
16z"/>
<path d="M7988 6604 c-5 -4 -8 -16 -8 -28 0 -14 3 -17 11 -9 6 6 9 19 7 28 -1
9 -6 13 -10 9z"/>
<path d="M8403 6580 c2 -31 12 -31 20 -1 3 11 -1 22 -9 25 -9 4 -13 -3 -11
-24z"/>
<path d="M8475 6570 c3 -5 8 -10 11 -10 2 0 4 5 4 10 0 6 -5 10 -11 10 -5 0
-7 -4 -4 -10z"/>
<path d="M8305 6550 c3 -5 10 -10 16 -10 5 0 9 5 9 10 0 6 -7 10 -16 10 -8 0
-12 -4 -9 -10z"/>
<path d="M7780 6528 c0 -19 2 -20 10 -8 13 19 13 30 0 30 -5 0 -10 -10 -10
-22z"/>
<path d="M7150 6441 c0 -6 5 -13 10 -16 6 -3 10 1 10 9 0 9 -4 16 -10 16 -5 0
-10 -4 -10 -9z"/>
<path d="M7010 6410 c0 -5 5 -10 10 -10 6 0 10 5 10 10 0 6 -4 10 -10 10 -5 0
-10 -4 -10 -10z"/>
<path d="M7066 6411 c-4 -7 -5 -15 -2 -18 9 -9 19 4 14 18 -4 11 -6 11 -12 0z"/>
<path d="M7356 6295 c-3 -8 -1 -15 4 -15 6 0 10 7 10 15 0 8 -2 15 -4 15 -2 0
-6 -7 -10 -15z"/>
<path d="M7040 6220 c0 -11 -7 -20 -15 -20 -8 0 -15 -8 -15 -17 0 -14 6 -12
29 12 27 29 31 45 10 45 -5 0 -9 -9 -9 -20z"/>
<path d="M7130 6215 c0 -5 5 -17 10 -25 5 -8 10 -10 10 -5 0 6 -5 17 -10 25
-5 8 -10 11 -10 5z"/>
<path d="M6620 5620 c0 -5 5 -10 10 -10 6 0 10 5 10 10 0 6 -4 10 -10 10 -5 0
-10 -4 -10 -10z"/>
<path d="M6117 5443 c-4 -3 -7 -10 -7 -14 0 -9 39 1 46 12 6 10 -29 12 -39 2z"/>
<path d="M2120 7060 c6 -11 13 -20 16 -20 2 0 0 9 -6 20 -6 11 -13 20 -16 20
-2 0 0 -9 6 -20z"/>
<path d="M9500 2250 c0 -5 5 -10 10 -10 6 0 10 5 10 10 0 6 -4 10 -10 10 -5 0
-10 -4 -10 -10z"/>
<path d="M9068 3733 c7 -3 16 -2 19 1 4 3 -2 6 -13 5 -11 0 -14 -3 -6 -6z"/>
<path d="M8633 3723 c9 -2 25 -2 35 0 9 3 1 5 -18 5 -19 0 -27 -2 -17 -5z"/>
<path d="M8840 2680 c8 -5 22 -9 30 -9 10 0 8 3 -5 9 -27 12 -43 12 -25 0z"/>
<path d="M8767 2672 c-3 -4 1 -13 9 -19 7 -7 15 -9 17 -5 3 4 -1 13 -9 19 -7
7 -15 9 -17 5z"/>
<path d="M6040 2590 c0 -5 7 -10 16 -10 8 0 12 5 9 10 -3 6 -10 10 -16 10 -5
0 -9 -4 -9 -10z"/>
<path d="M7517 2593 c-14 -13 -6 -33 13 -33 13 0 20 -7 20 -20 0 -11 5 -20 11
-20 8 0 9 11 5 31 -3 17 -6 35 -6 40 0 10 -34 12 -43 2z"/>
<path d="M7990 2590 c0 -5 5 -10 10 -10 6 0 10 5 10 10 0 6 -4 10 -10 10 -5 0
-10 -4 -10 -10z"/>
<path d="M6400 2563 c0 -16 -6 -23 -20 -23 -11 0 -20 -4 -20 -10 0 -16 50 -12
56 4 3 8 1 23 -5 33 -9 16 -10 16 -11 -4z"/>
<path d="M6048 2563 c6 -2 18 -2 25 0 6 3 1 5 -13 5 -14 0 -19 -2 -12 -5z"/>
<path d="M6502 2549 c-7 -11 -11 -24 -8 -27 10 -9 28 15 24 32 -2 14 -5 13
-16 -5z"/>
<path d="M6610 2560 c0 -5 5 -10 10 -10 6 0 10 5 10 10 0 6 -4 10 -10 10 -5 0
-10 -4 -10 -10z"/>
<path d="M6926 2548 c4 -6 -1 -17 -11 -24 -16 -12 -16 -14 -2 -28 22 -23 30
-20 25 9 -5 25 5 34 17 15 8 -12 42 -13 49 -1 4 5 -3 7 -15 4 -13 -4 -27 2
-40 16 -21 23 -35 28 -23 9z"/>
<path d="M7608 2553 c6 -2 18 -2 25 0 6 3 1 5 -13 5 -14 0 -19 -2 -12 -5z"/>
<path d="M6820 2540 c0 -5 5 -10 10 -10 6 0 10 5 10 10 0 6 -4 10 -10 10 -5 0
-10 -4 -10 -10z"/>
<path d="M7696 2541 c-4 -7 -5 -15 -2 -18 9 -9 19 4 14 18 -4 11 -6 11 -12 0z"/>
<path d="M7506 2525 c-6 -17 12 -31 24 -19 5 5 2 14 -5 21 -10 10 -14 9 -19
-2z"/>
<path d="M7634 2515 c-3 -8 -4 -20 -1 -27 3 -7 6 -3 6 9 1 12 7 24 14 26 9 4
9 6 -1 6 -7 1 -15 -6 -18 -14z"/>
<path d="M6701 2503 c-18 -20 -6 -29 14 -10 8 9 12 18 8 20 -5 3 -14 -2 -22
-10z"/>
<path d="M6810 2510 c13 -9 13 -11 0 -20 -8 -5 -10 -10 -5 -10 6 0 17 5 25 10
13 9 13 11 0 20 -8 5 -19 10 -25 10 -5 0 -3 -5 5 -10z"/>
<path d="M7612 2500 c0 -14 2 -19 5 -12 2 6 2 18 0 25 -3 6 -5 1 -5 -13z"/>
<path d="M7858 2513 c7 -3 16 -2 19 1 4 3 -2 6 -13 5 -11 0 -14 -3 -6 -6z"/>
<path d="M9242 2475 c-1 -40 1 -45 21 -45 16 0 19 2 8 9 -13 9 -13 20 4 66 6
16 5 17 -4 5 -8 -11 -13 -12 -19 -3 -4 7 -9 -7 -10 -32z"/>
<path d="M6973 2493 c9 -2 25 -2 35 0 9 3 1 5 -18 5 -19 0 -27 -2 -17 -5z"/>
<path d="M7453 2489 c-24 -7 -33 -16 -33 -30 0 -12 5 -19 13 -16 6 2 11 12 11
21 -1 12 5 16 24 14 13 -2 27 3 29 10 5 14 1 14 -44 1z"/>
<path d="M7545 2490 c-3 -5 -1 -10 4 -10 6 0 11 5 11 10 0 6 -2 10 -4 10 -3 0
-8 -4 -11 -10z"/>
<path d="M9165 2481 c-6 -11 9 -23 19 -14 9 9 7 23 -3 23 -6 0 -12 -4 -16 -9z"/>
<path d="M5900 2470 c0 -5 7 -10 15 -10 8 0 15 5 15 10 0 6 -7 10 -15 10 -8 0
-15 -4 -15 -10z"/>
<path d="M7010 2450 c0 -5 5 -10 10 -10 6 0 10 5 10 10 0 6 -4 10 -10 10 -5 0
-10 -4 -10 -10z"/>
<path d="M7045 2440 c-3 -5 3 -10 14 -10 12 0 21 5 21 10 0 6 -6 10 -14 10 -8
0 -18 -4 -21 -10z"/>
<path d="M5830 2431 c0 -5 5 -13 10 -16 6 -3 10 -2 10 4 0 5 -4 13 -10 16 -5
3 -10 2 -10 -4z"/>
<path d="M7130 2420 c0 -11 5 -20 10 -20 6 0 10 9 10 20 0 11 -4 20 -10 20 -5
0 -10 -9 -10 -20z"/>
<path d="M7020 2405 c0 -8 5 -15 10 -15 6 0 10 7 10 15 0 8 -4 15 -10 15 -5 0
-10 -7 -10 -15z"/>
<path d="M7160 2400 c0 -5 -7 -10 -15 -10 -8 0 -15 -4 -15 -10 0 -5 7 -10 15
-10 8 0 15 5 15 10 0 6 10 15 23 20 l22 9 -22 0 c-13 1 -23 -3 -23 -9z"/>
<path d="M7218 2403 c7 -3 16 -2 19 1 4 3 -2 6 -13 5 -11 0 -14 -3 -6 -6z"/>
<path d="M9259 2403 c18 -4 22 -10 18 -29 -2 -13 0 -24 5 -24 5 0 8 12 6 28
-2 21 -9 27 -28 29 -24 1 -24 1 -1 -4z"/>
<path d="M7208 2383 c6 -2 18 -2 25 0 6 3 1 5 -13 5 -14 0 -19 -2 -12 -5z"/>
<path d="M7248 2363 c6 -2 18 -2 25 0 6 3 1 5 -13 5 -14 0 -19 -2 -12 -5z"/>
<path d="M7357 2358 c2 -5 13 -8 24 -8 10 0 19 3 19 8 0 4 -11 7 -24 7 -13 0
-22 -3 -19 -7z"/>
<path d="M9333 2353 c-3 -10 -8 -22 -10 -28 -3 -5 3 -1 11 9 16 20 21 36 11
36 -3 0 -8 -8 -12 -17z"/>
<path d="M6394 2349 c-3 -6 -1 -16 5 -22 8 -8 11 -5 11 11 0 24 -5 28 -16 11z"/>
<path d="M6570 2346 c7 -7 13 -7 20 0 6 6 3 10 -10 10 -13 0 -16 -4 -10 -10z"/>
<path d="M6431 2334 c0 -11 3 -14 6 -6 3 7 2 16 -1 19 -3 4 -6 -2 -5 -13z"/>
<path d="M7250 2340 c0 -5 5 -10 10 -10 6 0 10 5 10 10 0 6 -4 10 -10 10 -5 0
-10 -4 -10 -10z"/>
<path d="M7310 2330 c0 -5 5 -10 11 -10 5 0 7 5 4 10 -3 6 -8 10 -11 10 -2 0
-4 -4 -4 -10z"/>
<path d="M6968 2323 c6 -2 18 -2 25 0 6 3 1 5 -13 5 -14 0 -19 -2 -12 -5z"/>
<path d="M9276 2315 c4 -8 10 -12 15 -9 11 6 2 24 -11 24 -5 0 -7 -7 -4 -15z"/>
<path d="M9120 2300 c0 -5 5 -10 10 -10 6 0 10 5 10 10 0 6 -4 10 -10 10 -5 0
-10 -4 -10 -10z"/>
<path d="M9200 2300 c0 -5 9 -10 20 -10 11 0 20 5 20 10 0 6 -9 10 -20 10 -11
0 -20 -4 -20 -10z"/>
<path d="M6008 2293 c6 -2 18 -2 25 0 6 3 1 5 -13 5 -14 0 -19 -2 -12 -5z"/>
<path d="M9290 2280 c-12 -8 -11 -10 8 -10 12 0 22 5 22 10 0 13 -11 13 -30 0z"/>
<path d="M5945 2270 c4 -6 11 -8 16 -5 14 9 11 15 -7 15 -8 0 -12 -5 -9 -10z"/>
<path d="M6108 2243 c7 -3 16 -2 19 1 4 3 -2 6 -13 5 -11 0 -14 -3 -6 -6z"/>
<path d="M6770 2230 c0 -5 5 -10 10 -10 6 0 10 5 10 10 0 6 -4 10 -10 10 -5 0
-10 -4 -10 -10z"/>
<path d="M6928 2203 c6 -2 18 -2 25 0 6 3 1 5 -13 5 -14 0 -19 -2 -12 -5z"/>
<path d="M7080 2200 c0 -5 14 -10 31 -10 17 0 28 4 24 10 -3 6 -17 10 -31 10
-13 0 -24 -4 -24 -10z"/>
<path d="M6050 2190 c-12 -8 -11 -10 8 -10 12 0 22 5 22 10 0 13 -11 13 -30 0z"/>
<path d="M6130 2185 c0 -8 5 -15 10 -15 6 0 10 7 10 15 0 8 -4 15 -10 15 -5 0
-10 -7 -10 -15z"/>
<path d="M6510 2191 c0 -5 7 -12 16 -15 14 -5 15 -4 4 9 -14 17 -20 19 -20 6z"/>
<path d="M6218 2183 c7 -3 16 -2 19 1 4 3 -2 6 -13 5 -11 0 -14 -3 -6 -6z"/>
<path d="M6360 2171 c0 -16 30 -33 47 -27 14 6 12 9 -11 21 -33 17 -36 18 -36
6z"/>
<path d="M6480 2167 c0 -14 -5 -16 -25 -11 -16 4 -25 2 -25 -6 0 -6 5 -8 10
-5 6 4 16 2 23 -3 7 -5 38 -12 71 -14 52 -4 56 -3 35 8 -13 7 -33 13 -43 14
-10 0 -25 8 -32 18 -13 16 -13 16 -14 -1z"/>
<path d="M9170 2170 c0 -5 5 -10 10 -10 6 0 10 5 10 10 0 6 -4 10 -10 10 -5 0
-10 -4 -10 -10z"/>
<path d="M9203 2167 c4 -10 7 -25 7 -33 0 -8 5 -14 10 -14 16 0 11 36 -7 51
-15 12 -16 12 -10 -4z"/>
<path d="M7103 2163 c9 -2 23 -2 30 0 6 3 -1 5 -18 5 -16 0 -22 -2 -12 -5z"/>
<path d="M6308 2153 c7 -3 16 -2 19 1 4 3 -2 6 -13 5 -11 0 -14 -3 -6 -6z"/>
<path d="M6815 2123 c4 -21 8 -39 9 -40 4 -4 133 -15 165 -14 18 1 39 -3 45
-7 15 -12 209 -34 229 -26 37 14 14 23 -42 18 -39 -4 -61 -3 -65 5 -5 7 8 11
41 12 42 2 40 3 -21 9 -39 4 -72 12 -74 18 -2 7 -8 12 -13 12 -6 0 -7 -4 -4
-10 9 -15 -11 -12 -24 4 -10 11 -8 15 6 19 15 4 14 5 -4 6 -12 0 -24 9 -26 19
-4 13 -5 11 -6 -5 -1 -28 -21 -31 -21 -3 0 30 -47 28 -52 -2 -5 -35 -36 -35
-41 -1 -4 27 -4 27 -6 -4 0 -18 -5 -33 -11 -33 -5 0 -11 15 -11 33 -1 23 -3
26 -6 10 -6 -31 -53 -33 -53 -3 0 11 -5 20 -11 20 -8 0 -9 -12 -4 -37z m132
-39 c-3 -3 -12 -4 -19 -1 -8 3 -5 6 6 6 11 1 17 -2 13 -5z"/>
<path d="M7252 2140 c0 -14 2 -19 5 -12 2 6 2 18 0 25 -3 6 -5 1 -5 -13z"/>
<path d="M6600 2129 c0 -15 8 -19 38 -21 73 -3 97 -6 130 -13 19 -5 32 -4 32
3 0 11 -46 22 -94 22 -17 1 -48 7 -68 14 -35 13 -38 12 -38 -5z"/>
<path d="M7308 2042 c-10 -2 -18 -8 -18 -13 0 -6 8 -9 18 -8 9 2 32 -1 50 -5
34 -8 64 5 48 21 -4 4 -11 1 -17 -7 -8 -13 -10 -13 -18 -1 -10 15 -32 20 -63
13z"/>
<path d="M7620 2000 c-9 -6 -10 -10 -3 -10 6 0 15 5 18 10 8 12 4 12 -15 0z"/>
<path d="M7658 1983 c7 -3 16 -2 19 1 4 3 -2 6 -13 5 -11 0 -14 -3 -6 -6z"/>
<path d="M8856 1871 c-3 -4 -17 -6 -32 -3 -20 3 -25 1 -22 -9 5 -16 41 -27 88
-27 l35 1 -35 7 c-28 5 -31 8 -18 14 10 5 15 12 12 17 -7 11 -21 12 -28 0z"/>
</g>
</svg>
