<?xml version="1.0" standalone="no"?>
<!DOCTYPE svg PUBLIC "-//W3C//DTD SVG 20010904//EN"
 "http://www.w3.org/TR/2001/REC-SVG-20010904/DTD/svg10.dtd">
<svg version="1.0" xmlns="http://www.w3.org/2000/svg"
 width="1024.000000pt" height="1536.000000pt" viewBox="0 0 1024.000000 1536.000000"
 preserveAspectRatio="xMidYMid meet">

<g transform="translate(0.000000,1536.000000) scale(0.100000,-0.100000)"
fill="#000000" stroke="none">
<path d="M8115 13160 c-3 -5 -1 -10 4 -10 6 0 11 5 11 10 0 6 -2 10 -4 10 -3
0 -8 -4 -11 -10z"/>
<path d="M7857 13139 c-7 -4 -54 -14 -104 -23 -51 -8 -106 -22 -122 -30 -15
-8 -32 -12 -36 -8 -3 4 -12 0 -18 -9 -7 -9 -23 -20 -37 -24 -14 -4 -37 -16
-52 -26 -14 -11 -29 -19 -33 -19 -23 0 -137 -102 -164 -145 -31 -51 -40 -85
-21 -85 6 0 10 11 10 23 0 23 47 96 63 97 4 0 7 -7 7 -15 0 -7 8 -18 17 -24
14 -8 11 -10 -20 -16 -33 -6 -53 -25 -26 -25 5 0 8 -4 4 -9 -3 -5 0 -11 7 -14
7 -2 0 -3 -17 -1 -22 3 -26 1 -15 -6 23 -15 54 -12 76 8 10 10 27 16 37 14 9
-2 17 1 17 7 0 6 6 11 13 11 14 0 87 67 87 81 0 5 5 9 11 9 8 0 7 -6 -2 -17
-12 -15 -12 -16 6 -9 11 5 29 9 40 11 11 1 21 9 23 18 2 9 12 17 23 17 10 0
28 9 40 21 11 11 27 18 34 15 9 -3 15 3 17 17 2 15 10 22 26 21 12 0 22 -4 22
-9 -1 -6 -11 -9 -23 -8 l-22 3 23 -10 c12 -5 22 -14 22 -20 0 -7 6 -8 19 0 26
14 36 13 24 -2 -6 -7 -9 -21 -8 -30 2 -12 -3 -18 -16 -18 -10 0 -19 -5 -19
-11 0 -5 5 -7 12 -3 8 5 9 0 6 -14 -4 -12 -2 -22 4 -22 5 0 1 -16 -11 -36 -22
-37 -26 -48 -13 -40 11 7 7 -41 -5 -56 -16 -19 -26 -58 -15 -58 11 0 4 -77 -9
-101 -15 -28 -10 -47 6 -25 8 11 15 15 15 9 0 -7 -4 -14 -9 -17 -11 -7 -21
-56 -11 -56 4 0 11 11 14 25 4 14 11 25 16 25 14 0 13 -17 -1 -22 -7 -2 -13
-26 -14 -53 -4 -75 -4 -77 -15 -70 -7 4 -7 12 -2 18 8 11 8 18 4 55 -4 26 -17
10 -18 -20 -2 -64 -9 -106 -18 -101 -10 7 3 -59 15 -72 14 -15 10 -25 -7 -18
-15 6 -15 4 0 -19 9 -13 14 -27 11 -30 -7 -7 15 -58 32 -75 9 -10 14 -5 23 22
15 47 30 54 20 9 -7 -31 -6 -35 8 -29 14 5 15 4 5 -6 -7 -7 -13 -22 -13 -34 0
-12 9 -1 24 30 14 28 25 42 25 32 1 -10 -6 -32 -15 -48 -8 -17 -14 -35 -12
-41 2 -6 15 13 29 43 l24 54 3 -49 c2 -27 -2 -54 -7 -59 -6 -6 -11 -17 -11
-24 0 -9 6 -8 19 4 11 9 18 20 15 25 -3 4 1 8 8 8 14 0 44 64 41 88 -1 10 2
10 13 1 10 -8 14 -8 14 0 0 6 4 11 9 11 13 0 2 -70 -15 -97 -8 -13 -21 -23
-29 -23 -9 0 -15 -9 -15 -21 0 -18 2 -19 15 -9 18 15 20 -1 3 -18 -7 -7 -11
-28 -9 -48 1 -19 -3 -42 -10 -50 -6 -8 -18 -40 -24 -72 -7 -31 -13 -46 -14
-32 -1 17 -4 21 -12 13 -8 -8 -8 -17 0 -31 15 -28 14 -37 -3 -23 -11 9 -15 6
-19 -16 -3 -15 -1 -35 3 -43 5 -9 4 -23 -1 -33 -6 -10 -6 -17 -1 -17 15 0 21
23 15 56 -4 23 -2 26 6 14 10 -13 12 -13 21 0 6 8 8 24 6 34 -4 14 -2 16 6 8
9 -9 6 -23 -10 -55 -12 -25 -22 -51 -22 -60 0 -11 -5 -14 -17 -10 -14 6 -14 3
3 -20 10 -14 22 -27 27 -27 4 0 7 -12 7 -27 0 -38 12 -21 16 23 2 19 6 45 10
56 5 17 3 19 -14 14 -17 -6 -19 -3 -15 14 6 23 19 26 26 8 4 -10 6 -10 6 0 1
7 5 11 10 8 11 -7 9 27 -3 35 -4 4 -3 16 3 27 8 15 7 21 -3 25 -14 6 -29 47
-17 47 5 0 13 -10 18 -22 10 -22 11 -22 9 4 0 16 -5 28 -10 28 -4 0 -5 8 -1
18 12 31 17 56 18 95 2 33 8 42 29 38 10 -1 59 96 62 123 1 11 8 30 15 41 11
18 12 18 6 -7 -7 -37 1 -35 22 5 12 23 18 28 21 15 3 -14 13 -12 75 18 57 27
79 34 107 29 52 -9 105 -49 136 -100 24 -42 26 -53 22 -123 -3 -61 -12 -94
-38 -150 -18 -40 -38 -72 -44 -72 -6 0 -19 -15 -29 -33 -10 -18 -40 -55 -67
-81 -28 -27 -50 -53 -50 -57 0 -5 -20 -20 -45 -35 -54 -31 -89 -27 -103 13
l-10 28 -1 -32 c-1 -17 -4 -39 -8 -49 -4 -11 -3 -15 5 -10 6 3 16 -2 21 -13 8
-14 7 -20 -4 -25 -8 -3 -15 -11 -15 -17 0 -8 4 -8 15 1 16 13 18 11 29 -42 4
-16 2 -28 -4 -28 -5 0 -10 6 -10 14 0 8 -4 17 -8 20 -4 3 -3 -15 2 -40 6 -24
14 -44 18 -44 5 0 8 -7 8 -17 0 -15 -2 -15 -17 0 -18 16 -21 17 -48 17 -8 0
-15 5 -15 11 0 5 5 7 10 4 15 -10 12 5 -6 22 -8 9 -13 25 -11 35 4 14 1 18 -9
14 -9 -4 -14 2 -14 17 0 21 0 21 -17 -3 -10 -14 -16 -29 -15 -35 2 -5 -6 -1
-17 9 -12 11 -24 16 -28 13 -3 -4 -2 -7 4 -7 6 0 10 -11 9 -24 0 -13 -4 -22
-8 -19 -5 2 -8 -4 -9 -14 -1 -10 -7 6 -14 35 -7 30 -17 57 -21 60 -4 4 -4 -1
-1 -11 4 -10 7 -34 7 -52 0 -19 7 -40 15 -48 13 -13 13 -16 -1 -21 -9 -3 -21
-3 -27 1 -7 3 -3 -3 7 -15 18 -21 20 -21 33 -4 8 9 11 10 7 2 -4 -8 -7 -27 -6
-42 1 -14 -3 -30 -9 -34 -7 -4 -10 -1 -7 7 3 8 1 23 -5 34 -10 18 -12 16 -23
-20 -10 -32 -13 -35 -13 -14 -1 31 -26 67 -38 55 -4 -5 -2 -11 5 -13 19 -7 14
-24 -5 -21 -12 2 -17 -3 -15 -14 2 -10 -2 -18 -8 -18 -6 0 -9 15 -7 35 5 39
-9 58 -16 23 l-4 -23 -2 23 c0 12 -5 22 -9 22 -16 0 -21 -13 -12 -31 11 -19 4
-49 -11 -49 -5 0 -7 11 -3 24 3 14 1 27 -6 31 -9 5 -10 1 -5 -14 4 -12 2 -21
-4 -21 -6 0 -11 5 -11 10 0 6 -5 10 -11 10 -11 0 -9 -36 5 -75 7 -18 6 -18 -4
-2 -6 9 -14 15 -18 13 -4 -2 -5 18 -4 45 2 27 8 49 13 49 13 0 11 28 -3 36 -8
5 -9 2 -5 -9 3 -9 2 -19 -3 -22 -6 -4 -10 0 -10 8 0 28 -26 26 -27 -2 -1 -21
0 -23 6 -7 6 17 8 17 14 3 3 -8 0 -21 -8 -27 -10 -8 -16 -7 -24 7 -6 10 -11
13 -11 6 0 -6 -3 -20 -6 -30 -5 -15 -4 -16 5 -3 10 13 12 13 21 0 5 -8 10 -11
10 -6 0 6 5 5 12 -2 9 -9 9 -15 -1 -24 -10 -11 -11 -9 -5 7 7 17 5 18 -8 8 -8
-7 -18 -10 -21 -6 -7 6 -10 -17 -9 -67 1 -20 0 -21 -5 -5 -3 11 -10 23 -17 27
-7 5 -7 8 0 8 6 0 9 13 6 30 -2 17 -8 30 -13 30 -5 0 -6 7 -3 15 4 8 1 15 -5
15 -6 0 -11 -6 -11 -14 0 -8 -4 -16 -10 -18 -16 -5 -16 -50 0 -56 12 -4 13 -2
3 9 -9 11 -8 18 1 31 16 22 24 15 18 -17 -5 -31 -16 -38 -42 -30 -14 4 -20 15
-20 36 0 16 -4 29 -8 29 -5 0 -7 -14 -4 -31 3 -20 13 -34 28 -41 13 -6 24 -15
24 -20 0 -12 -18 -10 -22 4 -2 6 -10 9 -17 7 -11 -4 -10 -8 3 -21 9 -9 16 -22
16 -29 0 -7 -11 1 -25 17 l-25 29 0 -30 c-1 -28 -2 -29 -15 -11 -7 10 -18 15
-24 11 -6 -3 -11 -1 -11 4 0 6 9 11 20 11 11 0 20 5 20 11 0 5 -5 7 -12 3 -7
-4 -8 -3 -4 4 4 7 14 12 22 12 8 0 14 4 14 8 0 19 -56 6 -73 -18 l-18 -25 7
29 c6 24 4 27 -12 22 -16 -5 -19 0 -20 29 0 20 4 31 9 28 6 -3 7 -1 3 6 -4 6
-11 9 -16 6 -5 -3 -14 3 -19 14 -8 14 -8 20 1 23 6 2 8 10 4 16 -5 9 -13 9
-26 2 -15 -8 -18 -7 -14 3 3 8 -2 20 -11 27 -8 7 -15 22 -15 33 0 20 0 20 -20
2 -17 -16 -20 -16 -15 -3 5 13 2 15 -13 11 -30 -7 -32 26 -4 56 20 22 23 32
17 70 -4 24 -10 53 -15 65 -8 18 -9 17 -9 -11 -1 -18 -6 -33 -12 -33 -5 0 -8
-4 -4 -9 10 -17 -27 -20 -148 -13 -117 7 -137 3 -137 -25 0 -18 76 -53 116
-53 18 0 42 -8 54 -18 19 -15 23 -28 22 -75 0 -33 4 -57 10 -57 6 0 8 -9 5
-20 -3 -12 -1 -18 5 -14 5 4 8 21 5 38 -3 17 -3 25 0 18 2 -6 9 -9 14 -6 12 7
1 -46 -12 -60 -5 -6 -9 -13 -9 -17 0 -12 80 -39 122 -41 41 -1 41 -2 19 -19
-30 -24 -26 -30 14 -24 26 3 41 -1 55 -15 30 -30 25 -54 -15 -72 -34 -15 -35
-15 -30 2 5 14 2 17 -14 13 -34 -9 -34 -44 0 -75 16 -15 36 -44 45 -63 13 -32
33 -52 21 -22 -3 8 5 12 25 12 26 0 28 -3 23 -25 l-6 -25 19 24 20 24 0 -25
c0 -14 9 -35 21 -47 21 -21 30 -58 11 -46 -5 3 -10 12 -10 20 0 8 -5 17 -10
20 -7 4 -9 -2 -5 -17 3 -13 2 -35 -4 -48 l-10 -25 -1 25 c-2 16 -5 10 -11 -20
-5 -24 -5 -47 -1 -50 19 -17 193 -52 312 -64 8 -1 50 -10 93 -21 55 -13 77
-23 77 -34 0 -9 -14 -43 -30 -76 -16 -33 -30 -64 -30 -68 0 -5 -11 -32 -25
-62 -19 -40 -38 -62 -73 -84 -96 -63 -217 -152 -280 -207 -165 -147 -277 -347
-325 -584 l-14 -64 -43 3 c-28 2 -46 -2 -51 -11 -5 -7 -9 56 -9 147 -1 322
-76 525 -262 707 -180 177 -451 233 -657 137 -118 -55 -253 -215 -313 -371
-37 -98 -78 -285 -78 -357 0 -19 -2 -32 -5 -29 -28 28 7 253 64 413 43 122
191 302 291 355 19 11 30 19 24 20 -24 0 -134 -83 -194 -147 -54 -58 -109
-131 -146 -195 -7 -11 -17 -25 -24 -31 -10 -9 -11 -9 -6 1 5 8 0 12 -16 12
-51 0 -68 11 -79 52 -6 23 -8 52 -4 65 10 42 68 112 108 130 20 9 37 20 37 23
0 4 19 16 43 28 36 18 157 122 157 136 0 2 16 20 35 41 43 47 75 115 75 157 0
17 -9 50 -20 73 -25 52 -18 110 11 102 12 -3 19 0 19 9 0 20 31 17 60 -6 32
-25 62 -25 80 0 8 11 18 20 22 20 6 0 75 44 86 55 2 1 9 29 17 61 22 99 15
131 -71 332 -8 18 -14 37 -14 43 0 15 -47 133 -86 214 -43 91 -63 106 -317
248 -12 6 -40 28 -62 49 -22 20 -86 59 -142 87 -56 28 -109 61 -118 73 -8 13
-15 17 -15 10 0 -6 -7 -12 -15 -12 -11 0 -15 12 -15 50 0 31 4 50 12 50 20 0
87 81 81 98 -4 8 -2 13 3 9 14 -8 46 107 46 162 -1 65 -4 85 -12 96 -4 6 -11
25 -15 44 -9 44 -74 107 -140 137 -76 35 -174 35 -250 0 -30 -14 -55 -29 -55
-33 0 -5 -11 -20 -25 -35 -63 -69 -86 -158 -66 -258 7 -30 13 -64 15 -76 4
-24 33 -82 51 -104 37 -45 64 -110 58 -144 -7 -43 -17 -54 -118 -118 -44 -28
-92 -60 -106 -72 -15 -12 -39 -30 -55 -41 -31 -21 -134 -113 -146 -130 -4 -5
-8 -6 -8 -1 0 4 -26 -17 -57 -47 -55 -53 -60 -61 -86 -154 -15 -54 -30 -114
-33 -133 -3 -19 -9 -52 -13 -72 -5 -20 -6 -39 -3 -43 3 -3 1 -5 -5 -5 -10 0
-24 -46 -29 -95 -17 -153 -18 -148 10 -204 15 -29 36 -63 47 -75 10 -11 33
-38 50 -59 47 -56 74 -49 113 29 34 66 67 104 88 99 67 -16 72 -31 69 -205 -2
-113 -1 -117 26 -152 17 -22 48 -45 81 -59 59 -25 122 -89 122 -125 0 -12 -12
-37 -27 -54 -24 -29 -30 -31 -67 -25 -23 3 -63 7 -91 8 -46 2 -51 0 -70 -30
-11 -18 -26 -32 -32 -33 -7 0 -13 -8 -13 -18 0 -10 -11 -29 -24 -42 -14 -12
-28 -35 -31 -51 -4 -16 -12 -32 -18 -36 -7 -5 -13 -17 -15 -28 -2 -11 -7 -40
-12 -65 -5 -25 -14 -74 -20 -108 -5 -35 -13 -69 -17 -75 -4 -7 -9 -21 -11 -32
-1 -11 -4 -29 -6 -39 -4 -29 -41 -39 -61 -16 -9 10 -60 47 -113 81 -54 34
-109 70 -124 81 -15 10 -29 18 -32 18 -3 0 -49 26 -103 59 -182 108 -288 167
-406 224 l-117 58 6 38 c6 40 -8 78 -52 136 -41 56 -37 64 51 101 88 37 113
61 139 134 10 28 40 80 68 117 27 38 56 80 64 95 20 39 153 444 160 489 8 45
-3 109 -17 109 -6 0 -8 -10 -4 -22 5 -20 4 -21 -5 -5 -6 9 -9 21 -6 25 2 4 1
14 -5 22 -7 13 -9 12 -9 -2 0 -10 -4 -18 -9 -18 -4 0 -6 11 -3 25 2 15 0 25
-7 25 -6 0 -12 -10 -12 -22 -1 -21 -2 -21 -6 -3 -3 11 -10 23 -17 27 -16 11
-38 10 -31 -2 3 -5 1 -10 -4 -10 -6 0 -11 5 -11 12 0 9 -3 9 -11 1 -14 -14 -4
-44 12 -41 6 2 13 -2 15 -7 2 -6 -4 -11 -15 -12 -20 -2 -29 18 -36 74 -3 26
-1 31 13 27 15 -5 15 -4 0 9 -10 8 -18 20 -18 27 0 10 3 10 14 1 12 -10 13 -7
7 21 -10 47 -1 191 13 205 3 3 8 -3 12 -13 16 -52 26 -69 33 -54 7 17 25 24
58 23 13 -1 20 3 17 8 -3 5 -12 9 -20 9 -8 0 -14 4 -14 10 0 5 -12 8 -27 6
-16 -2 -20 -1 -10 1 9 2 17 12 17 21 1 16 2 16 14 0 21 -28 37 -22 30 10 -7
29 -7 28 -5 57 1 15 3 17 10 7 7 -11 9 -11 14 1 3 9 -1 18 -9 21 -10 4 -13 13
-9 26 4 14 2 20 -6 18 -15 -3 -17 50 -4 121 6 37 4 47 -11 58 -13 10 -14 13
-3 14 8 0 6 4 -6 9 -11 5 -15 9 -9 9 8 1 6 21 -8 64 -10 34 -17 75 -15 90 2
15 0 30 -5 33 -4 3 -8 10 -8 15 0 6 5 7 12 3 8 -5 9 4 5 33 -5 31 -3 44 11 58
12 13 16 30 14 52 -3 22 0 33 8 33 10 0 10 3 0 15 -7 9 -13 34 -13 57 0 34 -8
53 -39 94 -41 54 -149 154 -167 154 -6 0 -11 4 -11 9 0 5 -15 12 -33 15 -19 3
-43 15 -54 26 -12 10 -50 28 -84 40 -82 26 -119 43 -119 52 0 4 -18 6 -41 3
-25 -3 -38 -2 -34 4 3 6 -9 9 -32 7 -20 -2 -46 0 -58 5 -33 15 -233 37 -309
35 -39 -2 -84 -9 -101 -16 -16 -7 -39 -14 -50 -15 -11 -1 -33 -7 -50 -14 -51
-20 -54 -20 -59 -8 -2 7 -5 4 -5 -7 -1 -11 -6 -16 -15 -13 -7 3 -23 -1 -34 -8
-10 -8 -22 -12 -25 -9 -3 3 -22 -12 -43 -33 -21 -21 -40 -37 -41 -35 -13 11
-21 -3 -16 -30 4 -22 3 -29 -5 -24 -7 4 -12 14 -12 23 0 12 -4 11 -19 -6 -11
-13 -22 -28 -25 -34 -3 -8 -8 -7 -15 3 -9 12 -11 10 -11 -12 0 -14 -6 -28 -12
-31 -10 -3 -10 -9 0 -26 15 -25 6 -27 -20 -4 -18 16 -18 16 -12 0 5 -13 2 -16
-12 -10 -13 5 -16 3 -11 -10 3 -9 2 -17 -4 -17 -6 0 -7 -4 -4 -10 4 -6 -5 -10
-20 -10 -20 0 -26 -4 -21 -15 3 -9 -1 -18 -9 -21 -8 -4 -12 -10 -9 -15 3 -5
-9 -24 -25 -41 -17 -18 -31 -37 -31 -41 0 -4 -11 -18 -23 -30 -13 -12 -22 -28
-20 -34 3 -7 -3 -13 -12 -13 -10 0 -15 -5 -12 -14 3 -7 1 -18 -5 -24 -8 -8 -8
-15 1 -26 10 -12 9 -18 -7 -34 -22 -22 -35 -62 -20 -62 6 0 3 -11 -6 -25 -9
-13 -16 -31 -16 -40 0 -8 -4 -23 -9 -33 -22 -41 -33 -82 -21 -82 5 0 9 -15 9
-32 1 -77 5 -107 12 -102 4 2 6 -17 4 -43 -2 -27 1 -51 7 -54 5 -3 10 -29 11
-57 1 -29 6 -52 10 -52 5 0 6 -9 2 -19 -3 -11 -1 -22 4 -25 11 -7 20 -72 26
-191 2 -44 10 -107 19 -140 8 -33 13 -62 10 -66 -2 -4 3 -31 11 -62 16 -60 22
-178 11 -217 -4 -14 7 2 24 35 18 33 38 64 46 68 8 5 11 14 7 20 -4 7 5 4 20
-5 32 -22 44 -23 27 -3 -7 8 -10 15 -6 15 9 0 47 -22 68 -39 11 -8 29 -11 47
-8 17 4 33 2 37 -4 3 -6 10 -6 17 -1 7 5 22 12 35 15 19 4 21 3 11 -9 -10 -12
-9 -13 4 -8 8 3 18 12 21 21 5 12 9 13 20 4 7 -6 21 -8 31 -5 9 4 20 2 24 -5
4 -6 18 -14 32 -16 13 -3 25 -9 27 -14 2 -5 12 -6 24 -3 14 3 19 1 14 -6 -4
-7 -2 -12 3 -12 6 0 11 6 11 13 1 7 8 3 18 -8 10 -12 25 -19 37 -17 17 4 18 2
6 -12 -7 -9 -12 -16 -10 -17 2 0 17 -3 34 -5 16 -3 32 -10 36 -15 3 -5 13 -7
21 -4 10 4 17 -1 22 -17 5 -19 8 -20 16 -8 8 12 10 11 10 -7 0 -13 -4 -23 -10
-23 -5 0 -10 -4 -10 -10 0 -5 7 -10 16 -10 8 0 13 4 9 9 -3 5 -1 12 5 16 6 4
10 -6 10 -23 0 -26 3 -29 25 -24 15 2 25 0 25 -7 0 -7 -4 -10 -9 -7 -8 5 -8
-11 -3 -91 1 -15 7 -21 16 -17 8 3 17 0 21 -6 4 -7 -3 -9 -22 -6 -15 3 -93 14
-173 26 -80 11 -210 31 -290 45 -80 13 -176 26 -215 30 -38 3 -129 13 -201 22
-200 25 -237 9 -305 -132 -21 -44 -58 -92 -119 -154 -49 -50 -94 -92 -102 -93
-7 0 -42 -2 -77 -3 -52 -2 -68 -6 -82 -24 -11 -14 -29 -21 -51 -21 -31 0 -91
-32 -127 -67 -11 -12 -16 -11 -32 3 -15 13 -29 15 -81 9 -35 -4 -81 -16 -102
-27 -29 -15 -71 -22 -155 -28 -92 -6 -130 -13 -186 -36 -108 -44 -180 -91
-245 -161 -42 -46 -69 -67 -97 -75 -83 -22 -244 -243 -270 -368 -3 -17 -9 -28
-12 -23 -9 13 -31 14 -31 2 0 -6 -7 -9 -15 -5 -8 3 -18 -2 -23 -11 -15 -26 7
-87 49 -138 45 -54 46 -58 53 -181 l6 -91 -47 -7 c-25 -3 -82 -6 -127 -6 -45
0 -91 -3 -103 -6 l-23 -6 0 -738 0 -737 148 2 c81 2 280 5 444 7 163 1 296 5
296 8 -1 20 3 32 9 26 12 -12 10 -482 -2 -484 -5 0 -172 -6 -370 -12 -198 -6
-397 -13 -442 -16 l-83 -6 0 -668 0 -668 38 -6 c52 -7 76 -5 84 8 5 6 8 7 8 1
0 -11 40 -11 250 0 75 4 138 11 141 17 4 6 10 5 15 -5 7 -12 20 -14 59 -9 42
5 46 7 25 13 -19 5 -12 8 30 10 30 1 62 3 70 5 8 1 27 2 41 3 23 1 27 6 33 44
14 87 50 250 54 239 2 -6 -15 -103 -38 -215 -22 -112 -51 -277 -65 -368 -52
-356 -64 -428 -89 -524 -14 -55 -28 -138 -32 -185 -4 -47 -15 -103 -24 -126
-10 -22 -23 -67 -30 -98 -10 -51 -10 -60 6 -84 10 -15 17 -33 16 -39 -2 -8 3
-10 13 -7 21 9 20 -49 -5 -206 -11 -69 -24 -165 -29 -215 l-9 -90 2 81 c1 81
1 82 -21 73 -19 -7 -23 -5 -23 11 0 22 -35 29 -42 8 -3 -7 -14 -9 -34 -3 l-29
8 32 9 c48 13 43 38 -7 39 -22 0 -62 2 -90 2 -34 2 -50 -2 -50 -10 0 -7 8 -13
17 -13 13 0 14 -3 6 -11 -14 -14 -43 10 -43 35 0 9 -8 16 -20 16 -11 0 -20 -4
-20 -9 0 -5 -11 -11 -26 -14 -23 -4 -25 -2 -19 27 l5 31 -13 -30 -14 -30 -8
30 c-12 51 -15 56 -25 50 -5 -3 -10 -3 -10 2 0 4 -29 6 -65 5 l-65 -4 0 -165
0 -166 153 7 c83 3 212 9 284 12 l133 6 0 -40 0 -40 -285 -7 -285 -7 0 -2079
0 -2079 5120 0 5120 0 0 4235 c0 3520 -2 4235 -13 4235 -10 0 -17 32 -25 118
-7 64 -19 171 -26 237 -8 65 -12 123 -10 127 3 4 16 8 29 8 25 0 25 0 38 -115
2 -16 5 43 6 132 0 90 -3 193 -9 230 -8 60 -39 272 -56 389 -5 37 -4 42 17 47
13 3 25 4 27 2 2 -2 8 -28 12 -57 4 -30 8 149 9 413 l1 467 -27 18 c-16 9 -33
25 -40 34 -13 18 -128 90 -144 90 -5 0 -9 5 -9 12 0 6 -3 9 -6 6 -3 -3 -17 5
-31 18 -21 19 -29 21 -46 13 -17 -9 -19 -9 -14 4 7 19 -18 42 -34 31 -7 -4 -9
-3 -6 3 7 11 -75 53 -105 53 -12 0 -18 3 -15 7 10 10 -25 32 -52 33 -13 0 -21
3 -18 7 9 9 -131 53 -148 47 -7 -3 -15 -1 -18 3 -8 12 30 14 59 3 33 -13 30
-4 -13 39 -64 61 -100 125 -112 199 -35 195 -36 197 -165 197 -145 0 -270 -15
-486 -60 -63 -13 -135 -26 -160 -29 l-45 -6 50 24 c28 13 64 35 80 50 17 14
36 26 43 26 19 0 14 17 -5 17 -10 0 -30 -11 -45 -24 -16 -15 -31 -22 -39 -18
-7 5 -10 4 -5 -3 6 -10 -162 -102 -187 -102 -7 0 -33 -11 -59 -24 -38 -19 -46
-21 -39 -8 14 25 48 51 56 44 4 -4 5 -2 3 5 -2 7 52 68 120 137 67 69 122 128
122 132 0 3 -7 1 -15 -6 -12 -10 -15 -10 -15 3 0 8 11 18 25 21 14 4 25 11 25
17 0 6 5 7 10 4 6 -3 10 -2 10 4 0 11 71 81 83 81 5 0 5 -6 2 -12 -4 -7 0 -5
8 5 20 24 28 21 21 -9 -7 -26 -6 -26 18 -10 31 20 46 8 16 -12 -21 -15 -21
-16 -2 -23 10 -4 38 -8 60 -8 55 -1 111 -26 119 -52 13 -39 23 0 24 90 2 142
15 262 54 516 6 44 12 148 12 231 0 136 -2 154 -19 173 -16 18 -17 21 -3 15
15 -5 14 -2 -3 33 -10 21 -28 71 -41 111 -24 80 -63 136 -180 255 -37 38 -69
72 -71 75 -1 4 -9 6 -15 6 -7 -1 -10 2 -7 7 3 5 2 9 -3 9 -4 0 -21 11 -37 25
-16 14 -33 25 -37 25 -4 0 -15 7 -23 16 -15 14 -16 14 -16 0 0 -9 3 -16 8 -16
4 0 33 -25 65 -54 31 -30 57 -52 57 -49 0 3 9 -6 21 -21 13 -16 18 -33 14 -44
-5 -13 -3 -14 6 -5 9 9 18 2 40 -30 28 -42 31 -69 3 -29 -8 12 -26 22 -38 22
-13 0 -29 7 -36 15 -7 8 -16 12 -21 9 -5 -3 -9 -1 -9 3 0 5 -13 9 -30 9 -16 1
-27 -2 -24 -7 6 -10 -25 0 -43 14 -7 5 -13 7 -13 3 0 -4 -11 1 -25 10 -14 9
-25 22 -25 29 0 17 -27 27 -34 12 -3 -9 -5 -9 -5 1 -1 6 -8 12 -18 12 -9 0
-14 3 -11 6 13 12 -47 57 -78 58 -33 1 -59 15 -33 17 18 2 -95 19 -143 22 -21
1 -38 5 -38 10 0 4 5 7 11 7 7 0 9 9 6 23 -6 20 -2 22 41 26 26 2 64 4 85 5
26 1 36 5 32 14 -3 10 0 10 16 1 17 -9 20 -8 17 3 -3 7 -20 14 -39 15 -19 1
-63 4 -99 7 -133 10 -262 6 -312 -10 -20 -6 -21 -5 -9 10 8 9 9 16 3 16 -6 0
-14 -9 -17 -20 -3 -11 -11 -20 -16 -20 -6 0 -8 8 -5 18 5 16 1 17 -31 14 -21
-2 -44 -9 -51 -15 -7 -5 -15 -7 -19 -3 -3 3 -1 6 5 6 7 0 12 4 12 9 0 10 -45
10 -63 0z m243 -28 c-26 -15 -66 -24 -55 -13 6 5 19 12 30 15 32 8 41 7 25 -2z
m184 -32 c-7 -12 -17 -11 -39 4 -16 13 -15 14 13 9 18 -2 29 -8 26 -13z m-87
-14 c-15 -14 -33 -25 -40 -25 -7 0 -3 6 8 12 11 7 26 18 33 25 7 7 16 13 20
13 4 0 -6 -12 -21 -25z m-297 -18 c-17 -16 -38 -23 -79 -25 -49 -3 -53 -2 -42
12 8 9 19 16 25 16 6 0 4 -5 -4 -11 -11 -8 -8 -9 15 -4 17 4 36 8 43 8 6 0 12
4 12 8 0 4 10 10 23 12 12 2 24 5 27 6 2 0 -6 -9 -20 -22z m-220 3 c0 -5 -5
-10 -11 -10 -5 0 -7 5 -4 10 3 6 8 10 11 10 2 0 4 -4 4 -10z m246 -15 c-11 -8
-25 -15 -30 -15 -6 0 -2 7 8 15 11 8 25 15 30 15 6 0 2 -7 -8 -15z m619 -75
c3 -5 -1 -10 -9 -10 -8 0 -18 5 -21 10 -3 6 1 10 9 10 8 0 18 -4 21 -10z
m-945 -41 c0 -4 -7 -6 -15 -3 -8 4 -15 10 -15 15 0 4 7 6 15 3 8 -4 15 -10 15
-15z m680 17 c0 -3 -4 -8 -10 -11 -5 -3 -10 -1 -10 4 0 6 5 11 10 11 6 0 10
-2 10 -4z m-74 -35 c-3 -5 -16 -11 -28 -14 -22 -6 -22 -5 -4 8 22 17 40 20 32
6z m29 -11 c-10 -11 -23 -20 -28 -20 -13 0 24 39 37 39 5 1 1 -8 -9 -19z
m-5601 -5 c3 -8 1 -15 -4 -15 -6 0 -10 7 -10 15 0 8 2 15 4 15 2 0 6 -7 10
-15z m5776 5 c0 -5 -8 -10 -17 -10 -15 0 -16 2 -3 10 19 12 20 12 20 0z m-391
-74 c-7 -14 -16 -26 -21 -26 -5 0 -1 14 7 31 20 37 31 33 14 -5z m799 -2 c14
-15 14 -16 -3 -13 -10 2 -20 10 -23 17 -5 17 6 15 26 -4z m52 -49 c0 -1 -10
-10 -22 -21 -14 -12 -18 -13 -10 -3 6 9 10 18 7 21 -3 2 2 5 10 5 8 0 15 -1
15 -2z m-809 -23 c-12 -22 -41 -48 -41 -36 0 8 40 54 47 54 2 0 -1 -8 -6 -18z
m-124 -84 c-3 -8 -6 -5 -6 6 -1 11 2 17 5 13 3 -3 4 -12 1 -19z m59 -10 c-18
-26 -22 -17 -5 14 6 11 13 17 16 15 3 -3 -2 -16 -11 -29z m-16 -32 c0 -3 -4
-8 -10 -11 -5 -3 -10 -1 -10 4 0 6 5 11 10 11 6 0 10 -2 10 -4z m-79 -33 c-12
-20 -14 -14 -5 12 4 9 9 14 11 11 3 -2 0 -13 -6 -23z m256 -45 c-3 -8 -6 -5
-6 6 -1 11 2 17 5 13 3 -3 4 -12 1 -19z m-320 -20 c-3 -8 -6 -5 -6 6 -1 11 2
17 5 13 3 -3 4 -12 1 -19z m80 -30 c-3 -7 -5 -2 -5 12 0 14 2 19 5 13 2 -7 2
-19 0 -25z m-128 -30 c4 -13 11 -36 14 -53 5 -26 4 -24 -13 10 -19 40 -24 65
-15 65 3 0 9 -10 14 -22z m208 0 c-3 -8 -6 -5 -6 6 -1 11 2 17 5 13 3 -3 4
-12 1 -19z m-23 -53 c5 -22 4 -26 -4 -15 -5 8 -10 24 -10 34 0 26 6 18 14 -19z
m-194 -12 c0 -19 -3 -24 -10 -17 -6 6 -8 18 -4 27 9 24 14 21 14 -10z m310
-45 c0 -27 5 -48 10 -48 6 0 10 -8 11 -17 0 -11 3 -13 6 -5 9 22 18 13 18 -18
0 -31 19 -43 21 -12 3 49 7 54 15 17 15 -79 15 -80 -6 -80 -19 0 -45 34 -45
59 0 7 -8 21 -19 32 -12 14 -20 40 -23 82 -2 34 -1 57 4 50 4 -7 8 -34 8 -60z
m-2604 39 c23 -20 25 -26 15 -45 -6 -12 -19 -22 -29 -23 -9 0 -49 -3 -88 -7
-46 -5 -71 -4 -71 3 0 5 -3 21 -8 34 -6 20 -4 23 10 18 9 -4 23 0 31 8 9 8 24
15 35 15 10 0 19 5 19 10 0 19 59 10 86 -13z m2561 -9 c-3 -8 -6 -5 -6 6 -1
11 2 17 5 13 3 -3 4 -12 1 -19z m-200 -20 c-3 -7 -5 -2 -5 12 0 14 2 19 5 13
2 -7 2 -19 0 -25z m-110 -20 c-3 -7 -5 -2 -5 12 0 14 2 19 5 13 2 -7 2 -19 0
-25z m93 -28 c1 10 4 9 11 -5 8 -17 9 -16 4 6 -3 17 0 29 8 32 10 4 13 -9 13
-53 -1 -32 -4 -56 -8 -53 -5 2 -8 13 -8 24 0 10 -5 19 -11 19 -6 0 -8 -9 -4
-20 3 -11 2 -20 -4 -20 -10 0 -26 45 -34 100 l-6 35 19 -40 c11 -22 20 -33 20
-25z m-3 38 c-3 -8 -6 -5 -6 6 -1 11 2 17 5 13 3 -3 4 -12 1 -19z m318 -36
c-8 -8 -26 39 -19 50 5 8 11 1 16 -17 4 -16 6 -31 3 -33z m-376 -12 c0 -29 -2
-31 -9 -15 -7 16 -9 14 -9 -14 -1 -40 -7 -38 -15 3 -3 16 -11 33 -18 38 -8 5
-3 6 13 3 25 -6 26 -4 22 22 -4 22 -2 25 6 13 6 -8 10 -31 10 -50z m221 -11
c0 -18 -27 8 -33 33 l-6 20 20 -20 c10 -12 19 -26 19 -33z m80 16 c0 -5 -5 -3
-10 5 -5 8 -10 20 -10 25 0 6 5 3 10 -5 5 -8 10 -19 10 -25z m-59 -2 c-12 -20
-14 -14 -5 12 4 9 9 14 11 11 3 -2 0 -13 -6 -23z m217 2 c-3 -3 -9 2 -12 12
-6 14 -5 15 5 6 7 -7 10 -15 7 -18z m-419 -70 c0 -5 -6 1 -14 15 -8 14 -14 34
-14 45 0 13 5 8 14 -15 7 -19 14 -39 14 -45z m131 35 c0 -13 -1 -13 -10 0 -5
8 -10 22 -10 30 0 13 1 13 10 0 5 -8 10 -22 10 -30z m264 14 c8 -21 8 -24 -3
-24 -5 0 -11 9 -14 20 -6 24 8 27 17 4z m-314 -21 c0 -19 -13 -9 -16 12 -1 8
2 13 7 9 5 -3 9 -12 9 -21z m87 1 c13 5 14 4 3 -9 -16 -19 -30 -10 -29 18 1
18 2 19 6 4 3 -12 10 -16 20 -13z m23 -34 c-17 -52 -25 -44 -9 9 7 23 14 39
17 36 3 -3 -1 -23 -8 -45z m47 -2 c-33 -71 -61 -175 -37 -138 7 11 10 12 10 2
0 -7 -6 -20 -12 -27 -26 -29 -35 -41 -41 -55 -4 -10 -6 -9 -6 6 -1 11 3 24 9
30 5 5 17 45 26 89 19 95 42 151 57 136 6 -6 5 -21 -6 -43z m206 15 c-11 -32
-15 -35 -24 -22 -13 20 -11 27 9 32 9 3 18 5 19 6 1 0 0 -7 -4 -16z m-173 -8
c0 -8 -7 -15 -15 -15 -13 0 -14 3 -3 15 16 18 18 18 18 0z m124 -1 c17 -16 21
-34 9 -34 -5 0 -13 11 -20 25 -13 29 -11 31 11 9z m-2861 -64 c9 -8 25 -15 35
-15 21 0 29 -34 10 -46 -7 -5 -25 -9 -40 -9 -16 0 -28 -5 -28 -10 0 -6 -10 -2
-22 10 -12 11 -30 20 -40 20 -25 0 -24 40 2 47 11 3 20 8 20 12 0 13 45 7 63
-9z m2787 0 c0 -5 -4 -10 -10 -10 -5 0 -10 5 -10 10 0 6 5 10 10 10 6 0 10 -4
10 -10z m-210 -60 c-16 -39 -29 -38 -28 1 1 19 4 26 9 17 6 -9 10 -8 15 5 3
10 9 16 12 13 2 -3 -1 -19 -8 -36z m-2453 14 c-3 -3 -12 -4 -19 -1 -8 3 -5 6
6 6 11 1 17 -2 13 -5z m3003 -204 c0 -5 -5 -10 -11 -10 -5 0 -7 5 -4 10 3 6 8
10 11 10 2 0 4 -4 4 -10z m-4453 -32 c-3 -7 -5 -2 -5 12 0 14 2 19 5 13 2 -7
2 -19 0 -25z m-275 5 c8 -10 18 -25 22 -33 5 -9 2 -8 -7 3 -21 26 -34 21 -63
-22 -14 -22 -32 -42 -40 -45 -16 -6 -64 -101 -64 -127 0 -21 -25 -70 -32 -63
-3 2 -4 -22 -1 -55 4 -69 24 -133 43 -139 10 -4 11 0 5 14 -5 11 -9 69 -9 129
0 100 3 115 27 161 15 29 27 58 27 65 0 7 3 10 6 6 3 -3 -8 -46 -25 -95 -41
-118 -40 -158 2 -210 44 -56 61 -55 71 2 4 21 2 26 -9 23 -17 -7 -25 14 -25
68 0 49 12 62 57 63 30 1 32 -1 22 -19 -10 -19 -9 -20 11 -9 24 13 55 6 45
-10 -4 -6 1 -7 11 -3 14 5 16 2 12 -19 -4 -19 -1 -25 8 -21 11 4 11 -3 -2 -32
-15 -38 -11 -94 8 -106 7 -4 6 -9 -1 -13 -6 -4 -11 -2 -11 4 0 6 -4 8 -10 5
-5 -3 -7 -19 -3 -35 4 -21 2 -30 -8 -30 -8 0 -5 -6 6 -14 11 -8 23 -12 27 -10
5 3 8 0 8 -5 0 -6 7 -11 15 -11 8 0 15 -4 15 -10 0 -5 -5 -10 -11 -10 -5 0 -7
-4 -4 -10 3 -5 -3 -10 -14 -10 -12 0 -21 -5 -21 -11 0 -6 7 -9 15 -5 8 3 15 1
15 -4 0 -6 -3 -10 -8 -10 -4 0 -20 -11 -35 -25 -26 -25 -27 -25 -24 -4 1 12
-4 24 -11 26 -9 4 -11 -3 -8 -21 3 -15 1 -24 -5 -21 -5 4 -7 11 -4 16 4 5 1 9
-5 9 -7 0 -10 7 -6 15 5 14 -30 42 -41 31 -8 -8 8 -27 18 -21 5 3 6 -1 3 -9
-5 -13 -10 -11 -26 9 -10 13 -23 24 -27 22 -9 -3 -111 118 -111 132 0 6 -9 16
-20 23 -11 7 -20 23 -20 35 0 12 -4 25 -10 28 -5 3 -10 1 -10 -5 0 -6 -4 -8
-10 -5 -28 17 3 179 56 294 41 90 92 141 138 141 19 0 39 -7 48 -17z m4718
-22 c0 -11 -4 -23 -10 -26 -6 -4 -10 5 -10 19 0 14 5 26 10 26 6 0 10 -9 10
-19z m34 -42 c-3 -5 -1 -16 6 -24 10 -13 5 -28 -26 -74 -9 -12 -29 30 -29 59
0 28 4 34 18 32 10 -2 17 3 17 13 0 9 5 13 10 10 6 -4 8 -11 4 -16z m15 -113
c-14 -15 -22 0 -13 26 7 22 7 22 14 3 4 -11 4 -24 -1 -29z m-592 -28 c-3 -8
-6 -5 -6 6 -1 11 2 17 5 13 3 -3 4 -12 1 -19z m-4067 -42 c0 -8 -4 -17 -9 -20
-10 -7 -23 19 -14 28 11 11 23 6 23 -8z m4047 -49 c2 -17 1 -19 -7 -7 -11 17
-14 47 -3 36 4 -3 8 -17 10 -29z m-3927 -25 c0 -15 -2 -15 -10 -2 -13 20 -13
33 0 25 6 -3 10 -14 10 -23z m4585 -12 c-5 -15 -2 -18 16 -15 17 3 20 0 16
-16 -5 -19 -4 -20 19 -4 30 19 31 12 2 -15 -17 -15 -18 -20 -6 -20 9 0 23 10
31 23 13 18 16 19 16 5 1 -9 -3 -20 -9 -23 -17 -11 -11 -28 8 -20 14 5 15 4 5
-6 -15 -15 -17 -33 -3 -24 6 3 10 1 10 -4 0 -10 -14 -15 -32 -12 -5 0 -8 -5
-8 -12 0 -7 -18 -20 -40 -30 -23 -9 -43 -24 -47 -32 -3 -9 -19 -23 -35 -31
-16 -8 -27 -18 -24 -22 4 -8 -14 -38 -26 -41 -11 -3 -86 -81 -79 -81 3 0 -3
-7 -13 -15 -11 -8 -17 -15 -14 -15 3 0 -11 -18 -31 -40 -20 -22 -60 -67 -90
-100 -29 -33 -57 -60 -62 -60 -20 0 237 415 282 456 10 9 19 23 19 31 0 7 3
13 8 13 4 0 16 14 27 30 11 17 28 33 38 36 9 3 17 10 17 15 0 6 -9 7 -20 4
-11 -3 -20 -4 -20 -1 0 13 13 36 22 36 5 0 6 -6 3 -12 -3 -7 0 -5 7 5 17 22
21 22 13 -3z m-4628 -152 c-3 -8 -6 -5 -6 6 -1 11 2 17 5 13 3 -3 4 -12 1 -19z
m4403 7 c-7 -9 -15 -13 -19 -10 -3 3 1 10 9 15 21 14 24 12 10 -5z m-346 -87
l2 -73 -13 45 c-12 39 -8 119 4 106 3 -3 6 -38 7 -78z m277 54 c-8 -16 -7 -21
4 -26 9 -3 15 1 15 10 0 8 4 13 9 9 5 -3 12 -1 16 5 10 17 27 11 21 -7 -3 -10
-2 -24 3 -32 9 -14 -41 -108 -66 -124 -7 -4 -13 -12 -13 -18 0 -17 -44 -104
-58 -114 -7 -6 -14 -17 -16 -25 -9 -44 -19 -69 -27 -64 -5 3 -9 -3 -9 -13 0
-10 -16 -36 -36 -58 -20 -22 -33 -32 -30 -22 50 152 127 380 135 394 5 10 19
39 32 66 12 26 24 45 26 43 3 -2 0 -13 -6 -24z m-118 -33 c5 -4 6 -13 2 -20
-6 -9 -10 -8 -16 7 -4 10 -8 26 -8 34 1 13 1 13 6 0 3 -8 10 -18 16 -21z m198
8 c-10 -9 -11 -8 -5 6 3 10 9 15 12 12 3 -3 0 -11 -7 -18z m-4431 -7 c0 -5 -5
-10 -11 -10 -5 0 -7 5 -4 10 3 6 8 10 11 10 2 0 4 -4 4 -10z m3327 -32 c-3 -8
-6 -5 -6 6 -1 11 2 17 5 13 3 -3 4 -12 1 -19z m833 -43 c0 -14 -2 -25 -4 -25
-2 0 -6 11 -8 25 -3 14 -1 25 3 25 5 0 9 -11 9 -25z m60 -5 c6 -11 7 -20 2
-20 -6 0 -12 9 -15 20 -3 11 -3 20 -1 20 2 0 8 -9 14 -20z m-4224 -37 c-6 -6
-36 9 -36 18 0 5 9 4 20 -3 10 -7 18 -14 16 -15z m-219 -15 c-3 -8 -6 -5 -6 6
-1 11 2 17 5 13 3 -3 4 -12 1 -19z m3507 16 c20 -8 21 -21 1 -21 -8 0 -12 4
-9 8 2 4 -2 10 -8 12 -7 3 -10 6 -6 6 3 1 13 -2 22 -5z m-3304 -24 c6 -11 7
-20 1 -20 -5 0 -11 7 -15 15 -3 8 -11 15 -18 15 -9 0 -9 -3 2 -11 12 -9 12
-10 1 -7 -23 7 -25 28 -2 28 11 0 25 -9 31 -20z m3353 5 c-3 -9 -8 -14 -10
-11 -3 3 -2 9 2 15 9 16 15 13 8 -4z m522 -4 c3 -5 1 -12 -5 -16 -5 -3 -10 1
-10 9 0 18 6 21 15 7z m-4040 -11 c3 -5 2 -10 -4 -10 -5 0 -13 5 -16 10 -3 6
-2 10 4 10 5 0 13 -4 16 -10z m4352 -42 c-3 -8 -6 -5 -6 6 -1 11 2 17 5 13 3
-3 4 -12 1 -19z m-4387 2 c0 -5 -5 -10 -11 -10 -5 0 -7 5 -4 10 3 6 8 10 11
10 2 0 4 -4 4 -10z m4090 -25 c0 -5 -5 -3 -10 5 -5 8 -10 20 -10 25 0 6 5 3
10 -5 5 -8 10 -19 10 -25z m-200 15 c0 -5 -5 -10 -11 -10 -5 0 -7 5 -4 10 3 6
8 10 11 10 2 0 4 -4 4 -10z m12 -55 c3 -13 1 -22 -3 -19 -9 5 -13 44 -5 44 2
0 6 -11 8 -25z m-165 -22 c-3 -10 -5 -4 -5 12 0 17 2 24 5 18 2 -7 2 -21 0
-30z m83 27 c0 -5 -4 -10 -10 -10 -5 0 -10 5 -10 10 0 6 5 10 10 10 6 0 10 -4
10 -10z m60 -10 c0 -5 -2 -10 -4 -10 -3 0 -8 5 -11 10 -3 6 -1 10 4 10 6 0 11
-4 11 -10z m-4362 -14 c-7 -8 -15 -12 -17 -11 -5 6 10 25 20 25 5 0 4 -6 -3
-14z m4277 4 c3 -6 -1 -7 -9 -4 -18 7 -21 14 -7 14 6 0 13 -4 16 -10z m-103
-107 c-5 -7 -8 5 -9 30 -1 38 0 39 8 13 4 -16 5 -35 1 -43z m-4075 19 c0 -7
-7 -12 -15 -10 -22 4 -25 24 -4 24 10 0 19 -6 19 -14z m6353 -193 c0 -11 -21
-11 -39 0 -9 6 -5 9 13 9 14 0 26 -4 26 -9z m20 -19 c0 -5 -5 -10 -11 -10 -5
0 -7 5 -4 10 3 6 8 10 11 10 2 0 4 -4 4 -10z m295 -148 c-3 -3 -11 0 -18 7 -9
10 -8 11 6 5 10 -3 15 -9 12 -12z m-8375 -46 c0 -2 -8 -10 -17 -17 -16 -13
-17 -12 -4 4 13 16 21 21 21 13z m8470 -6 c8 -5 11 -10 5 -10 -5 0 -17 5 -25
10 -8 5 -10 10 -5 10 6 0 17 -5 25 -10z m70 -46 c0 -2 -7 -4 -15 -4 -8 0 -15
4 -15 10 0 5 7 7 15 4 8 -4 15 -8 15 -10z m-8610 3 c0 -2 -10 -12 -22 -23
l-23 -19 19 23 c18 21 26 27 26 19z m330 -22 c0 -2 -10 -9 -22 -15 -22 -11
-22 -10 -4 4 21 17 26 19 26 11z m-551 -38 c-2 -2 -20 -14 -39 -26 l-35 -23
30 26 c17 14 34 26 39 26 5 0 7 -1 5 -3z m441 -31 c0 -2 -7 -7 -16 -10 -8 -3
-12 -2 -9 4 6 10 25 14 25 6z m8400 -838 c0 -13 3 -33 6 -45 5 -19 1 -23 -30
-28 -38 -8 -43 -21 -30 -72 5 -18 11 -21 35 -16 24 5 29 2 29 -14 0 -11 3 -35
6 -52 6 -30 5 -31 -26 -31 -31 0 -32 -1 -26 -31 3 -17 6 -42 6 -54 0 -21 4
-23 39 -18 34 5 39 3 44 -18 16 -58 11 -64 -59 -81 -47 -11 -67 -12 -69 -4 -6
17 -43 343 -47 406 l-3 55 50 11 c71 17 75 17 75 -8z m-156 -24 c3 -9 6 -31 6
-49 0 -26 -5 -35 -23 -42 l-23 -8 12 -125 c6 -69 14 -153 18 -186 l8 -61 -29
-6 c-15 -3 -31 -2 -34 1 -3 4 -12 75 -18 157 -18 219 -17 215 -52 205 -33 -10
-34 -9 -43 51 l-6 35 82 21 c46 11 86 21 89 22 4 1 10 -6 13 -15z m-260 -66
c3 -7 7 -27 10 -45 5 -29 2 -32 -24 -38 -25 -5 -30 -12 -30 -35 0 -44 10 -60
36 -60 22 0 24 -4 24 -46 0 -37 -4 -47 -20 -51 -17 -5 -20 -14 -20 -58 l0 -54
29 9 c37 10 41 6 41 -41 0 -35 -3 -39 -37 -48 -72 -20 -69 -25 -76 122 -4 72
-14 173 -22 222 -8 50 -15 95 -15 101 0 6 19 16 43 21 58 14 57 14 61 1z
m-4274 -23 c11 -13 8 -15 -15 -15 -23 0 -26 2 -15 15 7 8 14 15 15 15 1 0 8
-7 15 -15z m4150 -192 c11 -100 20 -184 20 -187 0 -3 7 -3 15 0 12 5 15 -3 15
-39 0 -42 -2 -46 -31 -56 -18 -6 -33 -11 -34 -11 -1 0 -5 42 -9 93 -3 50 -15
153 -26 227 -11 74 -20 140 -20 147 0 13 31 23 42 14 4 -4 17 -88 28 -188z
m-4137 160 c-7 -2 -19 -2 -25 0 -7 3 -2 5 12 5 14 0 19 -2 13 -5z m4030 -8
c26 -25 39 -84 35 -149 -4 -43 -1 -68 10 -84 19 -29 27 -148 13 -185 -10 -26
-37 -43 -97 -61 -21 -6 -22 -3 -28 106 -4 62 -14 169 -22 238 -7 69 -14 128
-14 132 0 19 84 22 103 3z m-184 -95 c33 -101 100 -384 92 -391 -3 -4 -18 -9
-33 -13 -25 -6 -28 -3 -34 29 -6 36 -13 39 -50 29 -16 -4 -23 -16 -28 -44 -5
-31 -12 -40 -36 -48 -16 -6 -30 -7 -30 -3 0 4 7 57 16 117 10 69 14 158 12
244 l-3 134 25 7 c14 4 30 7 36 8 6 1 21 -31 33 -69z m-135 -21 c6 -34 4 -38
-24 -48 -25 -8 -30 -14 -25 -33 11 -47 25 -205 25 -280 0 -68 -3 -79 -22 -92
-12 -9 -25 -16 -29 -16 -4 0 -10 37 -13 83 -10 117 -26 269 -32 289 -4 14 -10
15 -35 6 -16 -6 -32 -8 -34 -6 -2 2 -5 24 -7 48 l-3 45 90 30 c56 19 92 26 96
20 4 -5 9 -26 13 -46z m-8056 -69 c19 0 22 -5 22 -45 0 -41 -2 -45 -24 -45
-13 0 -27 -7 -30 -16 -3 -9 -6 -90 -6 -180 0 -90 -3 -164 -7 -163 -5 0 -17 4
-28 8 -19 8 -20 16 -16 185 3 174 3 176 -18 176 -18 0 -21 6 -21 46 l0 47 53
-7 c28 -3 62 -6 75 -6z m164 -32 c12 -10 19 -58 32 -203 9 -104 16 -204 16
-221 0 -30 -1 -31 -32 -25 -29 6 -33 11 -36 44 -3 35 -5 37 -38 37 -30 0 -35
-4 -41 -31 -5 -25 -10 -30 -32 -27 -24 3 -26 7 -24 46 2 53 66 358 80 385 7
12 58 8 75 -5z m275 -33 c68 -28 85 -144 28 -192 -24 -21 -25 -25 -11 -39 40
-39 33 -132 -13 -177 -27 -28 -36 -30 -89 -29 -89 2 -111 13 -106 54 2 18 10
103 19 188 9 85 18 169 20 186 l5 31 58 -5 c31 -2 71 -10 89 -17z m201 -23 c9
-7 7 -44 -11 -180 l-23 -171 45 -6 c72 -10 71 -9 64 -62 -3 -26 -6 -49 -7 -50
-3 -4 -188 26 -193 31 -5 5 44 408 52 434 5 13 53 16 73 4z m257 -37 c90 -11
95 -14 95 -49 0 -49 -9 -55 -65 -46 -27 4 -51 7 -51 6 -1 0 -5 -19 -8 -42 l-7
-41 41 -6 c23 -3 44 -7 46 -10 3 -2 2 -23 -2 -47 l-7 -42 -43 5 -43 4 -6 -40
c-9 -48 2 -57 64 -57 l44 0 -6 -45 c-2 -26 -6 -48 -8 -50 -5 -4 -187 20 -193
26 -2 2 9 99 25 214 15 116 28 216 29 223 0 8 9 11 23 8 12 -3 45 -8 72 -11z
m394 -60 c52 -8 96 -16 97 -18 1 -1 0 -22 -3 -46 l-6 -43 -37 5 -38 5 -10 -57
c-6 -31 -18 -109 -28 -175 l-17 -118 -35 6 c-19 3 -37 8 -40 11 -3 3 5 76 18
164 13 87 20 166 17 174 -3 9 -18 17 -34 19 -25 3 -28 6 -25 38 3 50 8 59 29
55 10 -3 60 -11 112 -20z m234 -36 c40 -7 76 -15 81 -20 5 -4 5 -24 2 -44 l-7
-37 -53 6 -54 7 -7 -37 c-7 -42 3 -54 48 -54 23 0 27 -4 27 -27 0 -16 -3 -38
-6 -50 -6 -20 -11 -22 -49 -16 l-43 5 -4 -43 c-3 -24 -4 -45 -3 -47 1 -1 26
-5 55 -9 l52 -6 -5 -39 c-3 -22 -8 -42 -10 -45 -3 -3 -46 1 -96 8 -73 10 -91
16 -91 29 0 28 60 412 66 421 7 11 11 11 97 -2z m189 -36 c24 -5 27 -11 33
-62 4 -31 12 -83 19 -116 l13 -60 12 75 c26 154 22 145 67 142 21 -2 40 -5 42
-6 6 -6 -73 -434 -81 -443 -4 -3 -22 -2 -41 1 -33 6 -34 9 -45 69 -6 35 -14
92 -18 127 -8 76 -12 64 -33 -77 l-14 -93 -30 0 c-59 0 -58 -2 -21 234 19 120
35 220 35 223 0 3 8 2 18 -2 9 -3 29 -9 44 -12z m3908 -7 c0 -1 -22 -17 -50
-34 -27 -17 -50 -35 -50 -40 0 -9 39 -27 121 -56 86 -31 133 -70 197 -169 58
-87 79 -129 97 -186 7 -24 7 -24 -19 3 -23 26 -31 28 -73 23 -33 -3 -51 -1
-61 9 -19 19 -36 13 -40 -15 -2 -15 -9 -21 -18 -17 -8 3 -14 -1 -14 -8 0 -22
-90 -33 -159 -20 -18 4 -30 12 -28 18 3 6 -2 19 -11 28 -19 22 -24 70 -9 80 6
4 8 10 4 14 -3 4 -14 1 -24 -7 -15 -12 -16 -12 -10 3 3 9 0 22 -8 28 -8 6 -17
25 -20 41 -6 27 -25 42 -25 19 0 -5 -4 -10 -10 -10 -5 0 -9 3 -9 8 4 26 -5 30
-63 30 -65 0 -125 19 -148 47 -18 21 -7 29 22 15 19 -9 20 -9 7 2 -8 7 -30 33
-47 57 -30 41 -32 42 -32 18 0 -26 -19 -39 -21 -14 0 7 -3 6 -6 -3 -4 -8 -13
-21 -20 -29 -12 -12 -18 -11 -41 6 -15 11 -44 26 -64 33 -21 8 -38 17 -38 21
0 8 62 23 145 35 27 4 62 16 77 27 19 14 36 18 60 14 18 -3 78 1 133 9 139 19
255 28 255 20z m-3589 -45 c4 -3 14 -59 24 -124 9 -65 19 -117 20 -115 2 2 11
46 20 98 22 132 21 130 58 130 55 0 57 -6 38 -105 -10 -50 -29 -152 -42 -227
l-23 -138 -41 7 c-22 3 -41 6 -42 7 -1 1 -11 55 -22 120 -11 65 -22 120 -24
123 -3 2 -13 -49 -23 -113 l-18 -116 -40 6 c-22 4 -42 8 -44 10 -6 6 57 379
74 439 5 14 12 16 42 11 20 -3 40 -9 43 -13z m6953 -38 c9 -32 58 -464 53
-469 -2 -2 -19 -9 -36 -14 l-31 -9 -60 117 c-51 99 -59 111 -55 77 20 -164 24
-210 17 -216 -4 -3 -21 -9 -39 -12 -38 -7 -35 -18 -58 248 -9 99 -18 194 -21
211 -5 27 -2 32 18 37 12 4 28 7 33 7 6 0 37 -54 70 -120 32 -65 60 -118 61
-117 2 1 -4 50 -11 107 -21 152 -20 158 13 163 15 2 30 5 34 6 4 0 9 -7 12
-16z m-6650 -38 c0 -17 -16 -119 -35 -228 l-34 -199 -39 6 c-22 4 -42 9 -46
11 -5 3 27 208 65 421 5 29 7 30 48 25 39 -6 42 -8 41 -36z m191 -9 c39 -17
75 -68 75 -108 0 -25 -4 -28 -32 -28 -23 0 -38 8 -53 26 -16 20 -26 25 -43 20
-32 -10 -27 -27 21 -88 65 -79 80 -113 74 -167 -12 -108 -143 -147 -224 -66
-26 26 -33 41 -33 73 l0 41 38 -6 c20 -3 39 -10 41 -16 8 -21 43 -48 58 -45 9
2 21 10 26 20 9 13 3 26 -29 63 -71 85 -87 113 -88 158 -2 109 72 163 169 123z
m6179 -58 c3 -29 10 -129 16 -223 6 -93 13 -180 15 -192 4 -18 0 -24 -20 -29
-50 -12 -50 -11 -63 240 -7 130 -10 241 -7 246 3 6 17 10 29 10 21 0 24 -6 30
-52z m-121 -178 c49 -253 53 -280 36 -291 -22 -14 -39 -10 -39 9 0 32 -15 45
-39 33 -16 -9 -21 -21 -21 -51 0 -21 -4 -41 -9 -44 -12 -8 -20 40 -16 99 2 28
6 135 10 240 4 128 10 192 18 197 7 4 14 4 18 0 3 -4 22 -90 42 -192z m-3446
168 c-3 -8 -6 -5 -6 6 -1 11 2 17 5 13 3 -3 4 -12 1 -19z m-127 -33 c0 -8 -4
-15 -9 -15 -13 0 -22 16 -14 24 11 11 23 6 23 -9z m3432 -35 c27 -37 33 -114
14 -189 -16 -62 -16 -68 6 -164 22 -97 22 -99 3 -113 -10 -8 -20 -12 -22 -10
-3 2 -11 30 -19 63 -35 135 -34 132 -50 126 -14 -5 -15 -20 -9 -108 l7 -103
-36 -4 c-21 -2 -39 -2 -40 1 -2 3 -4 119 -5 257 l-2 251 33 11 c53 17 98 10
120 -18z m-182 -54 c0 -53 0 -54 -33 -60 l-34 -6 -7 -202 c-4 -111 -8 -203 -9
-204 -1 0 -17 -4 -36 -8 l-34 -6 6 134 c3 74 3 165 0 204 -6 70 -6 70 -31 61
-14 -5 -27 -8 -29 -6 -2 3 0 26 4 53 7 42 12 49 38 56 29 8 143 35 158 37 4 1
7 -23 7 -53z m-3229 -23 c-10 -36 -4 -53 20 -53 10 0 19 -5 19 -10 0 -6 11
-15 24 -22 14 -6 32 -25 40 -42 14 -28 14 -32 -2 -43 -27 -20 -61 -47 -76 -60
-11 -10 -15 -6 -19 25 -4 29 0 41 15 55 15 13 17 17 5 17 -8 0 -22 -10 -31
-22 -15 -23 -16 -23 -32 -3 -20 26 -15 122 9 159 23 34 38 33 28 -1z m-4824
-72 c29 -4 55 -10 57 -12 3 -2 2 -24 -1 -48 -6 -42 -7 -43 -38 -38 l-32 5 -7
-90 c-3 -50 -6 -133 -6 -185 0 -98 -1 -99 -49 -86 l-24 6 7 182 7 183 -30 10
c-23 8 -31 17 -31 36 0 50 9 59 54 51 23 -4 65 -10 93 -14z m243 -49 c49 -24
72 -72 67 -145 -2 -44 -9 -63 -29 -85 l-26 -27 23 -75 c12 -41 26 -90 30 -108
l7 -33 -39 6 c-21 4 -42 13 -48 20 -5 6 -19 51 -29 99 -15 68 -22 86 -35 84
-13 -3 -17 -21 -21 -93 l-5 -90 -30 3 c-16 2 -34 7 -38 11 -7 7 5 281 19 410
l6 53 56 -7 c32 -3 73 -14 92 -23z m316 -38 c16 -4 23 -16 27 -42 17 -113 46
-325 52 -379 6 -62 6 -63 -19 -63 -14 0 -36 4 -50 10 -21 8 -26 16 -26 45 0
27 -4 35 -17 35 -10 0 -34 3 -54 6 -35 6 -37 5 -44 -26 -8 -37 -19 -43 -60
-32 -22 7 -29 14 -27 28 1 10 30 110 64 222 l61 202 36 0 c20 0 46 -3 57 -6z
m242 -33 c11 -7 11 -31 2 -132 -17 -198 -31 -334 -34 -337 -2 -1 -22 0 -46 4
l-42 7 6 66 c4 36 11 116 17 176 20 235 17 225 53 225 17 0 37 -4 44 -9z
m4635 2 c-7 -2 -21 -2 -30 0 -10 3 -4 5 12 5 17 0 24 -2 18 -5z m-4516 -19
c29 -6 30 -9 59 -135 16 -71 32 -129 36 -129 5 0 8 19 9 43 0 23 6 76 12 117
l12 75 40 -3 c22 -2 42 -6 44 -8 2 -2 -8 -110 -24 -239 l-28 -235 -36 6 c-20
4 -39 9 -42 13 -3 3 -19 65 -35 136 l-29 130 -8 -75 c-20 -199 -15 -181 -45
-174 -15 4 -31 10 -35 14 -8 7 -3 106 20 403 3 37 9 67 13 67 4 0 21 -3 37 -6z
m3923 -92 c0 -7 11 -17 25 -22 30 -12 31 -14 4 -51 -26 -37 -37 -37 -41 4 l-4
32 -11 -25 c-12 -25 -12 -25 -12 8 -1 18 -6 41 -12 51 -7 10 -9 30 -5 46 l7
29 24 -30 c13 -16 24 -35 25 -42z m870 53 c0 -8 -7 -15 -15 -15 -26 0 -18 20
13 29 1 1 2 -6 2 -14z m-4375 -38 l80 -12 -3 -40 c-2 -22 -7 -43 -10 -47 -4
-3 -33 -2 -65 4 -32 6 -60 9 -61 7 -2 -2 -6 -23 -9 -46 l-5 -42 45 -7 c50 -7
56 -15 45 -64 -6 -26 -13 -35 -28 -33 -10 1 -32 3 -49 5 -29 3 -30 1 -35 -44
-6 -52 -13 -47 83 -64 35 -6 37 -8 37 -43 0 -59 -4 -61 -119 -40 -57 10 -105
20 -106 21 -3 4 55 439 60 455 3 8 15 11 32 7 15 -3 64 -11 108 -17z m273 -49
c114 -28 150 -162 66 -246 l-34 -34 26 -100 c14 -55 23 -102 20 -105 -2 -2
-24 -1 -48 4 l-43 8 -24 98 c-18 77 -27 97 -41 97 -19 0 -24 -16 -36 -119 l-7
-63 -41 6 c-22 4 -43 9 -45 12 -7 6 55 440 65 455 7 11 64 6 142 -13z m377
-52 c37 -16 68 -64 63 -99 -5 -33 -72 -33 -93 -1 -27 41 -92 23 -83 -22 2 -10
29 -38 62 -63 32 -25 64 -57 72 -71 45 -83 -28 -200 -126 -200 -91 0 -150 42
-150 106 0 33 1 34 43 34 34 0 44 -4 52 -22 12 -26 67 -37 91 -17 27 22 14 47
-51 98 -35 28 -72 65 -81 83 -30 58 -2 145 57 175 32 17 102 16 144 -1z m2872
-106 c32 0 29 -26 -6 -59 l-29 -28 -10 37 c-5 20 -7 52 -4 71 l6 34 10 -27 c7
-20 17 -28 33 -28z m-361 -105 c156 8 153 9 274 -76 30 -21 105 -68 165 -104
61 -37 119 -74 130 -84 43 -39 59 -42 282 -39 120 2 228 -1 241 -5 17 -7 22
-16 22 -45 0 -27 8 -45 33 -70 25 -27 27 -32 10 -23 -32 16 -298 8 -298 -10 0
-14 48 -46 292 -193 121 -73 133 -83 133 -113 0 -14 6 -31 14 -38 11 -12 13
-7 10 33 -4 46 -4 46 10 18 l13 -29 7 28 7 29 25 -41 c24 -41 54 -63 54 -40 0
7 7 3 15 -7 8 -11 15 -15 15 -9 0 7 -5 15 -10 18 -6 4 -7 12 -4 18 4 7 4 9 -1
5 -4 -4 -14 -3 -22 3 -15 13 -18 63 -3 54 6 -3 10 0 10 7 1 9 5 7 14 -4 7 -10
17 -18 21 -18 4 0 2 7 -5 15 -6 8 -9 19 -5 26 4 6 1 15 -6 20 -10 6 -7 8 11 7
14 -2 28 -11 32 -23 4 -11 5 4 3 33 -3 31 -1 51 4 47 5 -3 12 1 15 7 3 7 2 0
-1 -17 -6 -27 -5 -29 11 -16 10 9 16 25 14 41 -1 15 5 34 14 43 15 16 17 16
21 -1 3 -9 5 -4 6 13 1 24 3 27 12 15 7 -10 12 -11 15 -4 3 6 16 9 29 6 17 -3
27 1 31 12 3 9 10 13 15 10 5 -3 9 3 9 13 0 15 2 15 9 4 8 -12 13 -12 24 -3
19 16 177 26 177 11 0 -6 7 -9 14 -6 11 4 13 1 9 -10 -5 -12 -1 -14 18 -8 13
4 26 7 29 8 12 1 46 -18 56 -31 7 -9 16 -12 24 -7 10 6 12 0 8 -24 -2 -17 -1
-31 4 -31 4 0 8 -9 8 -20 0 -18 3 -19 22 -9 36 19 50 36 35 42 -9 3 -7 10 6
23 18 19 18 19 11 0 -6 -14 -4 -17 6 -11 10 6 12 2 8 -19 -4 -17 -1 -25 6 -23
6 3 10 10 8 16 -1 7 2 10 8 6 7 -4 7 -13 -1 -27 -8 -15 -8 -19 0 -14 7 5 11
-2 11 -18 0 -28 -9 -33 -27 -15 -8 8 -13 8 -17 0 -4 -6 0 -11 9 -11 12 0 15
-5 10 -17 -7 -16 -10 -34 -14 -70 -1 -8 -16 -13 -41 -13 -23 0 -40 -5 -40 -11
0 -8 -5 -8 -15 1 -12 10 -15 10 -15 -4 0 -19 46 -22 54 -3 3 6 3 0 0 -15 -5
-22 -2 -28 11 -28 12 0 16 6 12 20 -3 13 0 20 8 20 7 0 22 3 32 6 13 4 14 3 5
-4 -8 -5 -13 -12 -13 -16 2 -18 -13 -36 -29 -36 -25 0 -35 -17 -13 -23 14 -4
13 -5 -4 -6 -16 -1 -21 -6 -17 -16 4 -8 1 -15 -6 -15 -6 0 -8 5 -5 10 3 6 1
10 -5 10 -6 0 -8 5 -4 12 4 7 3 8 -5 4 -6 -4 -8 -12 -5 -18 5 -7 -2 -9 -20 -6
-17 4 -26 1 -26 -8 0 -7 6 -11 14 -8 21 8 28 -12 11 -29 -20 -21 -19 -31 3
-22 13 5 14 3 5 -6 -9 -9 -19 -8 -42 4 -17 9 -29 12 -26 7 3 -5 0 -12 -6 -15
-5 -4 -8 -13 -5 -21 4 -11 -1 -13 -19 -10 -14 3 -25 0 -25 -5 0 -5 8 -9 18
-10 72 -4 96 -10 114 -26 18 -16 21 -16 31 -2 7 9 18 14 25 11 29 -9 -37 -31
-68 -22 -16 5 -30 6 -30 3 0 -3 -7 1 -17 8 -13 11 -17 11 -20 1 -3 -6 -8 -10
-12 -8 -4 3 -13 -4 -19 -15 -12 -19 -12 -19 10 -5 21 13 25 13 47 -3 18 -14
21 -20 11 -26 -9 -6 -11 -4 -5 5 6 9 2 10 -15 5 -15 -5 -20 -4 -16 4 4 6 2 11
-3 11 -6 0 -11 -4 -11 -9 0 -15 -49 -22 -73 -10 -15 8 -13 3 8 -15 20 -17 25
-26 15 -27 -8 0 -4 -5 10 -9 l25 -8 -25 -1 c-22 -1 -23 -3 -7 -12 10 -6 25 -8
33 -5 8 3 14 0 14 -6 0 -14 -61 -2 -72 15 -5 8 -8 7 -8 -5 0 -14 -6 -16 -32
-12 -25 4 -29 3 -18 -5 8 -6 12 -11 7 -11 -10 0 23 -50 34 -50 5 0 9 5 9 11 0
5 -4 8 -8 5 -4 -2 -13 4 -20 15 -14 22 -2 25 28 7 16 -10 22 -10 28 -1 4 6 33
14 66 17 45 5 64 3 84 -10 15 -10 21 -11 17 -3 -6 9 -3 11 9 6 10 -4 24 -7 32
-7 9 0 12 -4 9 -10 -3 -5 -15 -10 -26 -10 -10 0 -19 -4 -19 -10 0 -5 7 -10 15
-10 21 0 19 -13 -6 -29 -17 -10 -23 -10 -29 -1 -5 8 -10 9 -14 1 -4 -6 -21 -8
-39 -6 -18 3 -26 3 -19 -1 17 -8 15 -31 -3 -38 -13 -5 -14 -10 -4 -27 10 -19
9 -21 -5 -16 -8 3 -18 2 -21 -3 -6 -9 8 -14 28 -11 5 1 6 -3 2 -9 -4 -6 -16
-8 -27 -4 -14 4 -18 2 -14 -5 4 -6 19 -11 34 -11 21 0 24 -2 12 -10 -12 -8
-12 -10 5 -10 20 -1 20 -1 1 -15 -10 -8 -23 -12 -28 -9 -5 3 -8 -2 -6 -12 2
-15 -3 -19 -27 -19 -19 0 -34 -7 -42 -20 -12 -19 -12 -19 -13 -1 0 19 -1 19
-20 -2 -22 -24 -60 -30 -60 -10 0 9 -3 9 -12 0 -7 -7 -16 -8 -22 -3 -19 16
-80 17 -92 2 -13 -16 -49 -7 -38 10 4 7 -1 9 -12 7 -11 -2 -18 -8 -17 -14 0
-5 3 -18 5 -29 2 -14 -2 -20 -15 -18 -12 0 -16 -4 -13 -13 7 -17 -10 -19 -18
-1 -5 9 -7 9 -12 -1 -5 -10 -9 -10 -21 -1 -11 10 -16 10 -22 0 -6 -10 -10 -9
-15 4 -4 11 -12 14 -26 10 -11 -4 -20 -2 -20 4 0 6 -6 11 -14 11 -22 0 -26 14
-16 49 7 24 6 31 -3 28 -7 -2 -11 -13 -9 -23 2 -18 2 -18 -11 -2 -8 10 -17 15
-20 11 -11 -10 -8 10 3 27 8 13 10 12 10 -4 0 -14 3 -16 13 -8 7 6 23 9 35 5
16 -4 22 -1 22 11 0 10 -4 15 -9 12 -5 -4 -7 3 -4 14 7 27 23 36 34 19 7 -11
9 -11 9 3 0 9 -10 19 -22 21 l-23 4 23 8 c17 6 21 13 17 29 -6 20 -5 20 9 3
14 -19 33 -7 21 13 -3 6 6 15 22 21 22 8 24 12 13 19 -13 8 -12 10 3 10 9 0
17 8 17 18 0 9 4 13 8 7 10 -14 62 -18 62 -5 0 5 -8 10 -17 10 -15 0 -16 2 -3
9 8 6 18 7 22 5 4 -3 8 4 8 14 0 11 -8 23 -17 26 -18 7 -33 -9 -33 -36 0 -10
-4 -18 -10 -18 -5 0 -10 9 -10 20 0 11 -4 20 -8 20 -5 0 -8 -10 -8 -21 1 -27
-19 -36 -28 -12 -4 10 -2 19 3 21 16 5 13 22 -4 22 -8 0 -15 6 -16 13 0 6 -5
1 -10 -12 -7 -18 -6 -27 3 -33 10 -7 9 -9 -2 -5 -8 2 -15 15 -15 28 0 26 -27
38 -48 20 -7 -5 -22 -8 -32 -6 -11 2 -24 4 -29 4 -4 1 -6 8 -2 16 3 8 1 15 -4
15 -6 0 -10 -9 -10 -20 0 -11 -5 -20 -11 -20 -13 0 -8 -52 6 -62 6 -5 6 -8 -2
-8 -6 0 -15 5 -18 10 -4 6 -11 7 -17 4 -7 -4 -8 -2 -4 4 4 7 1 12 -8 12 -9 0
-16 -7 -16 -15 0 -8 5 -15 10 -15 6 0 10 -5 10 -12 0 -6 -9 -3 -20 7 -11 10
-18 25 -15 34 2 9 0 23 -5 31 -8 12 -10 12 -10 1 0 -10 -3 -11 -14 -2 -12 10
-13 8 -9 -9 4 -16 8 -18 20 -8 12 10 13 7 7 -16 -4 -19 -1 -33 11 -46 11 -12
13 -20 7 -20 -7 0 -12 -9 -12 -20 0 -11 -7 -20 -15 -20 -8 0 -15 -6 -16 -12
-1 -7 -5 -2 -9 12 -8 24 -8 23 -9 -7 -1 -18 -5 -33 -11 -33 -5 0 -10 -12 -10
-26 0 -14 -4 -23 -9 -20 -15 10 -38 -4 -36 -22 2 -20 27 -62 37 -62 4 0 5 6 2
14 -3 8 0 17 7 22 9 5 10 2 6 -9 -5 -14 -2 -16 21 -11 l27 6 -29 -16 c-36 -20
-56 -20 -56 -1 0 18 -20 20 -21 3 0 -7 -4 -4 -8 6 -7 18 -9 16 -19 -13 -7 -18
-9 -37 -6 -42 3 -5 -4 -9 -15 -9 -11 0 -23 5 -27 12 -4 7 -3 8 4 4 8 -4 12 0
12 12 0 33 -30 22 -31 -12 0 -17 -3 -25 -6 -18 -4 10 -8 10 -21 0 -14 -11 -14
-9 0 8 10 11 21 42 25 69 3 27 12 60 19 73 l12 24 5 -23 4 -24 2 23 c0 12 -6
25 -14 28 -12 5 -13 10 -4 20 6 8 8 14 3 15 -5 0 1 4 14 9 22 9 31 40 11 40
-5 0 -7 -4 -4 -10 3 -5 1 -10 -4 -10 -13 0 -13 3 -5 24 3 9 12 16 20 16 8 0
14 5 14 11 0 6 -7 8 -16 5 -8 -3 -13 -2 -11 2 2 4 11 24 21 45 9 20 21 37 26
37 5 0 7 7 4 15 -4 8 -1 15 6 15 7 0 10 6 7 14 -3 8 3 32 13 53 10 22 22 53
26 69 4 16 11 35 17 42 5 6 7 12 3 12 -3 0 3 22 14 50 13 33 16 51 9 56 -6 4
-15 1 -19 -5 -5 -9 -15 -8 -37 6 -17 10 -64 38 -104 62 -41 24 -90 53 -109 66
-19 12 -57 35 -83 51 -26 16 -80 50 -120 75 -219 141 -198 130 -252 125 -27
-3 -162 -8 -300 -11 -369 -9 -594 -20 -622 -30 -7 -2 -13 0 -13 4 0 5 -7 11
-14 14 -10 4 -13 1 -9 -9 3 -7 2 -14 -1 -14 -8 0 -35 66 -45 110 -5 19 -34
114 -65 212 -61 192 -64 207 -41 188 12 -10 51 -11 168 -6 84 4 156 11 160 15
4 4 31 4 60 -1 29 -5 115 -6 193 -3z m2100 -570 c2 -21 -1 -23 -17 -14 -24 12
-25 39 -1 39 11 0 17 -8 18 -25z m-2549 -11 c-3 -3 -12 -4 -19 -1 -8 3 -5 6 6
6 11 1 17 -2 13 -5z m2659 -39 c9 -9 11 -15 4 -15 -6 0 -8 -4 -5 -10 3 -5 2
-10 -3 -10 -5 0 -12 11 -14 25 -6 29 -2 31 18 10z m7 -93 c-5 -21 -33 -32 -33
-13 0 5 -6 11 -12 14 -7 2 -3 2 10 0 14 -2 25 2 28 12 9 23 14 13 7 -13z
m-3021 -12 c-2 -16 -6 -30 -8 -30 -2 0 -4 14 -4 30 0 17 4 30 8 30 5 0 7 -13
4 -30z m2978 -25 c0 -8 -2 -15 -4 -15 -2 0 -6 7 -10 15 -3 8 -1 15 4 15 6 0
10 -7 10 -15z m-7103 -47 c-3 -7 -5 -2 -5 12 0 14 2 19 5 13 2 -7 2 -19 0 -25z
m4130 0 c-3 -7 -5 -2 -5 12 0 14 2 19 5 13 2 -7 2 -19 0 -25z m-799 -107 l-1
-46 -4 42 c-2 23 -10 46 -18 53 -11 9 -14 -7 -21 -87 -4 -54 -8 -141 -8 -193
0 -75 -1 -85 -7 -50 -7 43 -4 166 7 297 l6 62 24 -15 c20 -14 24 -24 22 -63z
m3772 59 c0 -11 -7 -20 -15 -20 -13 0 -13 3 -3 20 7 11 14 20 15 20 2 0 3 -9
3 -20z m77 -12 c-3 -8 -6 -5 -6 6 -1 11 2 17 5 13 3 -3 4 -12 1 -19z m-3030
-10 c-3 -8 -6 -5 -6 6 -1 11 2 17 5 13 3 -3 4 -12 1 -19z m-437 -15 c0 -13 -4
-23 -10 -23 -5 0 -7 6 -4 14 4 12 -2 13 -32 6 -21 -5 -40 -9 -43 -8 -36 3 -61
-28 -61 -77 0 -16 2 -17 10 -5 5 8 12 11 17 7 9 -9 -17 -28 -29 -21 -4 3 -8
16 -8 30 0 13 -4 24 -10 24 -5 0 -10 -4 -10 -10 0 -14 -28 -1 -34 17 -4 9 -1
23 6 32 11 14 11 14 -4 3 -9 -7 -18 -9 -20 -5 -3 4 -3 2 -2 -5 2 -7 -4 -21
-13 -32 -17 -19 -17 -19 -30 12 -7 17 -11 33 -8 36 3 3 5 1 5 -5 0 -5 7 -10
15 -10 9 0 14 6 11 14 -4 9 6 13 37 14 23 1 55 3 71 5 16 2 36 -1 45 -5 9 -5
19 -4 26 3 6 6 26 11 43 11 27 0 32 -4 32 -22z m25 -3 c1 -10 -2 -17 -6 -14
-4 2 -7 13 -6 24 2 23 10 17 12 -10z m3315 -5 c0 -8 -2 -15 -4 -15 -2 0 -6 7
-10 15 -3 8 -1 15 4 15 6 0 10 -7 10 -15z m-3640 -16 c0 -6 -4 -7 -10 -4 -5 3
-10 11 -10 16 0 6 5 7 10 4 6 -3 10 -11 10 -16z m270 -5 c0 -2 -16 -4 -35 -4
-19 0 -35 4 -35 8 0 4 16 6 35 4 19 -2 35 -6 35 -8z m99 -23 c9 -6 10 -11 2
-15 -6 -4 -11 -3 -11 3 0 5 -10 12 -22 14 -20 4 -20 4 -3 5 11 1 26 -2 34 -7z
m-149 -18 c0 5 5 5 12 1 7 -5 29 -7 50 -5 30 2 38 -1 38 -14 0 -9 4 -13 10
-10 5 3 7 0 4 -8 -4 -11 -23 -14 -72 -14 -37 0 -61 2 -54 4 6 3 12 9 12 14 0
6 -3 8 -7 6 -5 -3 -9 6 -10 20 -1 19 1 22 8 12 5 -8 9 -10 9 -6z m3415 8 c-3
-5 0 -13 6 -17 12 -7 -7 -24 -28 -24 -19 0 -16 27 5 39 22 13 25 13 17 2z
m-3285 -11 c0 -5 -5 -10 -11 -10 -5 0 -7 5 -4 10 3 6 8 10 11 10 2 0 4 -4 4
-10z m-239 -17 c13 -16 12 -17 -3 -4 -10 7 -18 15 -18 17 0 8 8 3 21 -13z
m3393 2 c3 -8 1 -15 -4 -15 -6 0 -10 7 -10 15 0 8 2 15 4 15 2 0 6 -7 10 -15z
m86 5 c0 -5 -5 -10 -11 -10 -5 0 -7 5 -4 10 3 6 8 10 11 10 2 0 4 -4 4 -10z
m-3663 -57 c-3 -10 -5 -2 -5 17 0 19 2 27 5 18 2 -10 2 -26 0 -35z m-3360 -45
c-2 -18 -4 -6 -4 27 0 33 2 48 4 33 2 -15 2 -42 0 -60z m3787 47 c-6 -16 -24
-21 -24 -7 0 11 11 22 21 22 5 0 6 -7 3 -15z m-94 1 c0 -2 -13 -6 -30 -8 -16
-3 -30 -1 -30 4 0 4 14 8 30 8 17 0 30 -2 30 -4z m50 -11 c-7 -8 -23 -15 -37
-15 -19 0 -21 3 -12 13 7 7 23 14 37 15 21 2 23 0 12 -13z m80 -13 c0 -16 -7
-18 -47 -16 -27 1 -42 0 -35 -3 6 -3 9 -10 6 -15 -4 -6 -2 -8 4 -4 18 11 101
15 108 5 3 -5 0 -17 -7 -25 -10 -12 -9 -14 7 -9 13 4 12 2 -3 -6 -25 -13 -29
-24 -13 -34 5 -3 6 -13 3 -22 -5 -12 -3 -14 8 -8 12 7 12 6 -1 -9 -19 -24 -22
-46 -4 -39 8 3 14 1 14 -5 0 -5 -9 -12 -20 -15 -11 -3 -20 -12 -20 -21 0 -9
-5 -16 -11 -16 -6 0 -9 6 -6 13 4 11 -8 13 -55 11 -33 -2 -62 -5 -64 -6 -2 -2
6 -10 18 -17 11 -7 17 -8 13 -2 -3 6 1 11 9 11 8 0 18 -5 21 -10 4 -6 15 -8
25 -5 10 3 20 0 23 -7 3 -9 -7 -13 -32 -14 -20 -1 -51 -5 -70 -9 -25 -6 -32
-5 -27 4 4 6 11 9 16 6 4 -3 11 2 14 11 4 11 2 15 -7 11 -8 -3 -13 3 -14 14
-1 10 2 19 8 19 5 0 9 5 9 10 0 7 -6 7 -19 0 -26 -14 -31 -13 -25 5 4 9 0 15
-7 15 -8 1 0 8 16 17 17 9 25 18 17 21 -6 2 -10 8 -6 13 3 5 -3 9 -13 9 -14 0
-15 2 -4 9 11 7 11 9 0 13 -8 3 -25 -2 -39 -11 -24 -15 -24 -15 -10 3 11 14
12 20 3 23 -7 2 -9 11 -6 19 3 8 -1 14 -8 14 -11 0 -11 2 1 10 9 6 17 5 21 -2
4 -7 9 -6 14 2 9 14 7 16 -33 23 -18 4 -31 3 -28 -1 3 -5 -1 -9 -9 -9 -18 0
-10 14 17 28 15 8 19 8 14 0 -7 -10 58 -18 104 -12 19 2 91 9 108 10 7 1 10 6
7 11 -3 6 -1 10 4 10 6 0 11 -8 11 -18z m3280 3 c11 -13 10 -14 -4 -9 -9 3
-16 10 -16 15 0 13 6 11 20 -6z m37 -17 c-3 -8 -6 -5 -6 6 -1 11 2 17 5 13 3
-3 4 -12 1 -19z m-3570 -60 c-3 -8 -6 -5 -6 6 -1 11 2 17 5 13 3 -3 4 -12 1
-19z m3349 -17 c1 -6 0 -7 -3 -1 -2 5 -11 10 -18 10 -8 0 -17 4 -20 10 -4 6 2
7 16 1 13 -4 24 -13 25 -20z m217 -31 c-4 -35 -9 -48 -13 -35 -6 16 9 99 17
92 1 -2 0 -27 -4 -57z m-3570 15 c-3 -9 -8 -14 -10 -11 -3 3 -2 9 2 15 9 16
15 13 8 -4z m315 6 c11 -7 11 -9 -1 -14 -16 -6 -27 0 -27 15 0 10 11 10 28 -1z
m3212 -1 c0 -5 -4 -10 -9 -10 -6 0 -13 5 -16 10 -3 6 1 10 9 10 9 0 16 -4 16
-10z m-3723 -47 c-3 -10 -5 -2 -5 17 0 19 2 27 5 18 2 -10 2 -26 0 -35z m3598
37 c17 -8 16 -8 -7 -7 -16 1 -28 5 -28 9 0 10 9 9 35 -2z m65 0 c0 -5 -4 -10
-9 -10 -6 0 -13 5 -16 10 -3 6 1 10 9 10 9 0 16 -4 16 -10z m-3506 -42 c-10
-16 -22 -7 -17 13 4 15 8 17 14 8 4 -7 5 -17 3 -21z m3311 12 c3 -5 1 -10 -4
-10 -6 0 -11 5 -11 10 0 6 2 10 4 10 3 0 8 -4 11 -10z m-415 -15 c0 -8 -2 -15
-4 -15 -2 0 -6 7 -10 15 -3 8 -1 15 4 15 6 0 10 -7 10 -15z m-2800 -9 c0 -3
-4 -8 -10 -11 -5 -3 -10 -1 -10 4 0 6 5 11 10 11 6 0 10 -2 10 -4z m36 -77 c0
-10 -4 -16 -7 -13 -4 2 -10 0 -14 -6 -3 -5 -12 -10 -18 -10 -7 0 -3 7 8 16 17
13 18 16 5 24 -12 7 -11 9 5 8 12 -1 21 -9 21 -19z m3327 -6 c-7 -2 -19 -2
-25 0 -7 3 -2 5 12 5 14 0 19 -2 13 -5z m-3013 -38 c-7 -9 -15 -13 -18 -11 -2
3 -11 -1 -18 -9 -8 -7 -44 -17 -81 -20 -38 -4 -75 -12 -83 -17 -11 -6 -8 -7
10 -3 18 4 21 3 10 -4 -8 -5 -39 -11 -68 -14 -47 -5 -51 -4 -35 8 13 11 14 14
4 15 -11 0 -9 4 5 14 13 10 21 11 26 3 5 -8 11 -7 21 1 8 7 19 12 23 11 5 -1
21 3 36 9 16 6 41 9 58 6 18 -4 30 -2 30 4 0 13 60 22 60 8 0 -6 5 -3 11 7 6
10 13 16 16 13 3 -3 0 -12 -7 -21z m3000 16 c0 -5 -12 -8 -26 -8 -18 0 -22 2
-13 8 18 11 39 11 39 0z m-2946 -50 c-5 -6 -34 20 -34 30 0 5 8 1 18 -8 10
-10 17 -20 16 -22z m-93 -42 c-87 -35 -169 -55 -181 -43 -5 5 9 10 30 11 22 2
70 16 107 32 38 16 79 30 93 30 15 0 -3 -11 -49 -30z m-634 -31 c-2 -13 -4 -5
-4 17 -1 22 1 32 4 23 2 -10 2 -28 0 -40z m558 32 c-11 -5 -29 -8 -40 -8 -16
0 -15 2 5 8 34 11 60 11 35 0z m170 0 c-4 -6 -11 -8 -16 -5 -5 3 -6 0 -3 -8 6
-17 -67 -41 -98 -31 -11 3 -18 2 -15 -2 3 -5 -18 -10 -47 -11 l-51 -2 50 15
c28 8 64 18 81 23 17 4 39 13 50 19 24 14 57 15 49 2z m2159 2 c3 -5 1 -22 -4
-38 -8 -26 -9 -26 -7 -4 1 14 -2 31 -6 38 -5 6 -4 12 2 12 5 0 12 -4 15 -8z
m81 -72 c3 -5 1 -10 -4 -10 -6 0 -11 5 -11 10 0 6 2 10 4 10 3 0 8 -4 11 -10z
m-2285 -4 c0 -2 -7 -9 -15 -16 -13 -11 -14 -10 -9 4 5 14 24 23 24 12z m2013
-26 c-8 -30 -21 -34 -15 -5 2 14 8 25 12 25 5 0 6 -9 3 -20z m264 -28 c3 -15
16 -34 27 -44 17 -14 17 -17 4 -12 -10 3 -18 1 -18 -5 0 -6 10 -11 23 -11 18
0 19 -2 7 -10 -11 -7 -20 -4 -34 13 l-19 22 5 -27 c3 -16 1 -28 -3 -28 -5 0
-9 6 -9 14 0 8 -5 18 -10 21 -7 4 -8 -5 -5 -27 5 -27 4 -31 -7 -20 -7 7 -13
26 -14 42 -1 16 -4 42 -7 57 -4 15 -4 23 -1 16 3 -7 12 -9 20 -6 19 7 18 23
-2 23 -8 0 -13 4 -10 9 11 17 46 -1 53 -27z m-2957 -145 c-6 -60 -12 -120 -14
-135 -2 -15 -1 -18 2 -7 l4 20 9 -20 c8 -17 9 -16 6 6 -4 25 -2 26 25 17 15
-6 28 -15 28 -21 0 -9 2 -9 8 -1 11 17 60 26 65 11 3 -6 6 2 8 18 2 27 3 27 9
-10 6 -33 7 -30 4 17 -2 31 -7 76 -10 100 -4 24 -4 40 0 37 3 -3 24 -113 46
-245 52 -314 72 -379 225 -724 41 -91 89 -217 108 -280 20 -63 49 -153 65
-200 33 -92 54 -250 33 -250 -7 0 -11 -20 -11 -50 0 -53 -4 -58 -33 -36 -18
14 -57 11 -57 -5 0 -5 14 -9 30 -9 17 0 30 -2 30 -4 0 -2 -16 -28 -35 -57 -19
-30 -35 -49 -35 -43 0 6 6 18 13 28 22 30 9 66 -24 73 -16 3 -29 11 -30 17 0
6 -4 2 -9 -9 -7 -16 -9 -13 -9 18 -1 31 -5 37 -22 37 -19 0 -21 -4 -16 -37 3
-21 3 -30 1 -20 -4 12 -16 17 -45 17 -32 0 -39 -3 -39 -20 0 -13 -7 -20 -20
-20 -14 0 -20 -7 -20 -21 0 -17 -5 -20 -32 -17 -32 3 -32 4 -31 53 l1 50 -8
-40 c-6 -32 -7 -34 -9 -12 -1 20 -6 27 -21 27 -12 0 -25 10 -30 23 -8 16 -9
-6 -7 -75 3 -60 9 -104 17 -113 10 -12 10 -19 2 -27 -7 -7 -14 -9 -17 -6 -4 3
-10 95 -16 204 -9 205 -24 405 -39 554 -5 47 -9 142 -9 211 -1 183 -27 300
-117 532 -49 126 -50 134 -21 237 17 58 46 263 49 340 1 40 2 41 5 10 3 -19 0
-84 -7 -143z m3034 147 c24 -9 19 -31 -9 -36 -17 -4 -25 -1 -25 8 0 8 8 14 18
14 14 0 15 2 2 10 -17 11 -10 13 14 4z m96 -30 c0 -8 -24 -29 -38 -31 -6 -2
-12 2 -12 7 0 6 7 10 15 10 8 0 15 5 15 10 0 6 5 10 10 10 6 0 10 -3 10 -6z
m-392 -28 c-1 -14 -5 -23 -9 -20 -7 4 0 44 7 44 2 0 3 -11 2 -24z m-6071 -28
c-3 -7 -5 -2 -5 12 0 14 2 19 5 13 2 -7 2 -19 0 -25z m6035 10 c-7 -7 -12 -8
-12 -2 0 14 12 26 19 19 2 -3 -1 -11 -7 -17z m198 2 c0 -5 -4 -10 -10 -10 -5
0 -10 5 -10 10 0 6 5 10 10 10 6 0 10 -4 10 -10z m-203 -57 c-3 -10 -5 -4 -5
12 0 17 2 24 5 18 2 -7 2 -21 0 -30z m-1597 -90 c0 -13 5 -23 10 -23 6 0 10 5
10 10 0 6 7 10 15 10 8 0 15 4 15 9 0 4 11 6 25 3 14 -2 22 -8 19 -13 -3 -5 4
-9 15 -9 12 0 21 5 21 10 0 6 9 10 20 10 13 0 20 -7 20 -20 0 -11 5 -20 10
-20 6 0 10 9 10 20 0 17 7 20 39 20 22 0 43 -4 46 -10 3 -5 40 -10 81 -10 43
0 74 4 74 10 0 6 18 10 40 10 22 0 40 -4 40 -10 0 -5 -14 -10 -32 -10 -17 0
-29 -3 -25 -6 3 -4 27 -3 53 1 34 5 43 9 33 16 -16 10 -16 10 33 12 28 2 34
-1 26 -10 -8 -10 -5 -13 12 -13 16 0 21 4 16 16 -5 14 0 15 41 9 27 -4 50 -11
51 -16 6 -16 32 -10 32 7 0 14 17 16 133 14 72 -1 191 0 264 2 72 2 130 1 128
-2 -2 -3 5 -6 15 -6 10 0 16 4 14 8 -7 11 177 10 194 -1 14 -9 8 -69 -10 -105
-7 -13 -7 -16 1 -12 6 4 11 3 11 -3 0 -5 -5 -13 -11 -16 -6 -4 -8 -13 -5 -20
2 -7 -1 -18 -7 -24 -8 -8 -8 -11 1 -11 7 0 10 -11 7 -27 -9 -53 -15 -108 -21
-190 -4 -45 -11 -80 -15 -77 -5 3 -6 -2 -3 -10 7 -17 -21 -146 -41 -191 -14
-32 -27 -67 -29 -75 -1 -3 -10 -42 -21 -87 -12 -52 -24 -83 -32 -83 -7 0 -13
-10 -12 -22 0 -21 1 -21 8 -4 5 13 10 16 15 8 4 -6 2 -20 -3 -31 -6 -10 -13
-41 -16 -68 -13 -116 -24 -174 -34 -187 -9 -10 -9 -15 -1 -18 11 -3 7 -18 -30
-113 -4 -11 -13 -32 -20 -47 -8 -16 -10 -31 -7 -35 4 -3 7 -1 7 5 0 7 7 12 15
12 8 0 15 -4 15 -10 0 -5 -5 -10 -11 -10 -5 0 -7 -5 -3 -12 5 -7 7 -25 6 -39
-1 -15 3 -40 8 -55 8 -20 8 -29 -1 -34 -8 -6 -8 -13 0 -28 8 -15 8 -28 0 -49
-7 -17 -13 -23 -16 -15 -3 8 0 19 6 25 6 6 11 16 11 21 0 6 -4 4 -10 -4 -5 -8
-12 -11 -17 -7 -4 5 -1 12 7 17 19 11 6 24 -16 16 -10 -4 -14 -13 -11 -26 7
-26 -10 -36 -18 -11 -7 23 11 97 25 106 19 12 10 35 -12 34 -13 0 -17 -3 -10
-6 19 -8 14 -27 -18 -63 -16 -18 -27 -36 -25 -40 3 -5 -2 -21 -10 -36 -12 -23
-12 -31 -1 -44 16 -19 20 -77 5 -86 -6 -3 -15 0 -20 7 -8 11 -12 11 -24 -5 -8
-10 -16 -24 -18 -30 -2 -6 -8 -8 -12 -4 -4 4 -4 15 0 25 4 10 9 25 10 33 3 24
28 93 42 115 15 22 18 75 5 75 -5 0 -14 -10 -20 -22 l-11 -23 0 23 c-1 28 -31
30 -31 2 0 -18 -7 -20 -60 -20 -53 0 -60 -2 -60 -20 0 -13 -7 -20 -20 -20 -11
0 -20 6 -20 13 0 8 -4 7 -10 -3 -8 -12 -10 -10 -10 9 0 24 0 24 -15 5 -14 -19
-14 -19 -16 1 -1 17 -2 16 -10 -5 -5 -16 -6 -4 -3 38 l6 62 -31 0 c-24 0 -31
-4 -31 -20 0 -11 -4 -20 -10 -20 -5 0 -11 -12 -11 -27 -2 -25 -2 -24 -9 7 -7
32 -7 32 -9 7 -1 -24 -5 -27 -31 -25 -25 2 -29 6 -25 23 6 20 6 20 -6 0 -7
-11 -13 -38 -14 -60 l-1 -40 -47 -2 c-26 -1 -47 3 -47 8 0 5 -17 9 -37 10 -34
1 -35 2 -13 9 24 8 24 8 2 9 -15 1 -26 -7 -32 -21 -9 -23 -9 -23 -10 2 l-2 25
-8 -25 c-8 -24 -8 -24 -9 -2 -1 20 -5 22 -63 21 -35 0 -81 -4 -103 -8 l-40 -9
35 -2 c33 -2 33 -3 -13 -12 -43 -8 -51 -6 -67 12 -18 20 -70 28 -70 10 0 -5
-9 -10 -20 -10 -15 0 -20 7 -20 25 0 14 -4 25 -10 25 -5 0 -10 -16 -10 -35 0
-39 -23 -48 -46 -17 -12 15 -13 12 -14 -25 0 -36 3 -43 20 -43 11 0 20 -4 20
-10 0 -5 -11 -10 -25 -10 -20 0 -25 -5 -26 -27 l0 -28 -10 25 c-7 17 -7 26 0
28 16 5 13 22 -4 22 -12 0 -15 19 -15 108 0 60 -5 135 -11 168 -16 82 -15 195
1 604 16 415 18 621 7 780 -5 77 -4 110 3 100 5 -8 10 -25 10 -37z m-4860
-203 c-8 -5 -19 -10 -25 -10 -5 0 -3 5 5 10 8 5 20 10 25 10 6 0 3 -5 -5 -10z
m-197 -7 c-7 -2 -19 -2 -25 0 -7 3 -2 5 12 5 14 0 19 -2 13 -5z m7076 -884
c-29 -116 -42 -194 -45 -269 -6 -109 -21 -181 -34 -161 -4 7 -6 -63 -5 -154 0
-91 -1 -169 -4 -173 -9 -11 -248 -16 -254 -5 -3 5 2 23 13 40 18 30 22 31 107
38 48 3 95 7 103 8 11 2 14 14 13 46 -2 51 -2 50 -36 53 -15 1 -27 7 -27 13 0
5 -13 19 -27 29 -26 19 -26 19 -19 0 16 -38 18 -54 7 -54 -6 0 -11 8 -11 18 0
14 -2 14 -9 3 -5 -8 -7 -21 -3 -29 3 -9 1 -13 -4 -9 -6 3 -15 -7 -21 -24 -9
-23 -9 -29 3 -29 8 0 14 4 14 8 0 5 7 9 15 9 8 0 15 -4 15 -8 0 -11 -49 -23
-57 -15 -3 3 -12 1 -19 -5 -8 -6 0 15 16 47 56 108 74 228 49 333 -8 37 -7 49
10 80 10 20 24 35 30 34 5 -2 8 4 5 12 -4 9 0 15 9 15 8 0 14 7 13 16 0 9 4
19 11 21 7 3 9 -3 6 -18 -4 -14 -2 -20 4 -16 6 4 14 27 18 53 5 34 10 44 21
40 8 -3 14 -1 14 4 0 6 -5 10 -10 10 -6 0 -1 13 11 30 18 23 25 27 36 18 10
-8 17 -8 26 2 9 10 9 11 0 6 -8 -5 -13 -1 -13 9 0 9 4 14 10 10 5 -3 16 20 25
52 23 80 25 86 30 81 3 -2 -14 -78 -36 -169z m-545 -215 c9 -3 16 -14 16 -23
-1 -15 -2 -15 -13 0 -7 9 -21 19 -32 22 -15 3 -16 5 -3 6 9 0 23 -2 32 -5z
m70 -208 c-5 -13 1 -13 40 -1 53 16 61 7 14 -17 -56 -28 -85 -31 -91 -8 -6 22
8 28 16 8 3 -7 6 -3 6 10 1 12 5 22 11 22 5 0 7 -6 4 -14z m-200 -32 c3 -8 2
-12 -4 -9 -6 3 -10 10 -10 16 0 14 7 11 14 -7z m106 5 c0 -6 9 -8 23 -4 22 7
22 7 2 -8 -32 -25 -6 -39 75 -42 39 -2 74 -6 78 -10 4 -4 -5 -6 -19 -3 -34 6
-35 -25 -1 -32 l23 -5 -30 -32 c-16 -18 -25 -33 -20 -33 6 0 7 -5 4 -10 -4 -6
-12 -7 -18 -3 -7 4 -5 -2 3 -12 13 -17 13 -18 -1 -13 -10 4 -16 1 -16 -5 1
-40 -5 -57 -19 -57 -12 0 -15 -9 -13 -37 2 -25 -1 -37 -9 -36 -7 2 -9 -4 -5
-14 5 -12 3 -14 -8 -8 -7 5 -26 8 -41 7 -15 -1 -28 2 -28 8 0 5 9 10 21 10 11
0 17 5 14 10 -3 6 -17 7 -31 4 -18 -5 -24 -2 -25 10 -1 9 -3 21 -4 26 -1 6 -3
15 -4 21 0 5 -4 8 -9 5 -13 -8 -3 80 14 126 9 24 16 54 17 68 0 14 5 28 11 33
8 5 7 10 -3 16 -7 5 -10 14 -7 20 9 14 26 14 26 0z m-140 -45 c0 -14 -5 -24
-11 -22 -6 2 -10 7 -10 11 1 4 1 14 1 22 0 8 5 15 10 15 6 0 10 -12 10 -26z
m100 16 c0 -5 -7 -10 -16 -10 -8 0 -12 5 -9 10 3 6 10 10 16 10 5 0 9 -4 9
-10z m137 -7 c-9 -9 -23 -13 -36 -8 -32 10 -25 21 15 22 32 1 35 -1 21 -14z
m-207 -38 c0 -8 -7 -15 -15 -15 -9 0 -12 6 -9 15 4 8 10 15 15 15 5 0 9 -7 9
-15z m-40 -91 c-9 -32 -10 -30 -14 34 -2 41 -2 42 10 19 9 -16 10 -33 4 -53z
m-540 24 c-1 -26 -3 -30 -10 -16 -6 9 -7 23 -4 32 9 25 14 19 14 -16z m596 18
c12 -13 11 -15 -13 -13 -14 1 -28 8 -31 15 -5 17 26 15 44 -2z m-813 -3 c-7
-2 -19 -2 -25 0 -7 3 -2 5 12 5 14 0 19 -2 13 -5z m666 -88 c-1 -47 -4 -83 -8
-80 -10 6 -21 129 -14 156 11 42 22 4 22 -76z m-2142 23 c-3 -8 -6 -5 -6 6 -1
11 2 17 5 13 3 -3 4 -12 1 -19z m1473 2 c8 -5 11 -10 5 -10 -5 0 -17 5 -25 10
-8 5 -10 10 -5 10 6 0 17 -5 25 -10z m237 -16 c-3 -3 -12 -4 -19 -1 -8 3 -5 6
6 6 11 1 17 -2 13 -5z m-1049 -26 c41 -2 63 -7 67 -16 4 -11 -3 -13 -30 -10
-20 2 -35 0 -35 -7 0 -6 -3 -6 -8 1 -4 7 -26 17 -49 24 -24 7 -43 17 -43 22 0
5 8 4 18 -1 10 -5 46 -11 80 -13z m1556 5 c4 -9 1 -21 -5 -27 -9 -8 -10 -8 -5
1 3 6 -1 19 -10 27 -13 14 -13 16 -1 16 8 0 18 -8 21 -17z m-6432 -2 c8 11 9
11 6 1 -4 -16 -22 -18 -24 -2 -2 7 -1 6 3 -1 4 -8 8 -7 15 2z m6282 -14 c18
-18 9 -127 -10 -127 -8 0 -14 5 -14 10 0 6 -9 10 -21 10 -15 0 -19 -5 -15 -15
3 -9 0 -15 -9 -15 -8 0 -15 7 -15 15 0 18 20 18 -440 0 -201 -8 -411 -15 -467
-15 l-102 0 -9 33 c-5 17 -8 35 -6 38 2 3 115 9 251 12 136 4 367 11 512 17
145 6 269 9 277 6 11 -4 11 -12 4 -33 -9 -26 -9 -27 5 -9 8 11 15 26 15 34 0
15 18 52 26 52 3 0 11 -6 18 -13z m-1258 -16 c-3 -5 4 -11 17 -15 18 -5 19 -8
7 -15 -8 -5 -18 -7 -22 -5 -4 3 -8 -2 -8 -12 0 -14 3 -14 15 -4 22 18 30 5 17
-25 -17 -37 -15 -68 3 -62 11 5 12 1 5 -18 -7 -18 -5 -28 5 -39 20 -19 19 -23
-7 -30 -19 -5 -21 -8 -8 -16 12 -8 11 -10 -8 -10 -28 0 -40 -30 -34 -91 3 -43
5 -45 33 -43 16 1 32 -2 35 -7 3 -5 -2 -9 -10 -9 -9 0 -16 -6 -16 -14 0 -9 8
-12 24 -9 21 4 23 2 19 -21 -5 -24 -14 -31 -37 -27 -4 1 -28 2 -52 3 -37 0
-44 4 -44 20 0 11 -7 26 -15 34 -8 9 -15 24 -15 35 0 29 -29 69 -46 62 -9 -3
-14 2 -14 17 0 11 -4 19 -9 16 -5 -3 -11 2 -15 12 -3 9 -15 31 -26 47 -11 17
-22 37 -26 45 -3 8 -9 22 -13 30 -5 9 -12 31 -16 49 -6 29 -5 33 9 28 36 -14
114 -19 132 -8 15 8 9 10 -34 11 -38 0 -51 3 -46 12 4 7 3 8 -4 4 -16 -10 -32
2 -26 19 3 7 13 12 22 11 28 -5 166 14 176 24 12 12 39 13 32 1z m-5046 -41
c0 -5 14 -10 32 -10 23 0 29 -3 21 -11 -16 -16 -93 -1 -93 17 0 8 9 14 20 14
11 0 20 -4 20 -10z m4550 -1 c0 -5 5 -7 10 -4 6 3 10 1 10 -5 0 -15 -32 -9
-38 8 -2 6 1 12 7 12 6 0 11 -5 11 -11z m247 -5 c-3 -3 -12 -4 -19 -1 -8 3 -5
6 6 6 11 1 17 -2 13 -5z m-334 -11 c-13 -2 -33 -2 -45 0 -13 2 -3 4 22 4 25 0
35 -2 23 -4z m-4376 -45 c-3 -7 -5 -2 -5 12 0 14 2 19 5 13 2 -7 2 -19 0 -25z
m4483 -6 l0 -39 -112 -6 c-154 -9 -218 -9 -218 2 0 5 -3 22 -6 39 l-6 31 88 4
c49 1 126 4 172 5 l82 2 0 -38z m1957 9 c2 -13 -2 -30 -8 -37 -7 -9 -8 -14 -1
-14 22 0 42 13 42 26 0 8 5 14 10 14 6 0 10 -9 10 -20 0 -11 6 -20 13 -20 8 0
7 -4 -3 -11 -12 -9 -13 -12 -1 -16 11 -5 11 -7 0 -14 -10 -6 -7 -10 11 -18 17
-7 20 -10 8 -10 -14 -1 -16 -5 -8 -25 10 -27 -6 -41 -31 -25 -8 5 -26 9 -41 9
-15 0 -33 8 -40 19 -8 11 -22 19 -33 18 -15 -2 -19 5 -20 30 0 18 3 29 9 26 5
-4 7 1 3 10 -5 13 -1 17 15 17 20 0 20 1 5 18 -28 31 -21 48 20 47 30 -1 37
-5 40 -24z m-6573 11 c2 -4 -4 -8 -14 -8 -10 0 -16 4 -14 8 3 4 9 8 14 8 5 0
11 -4 14 -8z m6446 -32 c0 -20 -5 -30 -15 -30 -9 0 -15 -10 -16 -22 -1 -19 -2
-20 -6 -4 -3 10 0 23 6 29 15 15 14 27 -4 27 -18 0 -20 16 -2 23 28 12 37 6
37 -23z m-1310 10 c0 -5 -5 -10 -11 -10 -5 0 -7 5 -4 10 3 6 8 10 11 10 2 0 4
-4 4 -10z m1574 -8 c2 -4 -11 -6 -30 -4 -19 2 -34 6 -34 8 0 8 59 4 64 -4z
m-1567 -64 c-3 -7 -5 -2 -5 12 0 14 2 19 5 13 2 -7 2 -19 0 -25z m-4670 -20
c-3 -7 -5 -2 -5 12 0 14 2 19 5 13 2 -7 2 -19 0 -25z m4848 -61 c13 -31 23
-57 20 -57 -6 0 -41 69 -50 100 -12 39 2 19 30 -43z m-4845 28 c0 -8 -4 -15
-10 -15 -5 0 -10 7 -10 15 0 8 5 15 10 15 6 0 10 -7 10 -15z m-352 -22 c-10
-2 -28 -2 -40 0 -13 2 -5 4 17 4 22 1 32 -1 23 -4z m4994 -45 c-8 -8 -9 -4 -5
13 4 13 8 18 11 10 2 -7 -1 -18 -6 -23z m-148 -44 c3 -8 2 -12 -4 -9 -6 3 -10
10 -10 16 0 14 7 11 14 -7z m245 -33 c0 -10 -3 -8 -9 7 -5 12 -14 22 -20 22
-5 0 -10 5 -10 12 0 6 9 3 20 -7 11 -10 20 -25 19 -34z m51 9 c0 -5 -2 -10 -4
-10 -3 0 -8 5 -11 10 -3 6 -1 10 4 10 6 0 11 -4 11 -10z m1160 -80 c0 -5 -4
-10 -10 -10 -5 0 -10 5 -10 10 0 6 5 10 10 10 6 0 10 -4 10 -10z m65 -21 c11
-17 0 -20 -21 -4 -17 13 -17 14 -2 15 9 0 20 -5 23 -11z m-1432 -158 c-3 -10
0 -21 5 -25 6 -3 6 -21 -1 -49 -7 -31 -17 -48 -38 -59 -28 -17 -29 -17 -54 16
-25 33 -34 76 -15 76 6 0 10 11 10 24 0 26 13 33 67 35 26 1 30 -2 26 -18z
m2024 -48 c-3 -10 -5 -4 -5 12 0 17 2 24 5 18 2 -7 2 -21 0 -30z m-10 -75 c-2
-13 -4 -5 -4 17 -1 22 1 32 4 23 2 -10 2 -28 0 -40z m-2315 32 c68 0 35 -12
-39 -14 -37 -1 -74 -5 -82 -10 -9 -6 -12 -5 -9 5 5 15 54 29 76 23 8 -2 32 -4
54 -4z m195 -49 c-6 -2 -15 3 -21 12 -9 11 -23 14 -56 10 -49 -6 -48 5 3 22
28 9 35 8 58 -15 15 -14 22 -27 16 -29z m-35 -6 c0 -5 -5 -11 -11 -13 -6 -2
-11 4 -11 13 0 9 5 15 11 13 6 -2 11 -8 11 -13z m2145 -47 c-3 -7 -5 -2 -5 12
0 14 2 19 5 13 2 -7 2 -19 0 -25z m-10 -75 c-3 -10 -5 -4 -5 12 0 17 2 24 5
18 2 -7 2 -21 0 -30z m1890 -780 c-3 -10 -5 -4 -5 12 0 17 2 24 5 18 2 -7 2
-21 0 -30z m-10 -60 c-3 -10 -5 -4 -5 12 0 17 2 24 5 18 2 -7 2 -21 0 -30z
m-10 -75 c-3 -7 -5 -2 -5 12 0 14 2 19 5 13 2 -7 2 -19 0 -25z m-10 -80 c-3
-8 -6 -5 -6 6 -1 11 2 17 5 13 3 -3 4 -12 1 -19z m-10 -135 c-3 -10 -5 -4 -5
12 0 17 2 24 5 18 2 -7 2 -21 0 -30z"/>
<path d="M3670 11387 c0 -1 9 -27 20 -57 14 -40 19 -48 20 -29 0 47 -12 89
-26 89 -8 0 -14 -1 -14 -3z"/>
<path d="M3830 11289 c0 -5 5 -7 10 -4 6 3 10 8 10 11 0 2 -4 4 -10 4 -5 0
-10 -5 -10 -11z"/>
<path d="M8450 11804 c0 -3 5 -14 11 -25 11 -22 29 -17 29 9 0 15 -2 15 -10 2
-9 -13 -14 -7 -11 13 0 4 -3 7 -9 7 -5 0 -10 -3 -10 -6z"/>
<path d="M8450 11289 c0 -5 5 -7 10 -4 6 3 10 8 10 11 0 2 -4 4 -10 4 -5 0
-10 -5 -10 -11z"/>
<path d="M9464 9358 c3 -13 6 -35 6 -50 0 -30 17 -38 26 -13 10 26 -5 85 -23
85 -11 0 -14 -6 -9 -22z"/>
<path d="M9486 9202 c-4 -7 -4 -39 0 -72 5 -49 9 -58 20 -49 8 6 14 30 14 53
0 45 -22 88 -34 68z"/>
<path d="M9291 9249 c0 -20 -4 -64 -7 -98 l-7 -61 24 8 c26 10 27 13 5 122
-11 53 -14 58 -15 29z"/>
<path d="M1232 9045 c-7 -35 -15 -71 -18 -78 -3 -10 4 -16 20 -19 l26 -5 0 83
c0 46 -4 84 -8 84 -5 0 -14 -29 -20 -65z"/>
<path d="M1478 9089 c-4 -45 11 -61 41 -42 20 13 27 63 9 74 -30 20 -46 10
-50 -32z"/>
<path d="M1465 8957 c-2 -7 -5 -33 -8 -59 -4 -46 -4 -48 22 -48 15 0 32 5 39
12 13 13 16 67 4 84 -11 16 -53 24 -57 11z"/>
<path d="M6572 8890 c-60 -5 -62 -6 -43 -22 11 -9 32 -25 48 -35 15 -10 50
-35 76 -55 27 -21 53 -38 58 -38 5 0 18 -9 30 -21 12 -12 25 -17 29 -12 12 12
16 58 5 61 -6 1 -10 -2 -10 -7 0 -16 -14 -24 -32 -17 -15 6 -15 8 -3 16 12 8
12 10 1 10 -8 0 -11 7 -8 20 4 17 1 18 -27 14 -23 -4 -27 -3 -16 5 12 9 13 14
2 28 -7 10 -15 26 -18 35 -8 22 -18 24 -92 18z"/>
<path d="M6600 8755 c-7 -9 -10 -18 -7 -21 3 -3 10 4 17 15 13 25 8 27 -10 6z"/>
<path d="M6826 8741 c-4 -6 -4 -11 1 -11 4 0 -5 -9 -22 -20 l-30 -20 33 0 c36
0 50 18 34 46 -6 11 -11 13 -16 5z"/>
<path d="M9661 8557 c-1 -59 2 -78 12 -74 13 4 12 55 -3 117 -6 29 -8 21 -9
-43z"/>
<path d="M9493 8673 c-16 -6 -18 -143 -3 -143 6 0 19 9 30 20 23 23 28 98 8
118 -13 13 -16 13 -35 5z"/>
<path d="M1496 8448 c-3 -13 -6 -40 -6 -61 0 -36 2 -38 27 -35 17 2 33 13 42
29 12 22 12 29 0 55 -18 37 -54 44 -63 12z"/>
<path d="M1840 8365 c0 -8 -11 -48 -24 -89 l-23 -74 34 -7 c19 -3 37 -4 39 -2
8 8 -9 187 -17 187 -5 0 -9 -7 -9 -15z"/>
<path d="M2875 8213 c-4 -21 -9 -50 -11 -65 -5 -25 -3 -28 23 -28 44 0 73 25
73 65 0 24 -7 39 -22 49 -38 27 -56 20 -63 -21z"/>
<path d="M5813 7933 c15 -2 37 -2 50 0 12 2 0 4 -28 4 -27 0 -38 -2 -22 -4z"/>
<path d="M5918 7883 c7 -3 16 -2 19 1 4 3 -2 6 -13 5 -11 0 -14 -3 -6 -6z"/>
<path d="M5980 7865 c13 -14 26 -25 28 -25 3 0 -5 11 -18 25 -13 14 -26 25
-28 25 -3 0 5 -11 18 -25z"/>
<path d="M5978 7793 c6 -2 18 -2 25 0 6 3 1 5 -13 5 -14 0 -19 -2 -12 -5z"/>
<path d="M5340 7771 c0 -16 29 -33 47 -28 14 4 13 5 -4 6 -13 1 -23 7 -23 16
0 8 -4 15 -10 15 -5 0 -10 -4 -10 -9z"/>
<path d="M6015 7770 l-70 -6 93 -2 c60 -1 91 2 87 8 -3 6 -14 9 -23 8 -9 -1
-48 -4 -87 -8z"/>
<path d="M5480 7750 c-25 -3 27 -4 115 -2 88 3 162 6 164 8 7 7 -231 1 -279
-6z"/>
<path d="M5813 7753 c9 -2 25 -2 35 0 9 3 1 5 -18 5 -19 0 -27 -2 -17 -5z"/>
<path d="M5898 7753 c7 -3 16 -2 19 1 4 3 -2 6 -13 5 -11 0 -14 -3 -6 -6z"/>
<path d="M7530 7540 c0 -5 5 -10 10 -10 6 0 10 5 10 10 0 6 -4 10 -10 10 -5 0
-10 -4 -10 -10z"/>
<path d="M7380 7491 c0 -5 5 -13 10 -16 6 -3 10 -2 10 4 0 5 -4 13 -10 16 -5
3 -10 2 -10 -4z"/>
<path d="M7945 7446 c-10 -7 -14 -15 -9 -19 5 -3 17 1 27 8 10 7 14 16 9 19
-5 3 -17 -1 -27 -8z"/>
<path d="M7920 7379 c0 -5 5 -7 10 -4 6 3 10 8 10 11 0 2 -4 4 -10 4 -5 0 -10
-5 -10 -11z"/>
<path d="M7907 7331 c-18 -11 -25 -21 -18 -25 6 -4 11 -3 11 3 0 6 6 8 14 5 7
-3 16 2 20 11 3 9 11 13 17 9 8 -4 9 -3 5 4 -10 16 -16 15 -49 -7z"/>
<path d="M7257 7323 c-4 -3 -7 -11 -7 -17 0 -6 5 -5 12 2 6 6 9 14 7 17 -3 3
-9 2 -12 -2z"/>
<path d="M7170 7260 c0 -5 5 -10 10 -10 6 0 10 5 10 10 0 6 -4 10 -10 10 -5 0
-10 -4 -10 -10z"/>
<path d="M7107 7254 c-4 -4 -7 -14 -7 -23 0 -11 3 -12 11 -4 6 6 10 16 7 23
-2 6 -7 8 -11 4z"/>
<path d="M7828 7243 c6 -2 18 -2 25 0 6 3 1 5 -13 5 -14 0 -19 -2 -12 -5z"/>
<path d="M7895 7240 c3 -5 8 -10 11 -10 2 0 4 5 4 10 0 6 -5 10 -11 10 -5 0
-7 -4 -4 -10z"/>
<path d="M7286 7213 c-11 -11 -6 -23 9 -23 8 0 15 4 15 9 0 13 -16 22 -24 14z"/>
<path d="M7781 7206 c-14 -8 -32 -12 -40 -9 -14 4 -14 3 -2 -5 12 -8 12 -13 2
-25 -8 -10 -9 -17 -1 -22 9 -6 14 1 11 18 -1 6 7 8 50 11 19 1 50 31 42 40
-10 10 -36 6 -62 -8z"/>
<path d="M7556 7184 c-5 -14 -4 -15 9 -4 17 14 19 20 6 20 -5 0 -12 -7 -15
-16z"/>
<path d="M7655 7150 c-3 -6 2 -10 12 -11 16 0 16 -1 -2 -8 -12 -5 -25 -4 -33
2 -9 7 -16 6 -25 -2 -9 -10 -8 -11 6 -6 9 4 17 3 17 -2 0 -14 59 -11 64 3 5
14 -31 37 -39 24z"/>
<path d="M7512 7106 c7 -8 15 -12 17 -11 5 6 -10 25 -20 25 -5 0 -4 -6 3 -14z"/>
<path d="M7734 7105 c-10 -8 -14 -14 -9 -15 15 0 40 18 34 24 -3 3 -14 -1 -25
-9z"/>
<path d="M7642 7093 c-25 -5 -27 -33 -4 -41 7 -2 11 2 10 10 -2 8 5 12 21 10
20 -2 22 0 11 13 -7 8 -13 14 -14 14 0 -1 -11 -4 -24 -6z"/>
<path d="M7715 7070 c3 -5 8 -10 11 -10 2 0 4 5 4 10 0 6 -5 10 -11 10 -5 0
-7 -4 -4 -10z"/>
<path d="M7580 7060 c0 -5 5 -10 10 -10 6 0 10 5 10 10 0 6 -4 10 -10 10 -5 0
-10 -4 -10 -10z"/>
<path d="M7513 7033 c-15 -5 -17 -23 -4 -23 5 0 11 7 15 15 3 8 4 15 3 14 -1
0 -8 -3 -14 -6z"/>
<path d="M7725 7000 c-3 -5 1 -10 9 -10 9 0 16 5 16 10 0 6 -4 10 -9 10 -6 0
-13 -4 -16 -10z"/>
<path d="M7668 6993 c7 -3 16 -2 19 1 4 3 -2 6 -13 5 -11 0 -14 -3 -6 -6z"/>
<path d="M7457 6971 c-4 -17 -3 -21 5 -13 5 5 8 16 6 23 -3 8 -7 3 -11 -10z"/>
<path d="M7671 6961 c-21 -13 -5 -29 24 -24 13 3 22 9 19 14 -3 5 -9 7 -14 4
-4 -3 -10 -1 -12 5 -2 5 -9 6 -17 1z"/>
<path d="M7487 6939 c7 -7 15 -10 18 -7 3 3 -2 9 -12 12 -14 6 -15 5 -6 -5z"/>
<path d="M7559 6905 c14 -25 16 -32 5 -28 -8 3 -14 9 -14 15 0 5 -4 7 -9 3 -5
-3 -12 -1 -16 5 -7 12 -25 4 -25 -11 0 -5 7 -9 16 -9 8 0 12 -4 9 -10 -9 -15
8 -35 29 -35 31 0 30 -23 -1 -27 l-28 -4 28 -14 c21 -10 30 -11 39 -2 9 9 9
12 -1 12 -7 0 -10 4 -7 9 9 14 -4 41 -20 41 -8 0 -14 3 -14 8 0 4 20 7 45 6
50 -2 68 10 30 20 -14 4 -25 11 -25 16 0 14 17 12 23 -2 4 -10 6 -10 6 -1 1
15 -13 24 -56 33 l-34 8 20 -33z"/>
<path d="M7680 6920 c0 -5 5 -10 10 -10 6 0 10 5 10 10 0 6 -4 10 -10 10 -5 0
-10 -4 -10 -10z"/>
<path d="M7145 6880 c3 -5 8 -10 11 -10 2 0 4 5 4 10 0 6 -5 10 -11 10 -5 0
-7 -4 -4 -10z"/>
<path d="M7638 6843 c7 -3 16 -2 19 1 4 3 -2 6 -13 5 -11 0 -14 -3 -6 -6z"/>
<path d="M7022 6800 c0 -14 2 -19 5 -12 2 6 2 18 0 25 -3 6 -5 1 -5 -13z"/>
<path d="M7625 6810 c-3 -5 1 -10 9 -10 8 0 18 5 21 10 3 6 -1 10 -9 10 -8 0
-18 -4 -21 -10z"/>
<path d="M7505 6800 c-8 -12 2 -30 17 -30 7 0 7 4 -1 13 -6 8 -8 17 -4 20 3 4
4 7 0 7 -3 0 -9 -4 -12 -10z"/>
<path d="M7050 6780 c0 -10 26 -20 34 -13 11 12 6 19 -14 20 -11 1 -20 -2 -20
-7z"/>
<path d="M7410 6769 c0 -9 51 -21 58 -14 3 3 -3 5 -14 6 -18 0 -18 1 1 9 16 7
14 8 -12 7 -18 -1 -33 -5 -33 -8z"/>
<path d="M7085 6750 c-3 -5 -1 -10 4 -10 6 0 11 5 11 10 0 6 -2 10 -4 10 -3 0
-8 -4 -11 -10z"/>
<path d="M7613 6753 c9 -2 25 -2 35 0 9 3 1 5 -18 5 -19 0 -27 -2 -17 -5z"/>
<path d="M6976 6717 c3 -10 9 -15 12 -12 3 3 0 11 -7 18 -10 9 -11 8 -5 -6z"/>
<path d="M7391 6714 c12 -15 11 -16 -11 -10 -20 6 -22 5 -8 -4 9 -5 23 -7 32
-4 13 5 13 8 1 20 -19 20 -30 18 -14 -2z"/>
<path d="M7335 6700 c3 -5 8 -10 11 -10 2 0 4 5 4 10 0 6 -5 10 -11 10 -5 0
-7 -4 -4 -10z"/>
<path d="M7370 6661 c0 -6 4 -13 10 -16 6 -3 7 1 4 9 -7 18 -14 21 -14 7z"/>
<path d="M7690 6660 c20 -13 33 -13 25 0 -3 6 -14 10 -23 10 -15 0 -15 -2 -2
-10z"/>
<path d="M7305 6631 c1 -10 10 -15 21 -13 26 5 26 6 -1 18 -19 9 -22 8 -20 -5z"/>
<path d="M7750 6630 c0 -6 7 -10 15 -10 8 0 15 2 15 4 0 2 -7 6 -15 10 -8 3
-15 1 -15 -4z"/>
<path d="M7420 6610 c0 -5 7 -10 16 -10 8 0 12 5 9 10 -3 6 -10 10 -16 10 -5
0 -9 -4 -9 -10z"/>
<path d="M7271 6574 c0 -11 3 -14 6 -6 3 7 2 16 -1 19 -3 4 -6 -2 -5 -13z"/>
<path d="M7348 6563 c7 -3 16 -2 19 1 4 3 -2 6 -13 5 -11 0 -14 -3 -6 -6z"/>
<path d="M4541 7104 c-2 -19 23 -32 44 -23 18 7 17 8 -7 8 -14 1 -29 7 -31 14
-4 7 -6 8 -6 1z"/>
<path d="M7930 7100 c0 -5 5 -10 11 -10 5 0 7 5 4 10 -3 6 -8 10 -11 10 -2 0
-4 -4 -4 -10z"/>
<path d="M4500 6948 c0 -4 4 -8 9 -8 6 0 12 4 15 8 3 5 -1 9 -9 9 -8 0 -15 -4
-15 -9z"/>
<path d="M4660 6844 c-23 -8 -28 -13 -15 -13 30 -1 65 10 65 20 0 11 -5 10
-50 -7z"/>
<path d="M7131 6514 c0 -11 3 -14 6 -6 3 7 2 16 -1 19 -3 4 -6 -2 -5 -13z"/>
<path d="M4152 6153 c-6 -20 -7 -32 -2 -27 10 10 25 64 18 64 -3 0 -10 -16
-16 -37z"/>
<path d="M4362 6155 c0 -16 2 -22 5 -12 2 9 2 23 0 30 -3 6 -5 -1 -5 -18z"/>
<path d="M4180 6071 c0 -6 4 -13 10 -16 6 -3 7 1 4 9 -7 18 -14 21 -14 7z"/>
<path d="M4290 5909 c0 -5 5 -7 10 -4 6 3 10 8 10 11 0 2 -4 4 -10 4 -5 0 -10
-5 -10 -11z"/>
<path d="M4349 5813 c6 -12 16 -25 21 -28 17 -11 11 5 -11 28 l-21 22 11 -22z"/>
<path d="M4241 5780 c14 -31 19 -36 19 -24 0 6 -7 19 -16 30 -14 18 -14 18 -3
-6z"/>
<path d="M4251 5735 c1 -19 18 -51 18 -35 0 8 -4 22 -9 30 -5 8 -9 11 -9 5z"/>
<path d="M4470 5675 c-7 -9 -11 -17 -9 -20 3 -2 10 5 17 15 14 24 10 26 -8 5z"/>
<path d="M4350 5621 c0 -5 5 -13 10 -16 6 -3 10 -2 10 4 0 5 -4 13 -10 16 -5
3 -10 2 -10 -4z"/>
<path d="M4495 5610 c3 -5 10 -10 16 -10 5 0 9 5 9 10 0 6 -7 10 -16 10 -8 0
-12 -4 -9 -10z"/>
<path d="M4407 5540 c3 -11 9 -20 15 -20 5 0 4 9 -2 20 -6 11 -12 20 -14 20
-2 0 -2 -9 1 -20z"/>
<path d="M4447 5480 c3 -11 9 -20 15 -20 5 0 4 9 -2 20 -6 11 -12 20 -14 20
-2 0 -2 -9 1 -20z"/>
<path d="M4520 5386 c0 -10 70 -106 77 -106 4 0 -35 58 -74 109 -2 2 -3 1 -3
-3z"/>
<path d="M4300 5255 c0 -8 4 -15 10 -15 5 0 7 7 4 15 -4 8 -8 15 -10 15 -2 0
-4 -7 -4 -15z"/>
<path d="M4606 5257 c3 -10 9 -15 12 -12 3 3 0 11 -7 18 -10 9 -11 8 -5 -6z"/>
<path d="M4630 5226 c0 -2 8 -10 18 -17 15 -13 16 -12 3 4 -13 16 -21 21 -21
13z"/>
<path d="M4681 5155 c28 -51 29 -51 29 -34 0 8 -12 28 -26 44 l-26 30 23 -40z"/>
<path d="M4760 4940 c0 -5 5 -10 11 -10 5 0 7 5 4 10 -3 6 -8 10 -11 10 -2 0
-4 -4 -4 -10z"/>
<path d="M4333 4885 c0 -27 2 -38 4 -22 2 15 2 37 0 50 -2 12 -4 0 -4 -28z"/>
<path d="M4672 4700 c0 -14 2 -19 5 -12 2 6 2 18 0 25 -3 6 -5 1 -5 -13z"/>
<path d="M4710 4700 c0 -19 3 -21 12 -12 9 9 9 15 0 24 -9 9 -12 7 -12 -12z"/>
<path d="M4432 4620 c0 -14 2 -19 5 -12 2 6 2 18 0 25 -3 6 -5 1 -5 -13z"/>
<path d="M6380 6323 c8 -3 19 -11 23 -17 6 -7 7 -6 4 4 -2 8 -12 16 -23 17
-13 2 -15 1 -4 -4z"/>
<path d="M6165 6310 c-4 -6 3 -10 14 -10 25 0 27 6 6 13 -8 4 -17 2 -20 -3z"/>
<path d="M6370 6300 c0 -5 5 -10 10 -10 6 0 10 5 10 10 0 6 -4 10 -10 10 -5 0
-10 -4 -10 -10z"/>
<path d="M5290 6244 c0 -8 5 -12 10 -9 6 4 8 11 5 16 -9 14 -15 11 -15 -7z"/>
<path d="M5282 5540 c0 -14 2 -19 5 -12 2 6 2 18 0 25 -3 6 -5 1 -5 -13z"/>
<path d="M5283 5285 c0 -27 2 -38 4 -22 2 15 2 37 0 50 -2 12 -4 0 -4 -28z"/>
<path d="M6484 4872 c-6 -4 -15 -18 -19 -32 -7 -25 -7 -25 15 3 22 28 24 42 4
29z"/>
<path d="M6520 4839 c0 -5 5 -7 10 -4 6 3 10 8 10 11 0 2 -4 4 -10 4 -5 0 -10
-5 -10 -11z"/>
<path d="M5292 4810 c0 -19 2 -27 5 -17 2 9 2 25 0 35 -3 9 -5 1 -5 -18z"/>
<path d="M6441 4818 c-1 -24 -5 -28 -31 -28 -41 0 -38 -17 4 -22 39 -4 48 9
35 52 l-7 25 -1 -27z"/>
<path d="M6230 4800 c0 -5 5 -10 11 -10 5 0 7 5 4 10 -3 6 -8 10 -11 10 -2 0
-4 -4 -4 -10z"/>
<path d="M6013 4783 c9 -2 25 -2 35 0 9 3 1 5 -18 5 -19 0 -27 -2 -17 -5z"/>
<path d="M6156 4771 c-8 -12 13 -18 42 -13 18 4 20 7 10 13 -17 11 -45 11 -52
0z"/>
<path d="M5311 4734 c0 -11 3 -14 6 -6 3 7 2 16 -1 19 -3 4 -6 -2 -5 -13z"/>
<path d="M5293 4685 c0 -22 2 -30 4 -17 2 12 2 30 0 40 -3 9 -5 -1 -4 -23z"/>
<path d="M7250 5131 c0 -5 5 -13 10 -16 6 -3 10 -2 10 4 0 5 -4 13 -10 16 -5
3 -10 2 -10 -4z"/>
<path d="M7106 4912 c-3 -5 1 -15 9 -22 16 -14 20 -3 6 19 -5 8 -11 9 -15 3z"/>
<path d="M7203 4705 c0 -22 2 -30 4 -17 2 12 2 30 0 40 -3 9 -5 -1 -4 -23z"/>
<path d="M7106 4717 c3 -10 9 -15 12 -12 3 3 0 11 -7 18 -10 9 -11 8 -5 -6z"/>
<path d="M6748 4693 c7 -3 16 -2 19 1 4 3 -2 6 -13 5 -11 0 -14 -3 -6 -6z"/>
<path d="M5080 4450 c-8 -5 -10 -10 -5 -10 6 0 17 5 25 10 8 5 11 10 5 10 -5
0 -17 -5 -25 -10z"/>
<path d="M5118 4083 c7 -3 16 -2 19 1 4 3 -2 6 -13 5 -11 0 -14 -3 -6 -6z"/>
<path d="M8518 13103 c6 -2 18 -2 25 0 6 3 1 5 -13 5 -14 0 -19 -2 -12 -5z"/>
<path d="M8590 13086 c0 -2 7 -6 15 -10 8 -3 15 -1 15 4 0 6 -7 10 -15 10 -8
0 -15 -2 -15 -4z"/>
<path d="M8660 12889 c0 -5 5 -7 10 -4 6 3 10 8 10 11 0 2 -4 4 -10 4 -5 0
-10 -5 -10 -11z"/>
<path d="M7717 12573 c-4 -3 -7 -22 -7 -40 0 -21 -4 -32 -10 -28 -6 4 -8 10
-5 15 3 5 0 12 -6 16 -12 7 -9 -13 8 -70 4 -14 2 -16 -8 -11 -11 6 -12 5 -2
-5 18 -20 24 -9 33 62 8 66 7 72 -3 61z"/>
<path d="M7691 12410 c1 -14 -2 -34 -5 -45 -8 -20 -7 -20 8 -1 18 23 20 35 6
56 -8 12 -10 10 -9 -10z"/>
<path d="M7632 12380 c0 -14 2 -19 5 -12 2 6 2 18 0 25 -3 6 -5 1 -5 -13z"/>
<path d="M7661 12364 c0 -11 3 -14 6 -6 3 7 2 16 -1 19 -3 4 -6 -2 -5 -13z"/>
<path d="M7660 12280 c0 -5 5 -10 11 -10 5 0 7 5 4 10 -3 6 -8 10 -11 10 -2 0
-4 -4 -4 -10z"/>
<path d="M7139 12117 c-25 -23 -17 -59 23 -105 15 -18 28 -39 28 -46 0 -7 11
-18 24 -26 14 -7 22 -18 19 -26 -4 -12 0 -12 22 -4 26 10 27 9 21 -14 -3 -14
-1 -37 5 -53 l11 -28 11 25 c5 14 9 28 9 33 -1 4 4 7 11 7 7 0 18 9 25 20 14
23 13 24 -23 10 -23 -9 -26 -8 -23 7 4 24 48 30 63 9 11 -14 17 -14 66 1 l54
18 -38 3 c-37 3 -47 20 -17 30 8 3 10 0 5 -8 -6 -9 -4 -11 4 -5 20 11 -43 70
-90 84 -21 6 -39 16 -39 21 0 6 -7 10 -15 10 -8 0 -15 5 -15 10 0 17 -64 50
-93 48 -15 -1 -37 -11 -48 -21z m165 -87 c3 1 20 -2 37 -5 20 -5 29 -12 25
-20 -3 -9 0 -12 10 -8 7 3 14 0 14 -6 0 -16 -13 -14 -87 16 -59 24 -65 28 -43
33 14 4 28 2 31 -3 3 -5 9 -8 13 -7z"/>
<path d="M8210 12123 c-44 -18 -62 -65 -53 -144 6 -59 7 -62 52 -89 25 -16 47
-27 49 -25 12 12 -14 61 -48 95 -22 22 -40 44 -40 50 0 5 15 10 34 10 29 0 34
4 40 30 4 25 10 30 34 30 20 0 32 -8 45 -30 10 -16 22 -30 28 -30 5 0 9 -5 9
-11 0 -5 -4 -7 -10 -4 -5 3 -10 1 -10 -4 0 -14 27 -14 35 -1 9 14 -31 85 -61
109 -26 20 -72 26 -104 14z"/>
<path d="M7777 12103 c-4 -3 -7 -11 -7 -17 0 -6 5 -5 12 2 6 6 9 14 7 17 -3 3
-9 2 -12 -2z"/>
<path d="M7940 12074 c0 -8 5 -12 10 -9 6 4 8 11 5 16 -9 14 -15 11 -15 -7z"/>
<path d="M7886 11975 c-4 -10 -2 -14 5 -9 8 5 10 -7 5 -42 -5 -41 -4 -45 5
-24 17 38 19 68 4 80 -9 8 -14 6 -19 -5z"/>
<path d="M8095 11960 c3 -5 8 -10 11 -10 2 0 4 5 4 10 0 6 -5 10 -11 10 -5 0
-7 -4 -4 -10z"/>
<path d="M7956 11943 c-6 -14 -5 -15 5 -6 7 7 10 15 7 18 -3 3 -9 -2 -12 -12z"/>
<path d="M4207 11902 c-11 -91 -31 -111 -88 -87 -20 8 -28 -4 -34 -49 -4 -28
-2 -34 13 -31 9 2 17 4 17 5 0 1 10 3 22 6 17 3 23 -2 28 -26 8 -38 23 -31 17
8 -2 18 6 50 22 84 25 53 36 138 17 138 -4 0 -11 -22 -14 -48z m-46 -129 c-6
-10 -11 -14 -11 -9 0 4 -11 1 -25 -8 -14 -9 -25 -14 -25 -12 0 2 -3 13 -6 23
-6 14 -4 16 6 6 10 -9 18 -8 38 8 29 22 39 19 23 -8z"/>
<path d="M8142 11876 c-9 -12 -23 -47 -43 -114 -17 -57 -1 -77 35 -43 14 13
24 26 23 30 -4 12 29 49 43 49 58 -4 71 31 20 54 -16 7 -30 16 -30 19 0 13
-39 17 -48 5z"/>
<path d="M7832 11770 c-14 -23 -16 -40 -3 -40 9 0 25 49 19 56 -2 2 -9 -6 -16
-16z"/>
<path d="M7723 11728 c-12 -16 -24 -48 -18 -48 2 0 11 14 20 30 16 31 15 40
-2 18z"/>
<path d="M7790 11710 c0 -5 5 -10 11 -10 5 0 7 5 4 10 -3 6 -8 10 -11 10 -2 0
-4 -4 -4 -10z"/>
<path d="M4153 11675 c0 -22 2 -30 4 -17 2 12 2 30 0 40 -3 9 -5 -1 -4 -23z"/>
<path d="M7733 11696 c3 -8 1 -17 -6 -20 -8 -3 -6 -5 3 -5 13 -1 13 -2 0 -11
-12 -8 -11 -12 7 -32 21 -22 23 -68 3 -68 -4 0 -7 -13 -6 -30 1 -16 4 -30 9
-30 7 0 11 19 10 48 -1 6 3 12 8 12 5 0 8 3 8 8 -1 4 -1 14 0 22 1 13 3 13 10
1 6 -9 6 -23 -1 -35 -10 -19 -9 -20 6 -5 21 19 12 73 -10 65 -20 -8 -17 11 4
23 9 6 12 11 7 11 -6 0 -16 -5 -23 -12 -9 -9 -12 -7 -12 11 0 12 5 31 10 42 9
16 7 19 -11 19 -14 0 -19 -5 -16 -14z"/>
<path d="M7825 11690 c-3 -5 -1 -10 4 -10 6 0 11 5 11 10 0 6 -2 10 -4 10 -3
0 -8 -4 -11 -10z"/>
<path d="M7775 11681 c-3 -5 -1 -12 5 -16 5 -3 10 1 10 9 0 18 -6 21 -15 7z"/>
<path d="M7646 11661 c-4 -5 -3 -16 0 -24 4 -11 -3 -17 -25 -22 -16 -3 -36
-14 -43 -23 -12 -15 -11 -16 5 -3 9 7 17 9 17 4 0 -15 -36 -44 -43 -36 -4 3
-7 -3 -7 -15 0 -12 -4 -22 -10 -22 -5 0 -10 9 -10 20 0 11 -4 20 -9 20 -12 0
-21 -54 -10 -61 11 -7 8 -31 -5 -40 -4 -4 -3 -9 3 -13 6 -4 13 4 17 19 3 14
10 25 16 25 5 0 7 4 4 8 -3 5 1 9 9 9 10 0 15 -10 14 -31 -1 -17 -3 -23 -6
-13 -2 9 -9 17 -14 17 -6 0 -7 -4 -4 -10 3 -5 2 -26 -4 -45 -7 -27 -6 -35 4
-35 7 0 16 12 20 28 l7 27 9 -23 c7 -19 14 -22 31 -16 19 6 21 5 11 -8 -8 -10
-9 -24 -4 -44 l9 -29 1 33 c1 30 21 48 21 18 0 -8 5 -18 11 -22 8 -4 9 0 4 15
-7 22 9 30 19 9 3 -7 4 6 2 30 -2 24 -9 48 -16 55 -10 10 -11 5 -5 -22 5 -25
4 -32 -5 -26 -8 5 -11 24 -8 56 4 40 3 47 -8 38 -20 -17 -18 8 2 28 10 11 14
26 10 45 -3 15 -1 28 4 28 6 0 9 -3 9 -7 -1 -5 -1 -17 1 -28 1 -20 2 -20 9 -1
7 19 8 19 13 -2 4 -12 2 -22 -4 -22 -5 0 -6 -4 -3 -10 3 -5 1 -10 -4 -10 -6 0
-11 -9 -11 -20 0 -11 5 -20 10 -20 6 0 10 9 10 19 0 11 4 23 10 26 5 3 15 16
22 28 10 20 10 21 -5 8 -15 -12 -17 -11 -17 7 0 11 6 23 13 25 7 3 5 6 -5 6
-19 1 -26 21 -8 21 6 0 10 6 10 14 0 11 -7 13 -29 6 -24 -7 -29 -5 -24 6 6 16
-3 19 -11 5z m-23 -85 c3 -8 0 -17 -7 -19 -10 -4 -12 1 -9 14 6 23 9 24 16 5z
m7 -101 c0 -5 -5 -3 -10 5 -5 8 -10 20 -10 25 0 6 5 3 10 -5 5 -8 10 -19 10
-25z m-20 -52 c0 -7 -4 -13 -9 -13 -5 0 -8 12 -8 26 0 18 2 22 8 13 5 -8 9
-20 9 -26z"/>
<path d="M7825 11660 c-3 -5 -4 -14 0 -19 3 -5 1 -12 -5 -16 -6 -4 -8 -11 -5
-16 12 -18 20 -8 21 26 1 37 -1 42 -11 25z"/>
<path d="M4081 11614 c0 -11 3 -14 6 -6 3 7 2 16 -1 19 -3 4 -6 -2 -5 -13z"/>
<path d="M7922 11590 c0 -14 2 -19 5 -12 2 6 2 18 0 25 -3 6 -5 1 -5 -13z"/>
<path d="M4090 11580 c0 -5 5 -10 10 -10 6 0 10 5 10 10 0 6 -4 10 -10 10 -5
0 -10 -4 -10 -10z"/>
<path d="M7816 11565 c-3 -8 -1 -15 4 -15 6 0 10 7 10 15 0 8 -2 15 -4 15 -2
0 -6 -7 -10 -15z"/>
<path d="M7851 11544 c0 -11 3 -14 6 -6 3 7 2 16 -1 19 -3 4 -6 -2 -5 -13z"/>
<path d="M7871 11544 c0 -11 3 -14 6 -6 3 7 2 16 -1 19 -3 4 -6 -2 -5 -13z"/>
<path d="M7926 11543 c-6 -14 -5 -15 5 -6 7 7 10 15 7 18 -3 3 -9 -2 -12 -12z"/>
<path d="M7717 11533 c-4 -3 -7 -16 -6 -27 0 -19 1 -19 10 3 10 24 8 36 -4 24z"/>
<path d="M7902 11500 c0 -14 2 -19 5 -12 2 6 2 18 0 25 -3 6 -5 1 -5 -13z"/>
<path d="M7937 11485 c-4 -8 -2 -17 3 -20 6 -4 10 3 10 14 0 25 -6 27 -13 6z"/>
<path d="M7700 11457 c0 -10 7 -25 15 -33 19 -19 19 -14 0 22 -11 21 -15 24
-15 11z"/>
<path d="M7760 11461 c0 -5 5 -13 10 -16 6 -3 10 -2 10 4 0 5 -4 13 -10 16 -5
3 -10 2 -10 -4z"/>
<path d="M8030 11459 c0 -5 5 -7 10 -4 6 3 10 8 10 11 0 2 -4 4 -10 4 -5 0
-10 -5 -10 -11z"/>
<path d="M7901 11444 c0 -11 3 -14 6 -6 3 7 2 16 -1 19 -3 4 -6 -2 -5 -13z"/>
<path d="M7493 11410 c-8 -12 -9 -21 -3 -25 6 -3 10 1 10 10 0 9 5 13 10 10 6
-3 10 1 10 9 0 22 -13 20 -27 -4z"/>
<path d="M7810 11420 c0 -5 5 -10 11 -10 5 0 7 5 4 10 -3 6 -8 10 -11 10 -2 0
-4 -4 -4 -10z"/>
<path d="M7755 11390 c-3 -5 -1 -10 4 -10 6 0 11 5 11 10 0 6 -2 10 -4 10 -3
0 -8 -4 -11 -10z"/>
<path d="M8034 11392 c-9 -5 -8 -11 2 -20 12 -11 14 -9 14 8 0 22 0 23 -16 12z"/>
<path d="M7802 11365 c0 -16 2 -22 5 -12 2 9 2 23 0 30 -3 6 -5 -1 -5 -18z"/>
<path d="M7517 11373 c-4 -3 -7 -11 -7 -17 0 -6 5 -5 12 2 6 6 9 14 7 17 -3 3
-9 2 -12 -2z"/>
<path d="M7541 11364 c0 -11 3 -14 6 -6 3 7 2 16 -1 19 -3 4 -6 -2 -5 -13z"/>
<path d="M7826 11365 c4 -8 1 -22 -6 -30 -8 -10 -9 -15 -2 -15 7 0 9 -8 5 -17
-3 -10 -3 -15 1 -12 12 11 17 77 6 84 -6 3 -7 -1 -4 -10z"/>
<path d="M7728 11347 c-3 -15 -1 -27 4 -27 5 0 7 -4 4 -8 -2 -4 4 -9 15 -9 21
-2 26 12 8 22 -6 4 -14 16 -18 28 -7 20 -8 19 -13 -6z"/>
<path d="M7435 11350 c-3 -5 -2 -10 4 -10 5 0 13 5 16 10 3 6 2 10 -4 10 -5 0
-13 -4 -16 -10z"/>
<path d="M8798 11338 c-24 -24 -2 -24 35 1 28 18 28 18 5 18 -12 0 -31 -9 -40
-19z"/>
<path d="M7792 11310 c0 -14 2 -19 5 -12 2 6 2 18 0 25 -3 6 -5 1 -5 -13z"/>
<path d="M7436 11247 c3 -10 9 -15 12 -12 3 3 0 11 -7 18 -10 9 -11 8 -5 -6z"/>
<path d="M7246 11064 c-9 -22 3 -32 14 -14 12 19 12 30 1 30 -5 0 -12 -7 -15
-16z"/>
<path d="M7379 10764 c10 -29 19 -40 26 -33 6 6 5 16 -3 29 -6 11 -12 26 -12
33 0 8 -6 14 -13 14 -11 0 -10 -9 2 -43z"/>
<path d="M6344 10708 c-9 -17 -26 -40 -38 -50 -13 -11 -16 -17 -8 -18 8 0 2
-10 -13 -22 -85 -71 -106 -93 -103 -107 2 -10 -10 -23 -32 -34 -19 -9 -26 -14
-15 -11 11 4 44 9 73 12 29 2 55 8 58 13 3 5 -2 9 -10 9 -9 0 -16 5 -16 10 0
6 8 10 18 10 21 0 62 40 62 60 0 8 11 25 24 39 14 16 26 44 30 74 8 55 -5 63
-30 15z"/>
<path d="M850 7806 c0 -2 9 -6 20 -9 11 -3 18 -1 14 4 -5 9 -34 13 -34 5z"/>
<path d="M618 7633 c7 -3 16 -2 19 1 4 3 -2 6 -13 5 -11 0 -14 -3 -6 -6z"/>
<path d="M108 7623 c12 -2 30 -2 40 0 9 3 -1 5 -23 4 -22 0 -30 -2 -17 -4z"/>
<path d="M303 7623 c43 -2 110 -2 150 0 40 1 5 3 -78 3 -82 0 -115 -2 -72 -3z"/>
<path d="M732 5890 c0 -14 2 -19 5 -12 2 6 2 18 0 25 -3 6 -5 1 -5 -13z"/>
<path d="M687 5623 c-4 -3 -7 -11 -7 -17 0 -6 5 -5 12 2 6 6 9 14 7 17 -3 3
-9 2 -12 -2z"/>
<path d="M661 5444 c0 -11 3 -14 6 -6 3 7 2 16 -1 19 -3 4 -6 -2 -5 -13z"/>
<path d="M616 5245 c-9 -26 -7 -32 5 -12 6 10 9 21 6 23 -2 3 -7 -2 -11 -11z"/>
<path d="M601 5134 c0 -11 3 -14 6 -6 3 7 2 16 -1 19 -3 4 -6 -2 -5 -13z"/>
<path d="M602 5080 c0 -14 2 -19 5 -12 2 6 2 18 0 25 -3 6 -5 1 -5 -13z"/>
<path d="M575 4999 c-4 -6 -5 -12 -2 -15 2 -3 7 2 10 11 7 17 1 20 -8 4z"/>
<path d="M542 4860 c0 -14 2 -19 5 -12 2 6 2 18 0 25 -3 6 -5 1 -5 -13z"/>
<path d="M254 4780 c0 -13 4 -16 10 -10 7 7 7 13 0 20 -6 6 -10 3 -10 -10z"/>
<path d="M130 4760 c0 -5 5 -10 10 -10 6 0 10 5 10 10 0 6 -4 10 -10 10 -5 0
-10 -4 -10 -10z"/>
<path d="M602 4715 c0 -16 2 -22 5 -12 2 9 2 23 0 30 -3 6 -5 -1 -5 -18z"/>
<path d="M577 4643 c-7 -63 9 -79 18 -18 5 27 3 51 -2 56 -7 7 -12 -6 -16 -38z"/>
<path d="M388 4636 c-3 -25 0 -36 9 -36 9 0 11 10 6 33 -8 43 -10 44 -15 3z"/>
<path d="M280 4650 c0 -5 5 -10 11 -10 5 0 7 5 4 10 -3 6 -8 10 -11 10 -2 0
-4 -4 -4 -10z"/>
<path d="M60 4638 c0 -4 -7 -8 -15 -8 -8 0 -15 -4 -15 -10 0 -5 7 -10 15 -10
8 0 15 -4 15 -8 0 -5 7 -9 15 -9 8 0 15 4 15 9 0 4 -7 8 -15 8 -8 0 -15 5 -15
10 0 6 7 10 15 10 8 0 15 4 15 8 0 5 -7 9 -15 9 -8 0 -15 -4 -15 -9z"/>
<path d="M255 4571 c3 -18 5 -37 5 -42 0 -5 4 -9 9 -9 13 0 18 32 10 60 l-7
25 -2 -25 -2 -25 -9 25 c-7 21 -8 20 -4 -9z"/>
<path d="M440 4590 c0 -5 9 -10 20 -10 11 0 20 5 20 10 0 6 -9 10 -20 10 -11
0 -20 -4 -20 -10z"/>
<path d="M564 4551 c2 -26 -1 -35 -16 -39 -21 -5 -25 -32 -4 -32 8 0 16 -8 19
-17 3 -14 4 -14 4 2 -1 11 2 29 6 40 4 11 2 34 -3 50 l-10 30 4 -34z"/>
<path d="M296 4545 c-9 -26 -7 -32 5 -12 6 10 9 21 6 23 -2 3 -7 -2 -11 -11z"/>
<path d="M367 4503 c3 -7 9 -13 13 -13 4 0 10 6 13 13 3 7 -3 13 -13 13 -10 0
-16 -6 -13 -13z"/>
</g>
</svg>
